<?xml version="1.0" standalone="no"?>
<!DOCTYPE svg PUBLIC "-//W3C//DTD SVG 1.1//EN" "http://www.w3.org/Graphics/SVG/1.1/DTD/svg11.dtd" >
<svg>
<metadata>
Created by FontForge 20090914 at Sat Jun 22 08:46:15 2013
 By www-data
Copyright (c) 2003 by Sharif FarsiWeb, Inc. All Rights Reserved.
Copyright (c) 2003 by Bitstream, Inc. All Rights Reserved.
</metadata>
<defs>
<font id="Terafik" horiz-adv-x="1108" >
  <font-face 
    font-family="Terafik"
    font-weight="400"
    font-stretch="normal"
    units-per-em="2048"
    panose-1="1 0 5 0 0 0 0 0 0 0"
    ascent="1638"
    descent="-410"
    x-height="922"
    cap-height="1239"
    bbox="-258 -1295 2381 2090"
    underline-thickness="60"
    underline-position="-330"
    unicode-range="U+0020-U+FEFC"
  />
<missing-glyph horiz-adv-x="1024" 
d="M128 0v1240h768v-1240h-768zM256 128h512v984h-512v-984z" />
    <glyph glyph-name="afii57457_afii57452" unicode="&#x651;&#x64c;" horiz-adv-x="470" arabic-form="isolated" 
d="M527 1938c0 -90 -56 -148.334 -168 -175.001l-357 -84l-20 75c54 15.333 81 46.666 81 93.999c0 27.333 -9 41 -27 41c-14 0 -32.333 -7.33301 -55 -22l-37 55c32.667 44 67.667 65.667 105 65c56 -1.33301 84 -30.666 84 -87.999c0 -43.333 -13 -82.666 -39 -117.999
c33.333 9.33301 78 23.333 134 42c-26.667 32.667 -40 69 -40 109c0 44 19.667 82.333 59 115c34.667 28.667 68.667 43 102 43c44 0 84 -14 120 -42c38.667 -30 58 -66.667 58 -110zM521 1491c0 -38 -9.66992 -70 -29.0029 -96c-21.333 -28.667 -50.666 -43 -87.999 -43
c-64 0 -114 25.667 -150 77c-38 -86 -96.667 -129 -176 -129c-34.667 0 -63 13 -85 39c-20 24 -30 53.667 -30 89c0 46 14.667 103.333 44 172l63 -32c-18.667 -52 -28 -85 -28 -99c0 -45.333 18.333 -68 55 -68c72.667 0 107.334 61.333 104.001 184l86 46
c2.66699 -120.667 34.334 -181 95.001 -181c38.667 0 58 21 58 63c0 23.333 -16.333 59.666 -49 108.999l67 50c42 -59.333 63 -119.666 63 -180.999zM433.997 1927c0 21.333 -7.83301 39 -23.5 53s-34.167 21 -55.5 21c-20.667 0 -39 -7.16699 -55 -21.5
s-24 -31.833 -24 -52.5c0 -21.333 7.83301 -39 23.5 -53s34.167 -21 55.5 -21s39.833 7 55.5 21s23.5 31.667 23.5 53z" />
    <glyph glyph-name="afii57457_afii57453" unicode="&#x651;&#x64d;" horiz-adv-x="470" arabic-form="isolated" 
d="M521 1881c0 -38.667 -9.66992 -70.668 -29.0029 -96.001c-21.333 -28.667 -50.666 -43 -87.999 -43c-64 0 -114 25.667 -150 77c-38 -86 -96.667 -129 -176 -129c-35.333 0 -63.333 12.333 -84 37s-31 55 -31 91c0 46 14.667 103.333 44 172l63 -32
c-18.667 -52 -28 -85 -28 -99c0 -45.333 18.333 -68 55 -68c72.667 0 107.334 61.333 104.001 184l86 46c2.66699 -121.333 34.334 -182 95.001 -182c38.667 0 58 21 58 63c0 22 -16.333 58.667 -49 110l67 50c42 -59.333 63 -119.666 63 -180.999zM532.997 1599l-526 -131
l-24 78l525 137zM532.997 1426l-526 -130l-24 77l525 138z" />
    <glyph glyph-name="afii57457_afii57454" unicode="&#x651;&#x64e;" horiz-adv-x="470" arabic-form="isolated" 
d="M523 1816l-526 -131l-23 78l526 138zM521 1491c0 -38 -9.66992 -70 -29.0029 -96c-21.333 -28.667 -50.666 -43 -87.999 -43c-64 0 -114 25.667 -150 77c-38 -86 -96.667 -129 -176 -129c-34.667 0 -63 13 -85 39c-20 24 -30 53.667 -30 89c0 46 14.667 103.333 44 172
l63 -32c-18.667 -52 -28 -85 -28 -99c0 -45.333 18.333 -68 55 -68c72.667 0 107.334 61.333 104.001 184l86 46c2.66699 -120.667 34.334 -181 95.001 -181c38.667 0 58 21 58 63c0 23.333 -16.333 59.666 -49 108.999l67 50c42 -59.333 63 -119.666 63 -180.999z" />
    <glyph glyph-name="afii57457_afii57455" unicode="&#x651;&#x64f;" horiz-adv-x="470" arabic-form="isolated" 
d="M527 1938c0 -90 -56 -148.333 -168 -175l-357 -84l-20 75c89.333 17.333 171.333 40.333 246 69c-26.667 32.667 -40 69 -40 109c0 44 19.667 82.333 59 115c34.667 28.667 68.667 43 102 43c44 0 84 -14 120 -42c38.667 -30 58 -66.667 58 -110zM521 1491
c0 -38 -9.66992 -70 -29.0029 -96c-21.333 -28.667 -50.666 -43 -87.999 -43c-64 0 -114 25.667 -150 77c-38 -86 -96.667 -129 -176 -129c-34.667 0 -63 13 -85 39c-20 24 -30 53.667 -30 89c0 46 14.667 103.333 44 172l63 -32c-18.667 -52 -28 -85 -28 -99
c0 -45.333 18.333 -68 55 -68c72.667 0 107.334 61.333 104.001 184l86 46c2.66699 -120.667 34.334 -181 95.001 -181c38.667 0 58 21 58 63c0 23.333 -16.333 59.666 -49 108.999l67 50c42 -59.333 63 -119.666 63 -180.999zM433.997 1927c0 21.333 -7.83301 39 -23.5 53
s-34.167 21 -55.5 21c-20.667 0 -39 -7.16699 -55 -21.5s-24 -31.833 -24 -52.5c0 -21.333 7.83301 -39 23.5 -53s34.167 -21 55.5 -21s39.833 7 55.5 21s23.5 31.667 23.5 53z" />
    <glyph glyph-name="afii57457_afii57456" unicode="&#x651;&#x650;" horiz-adv-x="470" arabic-form="isolated" 
d="M521 1708c0 -38 -9.66992 -69.999 -29.0029 -95.999c-21.333 -28 -50.666 -42 -87.999 -42c-64.667 0 -114.667 25.667 -150 77c-37.333 -86 -96 -129 -176 -129c-35.333 0 -63.333 12.333 -84 37s-31 55 -31 91c0 46 14.667 103.333 44 172l63 -33
c-18.667 -51.333 -28 -84.333 -28 -99c0 -44.667 18.333 -67 55 -67c72.667 0 107.334 61.333 104.001 184l86 46c2.66699 -120.667 34.334 -181 95.001 -181c38.667 0 58 20.667 58 62c0 23.333 -16.333 59.666 -49 108.999l67 50c42 -58 63 -118.333 63 -181z
M532.997 1426l-526 -130l-24 77l525 138z" />
    <glyph glyph-name="afii57444_afii57410.isol" unicode="&#xfedf;&#xfe82;" horiz-adv-x="1101" arabic-form="isolated" 
d="M1094 489c0 -157.333 -59.668 -280.332 -179.001 -368.999c-107.333 -79.333 -242.666 -119 -405.999 -119c-118.667 0 -202 17.667 -250 53v124c102 4 186.667 8 254 12c134 7.33301 207.667 14.666 221 21.999l-422 794l130 85l410 -808c58 53.333 87 143 87 269v606
h155v-669zM860.999 1299c-134 -74.667 -273.666 -111.999 -418.999 -111.999c-32.667 0 -80 12.333 -142 37c-56.667 23.333 -83.667 36 -81 38c-10.667 -2.66699 -28.667 -25.334 -54 -68.001l-103 63c56 100 98.667 150 128 150c5.33301 0 40 -14.333 104 -43
s118.667 -43 164 -43c127.333 0 261.666 34.333 402.999 103v-125z" />
    <glyph glyph-name="afii57444_afii57410.fina" unicode="&#xfee0;&#xfe82;" horiz-adv-x="1302" arabic-form="final" 
d="M1302 1l-41 0.000976562c-58 0 -114.667 14.667 -170 44c-57.333 30 -100 69.333 -128 118c-106.667 -108 -258 -162 -454 -162c-118.667 0 -202 17.667 -250 53v124c102 4 186.667 8 254 12c134 7.33301 207.667 14.666 221 21.999l-422 794l130 85l410 -808
c58 53.333 87 143 87 269v606h155v-659c0 -102 -18.333 -178 -55 -228c62 -62 133.333 -93 214 -93h49v-177zM861 1299c-134 -74.667 -273.666 -111.999 -418.999 -111.999c-32.667 0 -80 12.333 -142 37c-56.667 23.333 -83.667 36 -81 38
c-10.667 -2.66699 -28.667 -25.334 -54 -68.001l-103 63c56 100 98.667 150 128 150c5.33301 0 40 -14.333 104 -43s118.667 -43 164 -43c127.333 0 261.666 34.333 402.999 103v-125z" />
    <glyph glyph-name="afii57444_afii57411.isol" unicode="&#xfedf;&#xfe84;" horiz-adv-x="1004" arabic-form="isolated" 
d="M1002 489c0 -158 -58.999 -280.999 -176.999 -368.999c-106.667 -79.333 -242 -119 -406 -119c-120 0 -203.333 17.667 -250 53v124c101.333 4 185.666 8 252.999 12c134 7.33301 207.667 14.666 221 21.999l-422 794l130 85l411 -808c57.333 53.333 86 143 86 269v606
h154v-669zM566.001 1354l-464.001 -153l-28 74l166 55c-32.667 32 -49 74.333 -49 127c0 45.333 22.333 80.666 67 105.999c36.667 21.333 79.334 32 128.001 32c20 0 40.333 -1.66699 61 -5v-68c-14.667 2 -29 3 -43 3c-86.667 0 -130 -26.667 -130 -80
c0 -19.333 8.5 -35.666 25.5 -48.999s35.5 -20 55.5 -20c24.667 0 86.667 17.667 186 53z" />
    <glyph glyph-name="afii57444_afii57411.fina" unicode="&#xfee0;&#xfe84;" horiz-adv-x="1166" arabic-form="final" 
d="M1166 1l-40.999 0.000976562c-58 0 -114.667 14.667 -170 44c-57.333 30 -100 69.333 -128 118c-106.667 -108 -257.667 -162 -453 -162c-120 0 -203.667 17.667 -251 53v124c101.333 4 185.666 8 252.999 12c134.667 7.33301 208.334 14.666 221.001 21.999l-421 794
l130 85l410 -808c58 53.333 87 143 87 269v606h154v-659c0 -102 -18 -178 -54 -228c63.333 -62 134.666 -93 213.999 -93h49v-177zM566.001 1354l-464.001 -153l-28 74l166 55c-32.667 32 -49 74.333 -49 127c0 45.333 22.333 80.666 67 105.999
c36.667 21.333 79.334 32 128.001 32c20 0 40.333 -1.66699 61 -5v-68c-14.667 2 -29 3 -43 3c-86.667 0 -130 -26.667 -130 -80c0 -19.333 8.5 -35.666 25.5 -48.999s35.5 -20 55.5 -20c24.667 0 86.667 17.667 186 53z" />
    <glyph glyph-name="afii57444_afii57413.isol" unicode="&#xfedf;&#xfe88;" horiz-adv-x="914" arabic-form="isolated" 
d="M912 489c0 -158 -59.334 -280.999 -178.001 -368.999c-106.667 -79.333 -242 -119 -406 -119c-119.333 0 -202.666 17.667 -249.999 53v124c101.333 4 185.666 8 252.999 12c134.667 7.33301 208.334 14.666 221.001 21.999l-421 794l130 85l410 -808
c58 53.333 87 143 87 269v606h154v-669zM565.999 -359.999l-464.001 -153l-28 74l166 56c-32.667 30.667 -49 73 -49 127c0 45.333 22.333 80.666 67 105.999c36.667 21.333 79.334 32 128.001 32c20 0 40.333 -1.66699 61 -5v-69c-14.667 2.66699 -29 4 -43 4
c-86.667 0 -130 -27 -130 -81c0 -19.333 9 -35.666 27 -48.999c16 -12.667 34 -19 54 -19c24.667 0 86.667 17.333 186 52z" />
    <glyph glyph-name="afii57444_afii57413.fina" unicode="&#xfee0;&#xfe88;" horiz-adv-x="1121" arabic-form="final" 
d="M1121 1l-42.002 0.000976562c-63.333 0 -123.666 16.667 -180.999 50c-52 30 -90.667 67.333 -116 112c-106.667 -108 -258 -162 -454 -162c-119.333 0 -202.666 17.667 -249.999 53v124c101.333 4 185.666 8 252.999 12c134.667 7.33301 208.334 14.666 221.001 21.999
l-421 794l130 85l410 -808c58 53.333 87 143 87 269v606h154v-659c0 -102 -18 -178 -54 -228c62 -62 133.333 -93 214 -93h49v-177zM565.998 -359.999l-464.001 -153l-28 74l166 56c-32.667 30.667 -49 73 -49 127c0 45.333 22.333 80.666 67 105.999
c36.667 21.333 79.334 32 128.001 32c20 0 40.333 -1.66699 61 -5v-69c-14.667 2.66699 -29 4 -43 4c-86.667 0 -130 -27 -130 -81c0 -19.333 9 -35.666 27 -48.999c16 -12.667 34 -19 54 -19c24.667 0 86.667 17.333 186 52z" />
    <glyph glyph-name="afii57444_afii57415.isol" unicode="&#xfedf;&#xfe8e;" horiz-adv-x="914" arabic-form="isolated" 
d="M912 489c0 -158 -59.334 -280.999 -178.001 -368.999c-106.667 -79.333 -242 -119 -406 -119c-119.333 0 -202.666 17.667 -249.999 53v124c101.333 4 185.666 8 252.999 12c134.667 7.33301 208.334 14.666 221.001 21.999l-421 794l130 85l410 -808
c58 53.333 87 143 87 269v606h154v-669z" />
    <glyph glyph-name="afii57444_afii57415.fina" unicode="&#xfee0;&#xfe8e;" horiz-adv-x="1121" arabic-form="final" 
d="M1121 1l-42.002 0.000976562c-63.333 0 -123.666 16.667 -180.999 50c-52 30 -90.667 67.333 -116 112c-106.667 -108 -258 -162 -454 -162c-119.333 0 -202.666 17.667 -249.999 53v124c101.333 4 185.666 8 252.999 12c134.667 7.33301 208.334 14.666 221.001 21.999
l-421 794l130 85l410 -808c58 53.333 87 143 87 269v606h154v-659c0 -102 -18 -178 -54 -228c62 -62 133.333 -93 214 -93h49v-177z" />
    <glyph glyph-name="afii57457_afii57451" unicode="&#x651;&#x64b;" horiz-adv-x="470" 
d="M533 1979l-526 -130l-24 78l525 137zM533 1807l-526 -130l-24 78l525 136zM521 1491c0 -38 -9.66992 -70 -29.0029 -96c-21.333 -28.667 -50.666 -43 -87.999 -43c-64 0 -114 25.667 -150 77c-38 -86 -96.667 -129 -176 -129c-34.667 0 -63 13 -85 39
c-20 24 -30 53.667 -30 89c0 46 14.667 103.333 44 172l63 -32c-18.667 -52 -28 -85 -28 -99c0 -45.333 18.333 -68 55 -68c72.667 0 107.334 61.333 104.001 184l86 46c2.66699 -120.667 34.334 -181 95.001 -181c38.667 0 58 21 58 63
c0 23.333 -16.333 59.666 -49 108.999l67 50c42 -59.333 63 -119.666 63 -180.999z" />
    <glyph glyph-name="uni0644064406510647" unicode="&#xfedf;&#xfee0;&#x651;&#x670;&#xfeea;" horiz-adv-x="1640" 
d="M1133 1521l-26 -206h-35l-20 206h81zM1371 1121c0 -38 -10.998 -70.6699 -32.998 -98.0029s-51.667 -41 -89 -41c-70.667 0 -122.334 30 -155.001 90c-40 -68.667 -95.667 -103 -167 -103c-35.333 0 -63.333 14 -84 42c-19.333 26 -29 57 -29 93
c0 41.333 14 95.333 42 162l65 -32c-19.333 -49.333 -29 -84.666 -29 -105.999c0 -39.333 18.333 -59 55 -59c72 0 106.667 64 104 192h79c1.33301 -121.333 35.666 -182 102.999 -182c35.333 0 53 21 53 63c0 22.667 -15.333 59.334 -46 110.001l68 50
c42 -59.333 63 -119.666 63 -180.999zM1637 360.997c0 -56 -5.00098 -108.999 -15.001 -158.999c-26.667 -134 -110 -201 -250 -201c-122 0 -204.667 64.333 -248 193c-35.333 -133.333 -114.666 -200 -237.999 -200c-125.333 0 -210.333 67.667 -255 203
c-65.333 -12.667 -117.666 -19 -156.999 -19c-80 0 -148.333 14 -205 42c-72.667 36 -109 90 -109 162c0 105.333 121.333 201.666 364 288.999l-20 112l129 40l77 -438c24.667 -138.667 81.667 -208 171 -208c90 0 135 66.667 135 200v529h168v-423
c0 -76.667 11.333 -141.667 34 -195c31.333 -74 80 -111 146 -111c49.333 0 81.666 15.667 96.999 47c10 20 15 58.667 15 116v566h161v-545zM586.001 338.998l-45 222c-166 -49.333 -249 -103 -249 -161c0 -9.33301 2 -18 6 -26c14.667 -30.667 65.667 -48 153 -52
c46.667 -2 91.667 3.66699 135 17z" />
    <glyph glyph-name="afii57409" unicode="&#x621;" horiz-adv-x="981" arabic-form="isolated" 
d="M923 242l-738.001 -194.001l-31 110l284 73c-58.667 58 -88 126.667 -88 206c0 65.333 23.667 118.333 71 159c44.667 38 100 57 166 57c44.667 0 104.334 -9.66699 179.001 -29l-17 -98c-58 14.667 -105 22 -141 22c-35.333 0 -68.333 -10.333 -99 -31
c-34 -23.333 -51 -52 -51 -86c0 -41.333 21.667 -75.666 65 -102.999c38 -24 78.667 -36 122 -36c26.667 0 109 19 247 57z" />
    <glyph glyph-name="afii57410.isol" unicode="&#x622;" horiz-adv-x="897" arabic-form="isolated" 
d="M614 1h-167v1108h167v-1108zM897 1309c-132 -74.667 -271.331 -111.999 -417.998 -111.999c-33.333 0 -81 12.333 -143 37c-57.333 22.667 -84.666 35 -81.999 37c-9.33301 -2.66699 -27 -25.334 -53 -68.001l-103 62c56.667 101.333 99 152 127 152
c5.33301 0 40.166 -14.5 104.499 -43.5s119.166 -43.5 164.499 -43.5c127.333 0 261.666 34.667 402.999 104v-125z" />
    <glyph glyph-name="afii57411.isol" unicode="&#x623;" horiz-adv-x="581" arabic-form="isolated" 
d="M612 1331l-465 -153l-28 74l166 56c-32.667 30.667 -49 73 -49 127c0 44.667 22.667 80 68 106c37.333 21.333 80 32 128 32c19.333 0 39.333 -1.66699 60 -5v-69c-14 2.66699 -28 4 -42 4c-86.667 0 -130 -27 -130 -81c0 -19.333 8.5 -35.5 25.5 -48.5
s35.5 -19.5 55.5 -19.5c24 0 85.667 17.333 185 52zM452 1h-168v1158h168v-1158z" />
    <glyph glyph-name="afii57412.isol" unicode="&#x624;" horiz-adv-x="936" arabic-form="isolated" 
d="M712 892l-465 -154l-27 75l164 55c-32.667 32 -49 74.333 -49 127c0 44.667 22.333 80 67 106c38 21.333 81 32 129 32c19.333 0 39.666 -1.66699 60.999 -5v-68c-14.667 2 -29 3 -43 3c-30.667 0 -58 -5.66699 -82 -17c-31.333 -14.667 -47 -35.667 -47 -63
c0 -20 8.33301 -36.5 25 -49.5s35.334 -19.5 56.001 -19.5c24 0 86 17.667 186 53zM919 240c0 -239.333 -246.999 -478 -740.999 -716l-78 134c113.333 52 223.666 113 330.999 183c162.667 106 270 207 322 303h-120c-88 0 -156 24.167 -204 72.5s-72 116.5 -72 204.5
c0 63.333 23.833 117.833 71.5 163.5s103.167 68.5 166.5 68.5c74 0 142 -29.667 204 -89c80 -76 120 -184 120 -324zM763.001 318c-2 50.667 -24 94.667 -66 132c-36 32 -69.667 48 -101 48c-26 0 -49.667 -8 -71 -24c-24 -17.333 -36 -38.333 -36 -63
c0 -62 38.333 -93 115 -93h159z" />
    <glyph glyph-name="afii57413.isol" unicode="&#x625;" horiz-adv-x="662" arabic-form="isolated" 
d="M479 1h-168v1158h168v-1158zM612 -347l-465.001 -152.999l-28 74l166 56c-32.667 31.333 -49 73.666 -49 126.999c0 44.667 22.667 80 68 106c37.333 21.333 80 32 128 32c19.333 0 39.333 -1.66699 60 -5v-68c-14 2.66699 -27.667 4 -41 4
c-31.333 0 -59.333 -5.66699 -84 -17c-31.333 -14.667 -47 -36 -47 -64c0 -20 8.33301 -36.5 25 -49.5s35.334 -19.5 56.001 -19.5c21.333 0 83 17.333 185 52z" />
    <glyph glyph-name="afii57414.isol" unicode="&#x626;" horiz-adv-x="1423" arabic-form="isolated" 
d="M1417 666l-65 -127.998c-54 28 -105.667 42 -155 42c-92.667 0 -184 -53 -274 -159c-15.333 -18 -23 -35.333 -23 -52c0 -29.333 18 -45.333 54 -48l275 -19c106.667 -8 160 -65 160 -171c0 -89.333 -66 -185.333 -198 -288c-150.667 -116.667 -322 -175 -514 -175
c-153.333 0 -276.333 37.667 -369 113c-100.667 82 -151 197.333 -151 346c0 101.333 16 192.666 48 273.999l123 -41c-22 -75.333 -33 -136.333 -33 -183c0 -226.667 131.333 -340 394 -340c93.333 0 186.333 16.667 279 50c118 42 204.333 103 259 183
c12 17.333 18 32.333 18 45c0 19.333 -15.667 29 -47 29c-147.333 1.33301 -241.333 6.33301 -282 15c-114 25.333 -171 84.666 -171 177.999c0 84 52.667 172 158 264c102 89.333 194.667 134 278 134c86 0 164.667 -23 236 -69zM566 737.002l-464.001 -152.999l-28 75
l166 55c-32.667 30.667 -49 73 -49 127c0 45.333 22.333 80.666 67 105.999c36.667 21.333 79.334 32 128.001 32c20 0 40.333 -1.66699 61 -5v-68c-14.667 2 -29 3 -43 3c-30.667 0 -58.334 -5.66699 -83.001 -17c-31.333 -14.667 -47 -35.667 -47 -63
c0 -20.667 9.33301 -37.667 28 -51c16.667 -12 34.334 -18 53.001 -18c24.667 0 86.667 17.667 186 53z" />
    <glyph glyph-name="afii57415.isol" unicode="&#x627;" horiz-adv-x="326" arabic-form="isolated" 
d="M325 1h-168v1158h168v-1158z" />
    <glyph glyph-name="afii57416.isol" unicode="&#x628;" horiz-adv-x="1624" arabic-form="isolated" 
d="M1621 241c0 -72 -25.667 -130.667 -77 -176c-48.667 -42.667 -109.667 -64 -183 -64h-914c-86.667 0 -156.667 28.5 -210 85.5s-80 129.167 -80 216.5v71h149v-34c0 -108 52 -162 156 -162h883c81.333 0 122 23.333 122 70c0 23.333 -10.333 55.333 -31 96l-79 155
l130 85l91 -187c28.667 -66 43 -118 43 -156zM952 -334h-159v157h159v-157z" />
    <glyph glyph-name="afii57417.isol" unicode="&#x629;" horiz-adv-x="876" arabic-form="isolated" 
d="M869 275c0 -94.667 -39 -166.333 -117 -215c-63.333 -39.333 -141 -59 -233 -59c-117.333 0 -207 31.167 -269 93.5s-93 151.5 -93 267.5c0 78.667 19 147.667 57 207c44 68 103.333 102 178 102c92 0 192.333 -40.333 301 -121c117.333 -87.333 176 -179 176 -275z
M725 281.001c0 47.333 -44.333 100.333 -133 159c-82 54.667 -144.667 82 -188 82c-34 0 -60.667 -20.333 -80 -61c-15.333 -32.667 -23 -68 -23 -106c0 -58.667 21 -103.667 63 -135c37.333 -28 86.333 -42 147 -42c142.667 0 214 34.333 214 103zM590 876.001h-158v157
h158v-157zM374 876.001h-158v157h158v-157z" />
    <glyph glyph-name="afii57418.isol" unicode="&#x62a;" horiz-adv-x="1624" arabic-form="isolated" 
d="M1018 487h-158v157h158v-157zM802 487h-158v157h158v-157zM1621 241c0 -72 -25.667 -130.667 -77 -176c-48.667 -42.667 -109.667 -64 -183 -64h-914c-86.667 0 -156.667 28.5 -210 85.5s-80 129.167 -80 216.5v71h149v-34c0 -108 52 -162 156 -162h883
c81.333 0 122 23.333 122 70c0 23.333 -10.333 55.333 -31 96l-79 155l130 85l91 -187c28.667 -66 43 -118 43 -156z" />
    <glyph glyph-name="afii57419.isol" unicode="&#x62b;" horiz-adv-x="1624" arabic-form="isolated" 
d="M911 692h-159v158h159v-158zM1018 489h-158v158h158v-158zM802 489h-158v158h158v-158zM1621 241c0 -72 -25.667 -130.667 -77 -176c-48.667 -42.667 -109.667 -64 -183 -64h-914c-86.667 0 -156.667 28.5 -210 85.5s-80 129.167 -80 216.5v71h149v-34
c0 -108 52 -162 156 -162h883c81.333 0 122 23.333 122 70c0 23.333 -10.333 55.333 -31 96l-79 155l130 85l91 -187c28.667 -66 43 -118 43 -156z" />
    <glyph glyph-name="afii57420.isol" unicode="&#x62c;" horiz-adv-x="1247" arabic-form="isolated" 
d="M1277 -614c-176 -81.333 -348.333 -122.001 -517 -122.001c-94 0 -178.333 11.667 -253 35s-138 57.333 -190 102s-91.667 99.667 -119 165s-41 140.333 -41 225c0 162.667 91.667 316 275 460c96 74.667 236 156.667 420 246
c-115.333 7.33301 -206.333 12.833 -273 16.5s-109.667 5.5 -129 5.5c-66 0 -127.667 -20.667 -185 -62l-55 122c72 56 152 84 240 84h22l760 -37v-152c-118.667 0 -281 -57 -487 -171c-297.333 -165.333 -446 -345.333 -446 -540c0 -48.667 11.5 -93.667 34.5 -135
s55.167 -77.166 96.5 -107.499s90.5 -54 147.5 -71s119.167 -25.5 186.5 -25.5c152.667 0 301.667 31.333 447 94zM857 -217.001h-159v158h159v-158z" />
    <glyph glyph-name="afii57421.isol" unicode="&#x62d;" horiz-adv-x="1247" arabic-form="isolated" 
d="M1277 -614c-176 -81.333 -348.333 -122.001 -517 -122.001c-94 0 -178.333 11.667 -253 35s-138 57.333 -190 102s-91.667 99.667 -119 165s-41 140.333 -41 225c0 162.667 91.667 316 275 460c96 74.667 236 156.667 420 246
c-115.333 7.33301 -206.333 12.833 -273 16.5s-109.667 5.5 -129 5.5c-66 0 -127.667 -20.667 -185 -62l-55 122c72 56 152 84 240 84h22l760 -37v-152c-118.667 0 -281 -57 -487 -171c-297.333 -165.333 -446 -345.333 -446 -540c0 -48.667 11.5 -93.667 34.5 -135
s55.167 -77.166 96.5 -107.499s90.5 -54 147.5 -71s119.167 -25.5 186.5 -25.5c152.667 0 301.667 31.333 447 94z" />
    <glyph glyph-name="afii57422.isol" unicode="&#x62e;" horiz-adv-x="1247" arabic-form="isolated" 
d="M798 858h-159v158h159v-158zM1277 -614c-176 -81.333 -348.333 -122.001 -517 -122.001c-94 0 -178.333 11.667 -253 35s-138 57.333 -190 102s-91.667 99.667 -119 165s-41 140.333 -41 225c0 162.667 91.667 316 275 460c96 74.667 236 156.667 420 246
c-115.333 7.33301 -206.333 12.833 -273 16.5s-109.667 5.5 -129 5.5c-66 0 -127.667 -20.667 -185 -62l-55 122c72 56 152 84 240 84h22l760 -37v-152c-118.667 0 -281 -57 -487 -171c-297.333 -165.333 -446 -345.333 -446 -540c0 -48.667 11.5 -93.667 34.5 -135
s55.167 -77.166 96.5 -107.499s90.5 -54 147.5 -71s119.167 -25.5 186.5 -25.5c152.667 0 301.667 31.333 447 94z" />
    <glyph glyph-name="afii57423.isol" unicode="&#x62f;" horiz-adv-x="1000" arabic-form="isolated" 
d="M998 245c0 -82.667 -29.333 -145.332 -88 -187.999c-52 -37.333 -121 -56 -207 -56h-260c-127.333 0 -225 53.333 -293 160l107 107c32.667 -40.667 60 -66.334 82 -77.001c18 -8.66699 47.333 -13 88 -13h286c83.333 0 125 22.333 125 67
c0 19.333 -19.333 51.333 -58 96l-338 392l117 112l335 -397c69.333 -82 104 -149.667 104 -203z" />
    <glyph glyph-name="afii57424.isol" unicode="&#x630;" horiz-adv-x="1001" arabic-form="isolated" 
d="M558 980h-159v158h159v-158zM998 245c0 -82.667 -29.333 -145.332 -88 -187.999c-52 -37.333 -121 -56 -207 -56h-260c-127.333 0 -225 53.333 -293 160l107 107c32.667 -40.667 60 -66.334 82 -77.001c18 -8.66699 47.333 -13 88 -13h286c83.333 0 125 22.333 125 67
c0 19.333 -19.333 51.333 -58 96l-338 392l117 112l335 -397c69.333 -82 104 -149.667 104 -203z" />
    <glyph glyph-name="afii57425.isol" unicode="&#x631;" horiz-adv-x="924" arabic-form="isolated" 
d="M885 546c26 -49.333 39 -101.001 39 -155.001c0 -75.333 -25.667 -151.333 -77 -228c-106 -158.667 -335.333 -329.334 -688 -512.001l-75 140c326 172.667 539 331.334 639 476.001c29.333 42.667 44 82.334 44 119.001c0 36 -11.333 74.333 -34 115l-102 183l137 84z
" />
    <glyph glyph-name="afii57426.isol" unicode="&#x632;" horiz-adv-x="924" arabic-form="isolated" 
d="M780 903h-159v158h159v-158zM885 546c26 -49.333 39 -101.001 39 -155.001c0 -75.333 -25.667 -151.333 -77 -228c-106 -158.667 -335.333 -329.334 -688 -512.001l-75 140c326 172.667 539 331.334 639 476.001c29.333 42.667 44 82.334 44 119.001
c0 36 -11.333 74.333 -34 115l-102 183l137 84z" />
    <glyph glyph-name="afii57427.isol" unicode="&#x633;" horiz-adv-x="2152" arabic-form="isolated" 
d="M2150 252c0 -172.667 -102.001 -259.001 -306.001 -259.001c-98.667 0 -169 41.333 -211 124c-43.333 -77.333 -100.666 -116 -171.999 -116c-52.667 0 -101 14 -145 42c0 -135.333 -19.333 -238.333 -58 -309c-50.667 -92.667 -129.334 -165.667 -236.001 -219
c-98.667 -49.333 -204 -74 -316 -74c-180 0 -319.333 49 -418 147c-86.667 86 -130 195 -130 327c0 119.333 26 234 78 344l129 -39c-38 -104 -57 -196.667 -57 -278c0 -121.333 47.333 -210.666 142 -267.999c68.667 -41.333 150.334 -62 245.001 -62
c119.333 0 223 27 311 81c104 63.333 156 151 156 263c0 16.667 -2 36.334 -6 59.001c-22 124 -74.333 256.667 -157 398l133 84c60.667 -108.667 100.334 -175.667 119.001 -201c60 -81.333 119 -122 177 -122c39.333 0 66.666 6.66699 81.999 20s23 39.666 23 78.999v270
h144v-77c0 -198 68.667 -297 206 -297c72 0 108 30.667 108 92c0 24.667 -14.333 63 -43 115l-69 121l129 87c38 -64.667 66.667 -116 86 -154c37.333 -74 56 -133.333 56 -178z" />
    <glyph glyph-name="afii57428.isol" unicode="&#x634;" horiz-adv-x="2154" arabic-form="isolated" 
d="M1680 928h-159v158h159v-158zM1787 725h-159v158h159v-158zM1572 725h-159v158h159v-158zM2150 252c0 -172.667 -102.001 -259.001 -306.001 -259.001c-98.667 0 -169 41.333 -211 124c-43.333 -77.333 -100.666 -116 -171.999 -116c-52.667 0 -101 14 -145 42
c0 -135.333 -19.333 -238.333 -58 -309c-50.667 -92.667 -129.334 -165.667 -236.001 -219c-98.667 -49.333 -204 -74 -316 -74c-180 0 -319.333 49 -418 147c-86.667 86 -130 195 -130 327c0 119.333 26 234 78 344l129 -39c-38 -104 -57 -196.667 -57 -278
c0 -121.333 47.333 -210.666 142 -267.999c68.667 -41.333 150.334 -62 245.001 -62c119.333 0 223 27 311 81c104 63.333 156 151 156 263c0 16.667 -2 36.334 -6 59.001c-22 124 -74.333 256.667 -157 398l133 84c60.667 -108.667 100.334 -175.667 119.001 -201
c60 -81.333 119 -122 177 -122c39.333 0 66.666 6.66699 81.999 20s23 39.666 23 78.999v270h144v-77c0 -198 68.667 -297 206 -297c72 0 108 30.667 108 92c0 24.667 -14.333 63 -43 115l-69 121l129 87c38 -64.667 66.667 -116 86 -154c37.333 -74 56 -133.333 56 -178z
" />
    <glyph glyph-name="afii57429.isol" unicode="&#x635;" horiz-adv-x="2203" arabic-form="isolated" 
d="M2200 370c0 -127.333 -43.668 -224.002 -131.001 -290.002c-69.333 -52.667 -153.666 -79 -252.999 -79h-335c-71.333 0 -126.333 14 -165 42c0 -135.333 -19.333 -238.333 -58 -309c-50.667 -92.667 -129.334 -165.667 -236.001 -219c-98.667 -49.333 -204 -74 -316 -74
c-180 0 -319.333 49 -418 147c-86.667 86 -130 195 -130 327c0 119.333 26 234 78 344l129 -39c-38 -112 -57 -204.667 -57 -278c0 -121.333 47.333 -210.666 142 -267.999c68.667 -41.333 150.334 -62 245.001 -62c119.333 0 223 27 311 81c104 63.333 156 151 156 263
c0 16.667 -2 36.334 -6 59.001c-22 124 -74.333 256.667 -157 398l133 84l78 -155c26.667 -46.667 56.334 -85 89.001 -115c202.667 286.667 401.667 430 597 430c81.333 0 152.333 -27.667 212.999 -83c60.667 -55.333 91 -123.333 91 -204zM2048 358.998
c0 42.667 -16 77 -48 103c-29.333 24.667 -66 37 -110 37c-146 0 -307 -95.667 -483 -287c-8 -8.66699 -12 -15.667 -12 -21c0 -8.66699 12.667 -13 38 -13h397c73.333 0 130 21 170 63c32 34 48 73.333 48 118z" />
    <glyph glyph-name="afii57430.isol" unicode="&#x636;" horiz-adv-x="2205" arabic-form="isolated" 
d="M1918 867h-158v158h158v-158zM2200 370c0 -127.333 -43.668 -224.002 -131.001 -290.002c-69.333 -52.667 -153.666 -79 -252.999 -79h-335c-71.333 0 -126.333 14 -165 42c0 -135.333 -19.333 -238.333 -58 -309c-50.667 -92.667 -129.334 -165.667 -236.001 -219
c-98.667 -49.333 -204 -74 -316 -74c-180 0 -319.333 49 -418 147c-86.667 86 -130 195 -130 327c0 119.333 26 234 78 344l129 -39c-38 -112 -57 -204.667 -57 -278c0 -121.333 47.333 -210.666 142 -267.999c68.667 -41.333 150.334 -62 245.001 -62
c119.333 0 223 27 311 81c104 63.333 156 151 156 263c0 16.667 -2 36.334 -6 59.001c-22 124 -74.333 256.667 -157 398l133 84l78 -155c26.667 -46.667 56.334 -85 89.001 -115c202.667 286.667 401.667 430 597 430c81.333 0 152.333 -27.667 212.999 -83
c60.667 -55.333 91 -123.333 91 -204zM2048 358.998c0 42.667 -16 77 -48 103c-29.333 24.667 -66 37 -110 37c-146 0 -307 -95.667 -483 -287c-8 -8.66699 -12 -15.667 -12 -21c0 -8.66699 12.667 -13 38 -13h397c73.333 0 130 21 170 63c32 34 48 73.333 48 118z" />
    <glyph glyph-name="afii57431.isol" unicode="&#x637;" horiz-adv-x="1450" arabic-form="isolated" 
d="M1448 370c0 -123.333 -42.334 -218.333 -127.001 -285c-70.667 -56 -156.667 -84 -258 -84h-698c-83.333 0 -152.666 19.333 -207.999 58v119h233c44.667 0 75 15.333 91 46c12 22.667 18 59 18 109v824h138v-801c59.333 73.333 128 137 206 191
c106 73.333 206 110 300 110c82.667 0 153.667 -27 213 -81c61.333 -56 92 -124.667 92 -206zM1296 359c0 42 -16 76.333 -48 103c-30 24.667 -66.667 37 -110 37c-158.667 0 -332 -107 -520 -321h460c58.667 0 108.667 15.333 150 46c45.333 33.333 68 78.333 68 135z" />
    <glyph glyph-name="afii57432.isol" unicode="&#x638;" horiz-adv-x="1451" arabic-form="isolated" 
d="M1166 867h-159v158h159v-158zM1448 370c0 -123.333 -42.334 -218.333 -127.001 -285c-70.667 -56 -156.667 -84 -258 -84h-698c-83.333 0 -152.666 19.333 -207.999 58v119h233c44.667 0 75 15.333 91 46c12 22.667 18 59 18 109v824h138v-801
c59.333 73.333 128 137 206 191c106 73.333 206 110 300 110c82.667 0 153.667 -27 213 -81c61.333 -56 92 -124.667 92 -206zM1296 359c0 42 -16 76.333 -48 103c-30 24.667 -66.667 37 -110 37c-158.667 0 -332 -107 -520 -321h460c58.667 0 108.667 15.333 150 46
c45.333 33.333 68 78.333 68 135z" />
    <glyph glyph-name="afii57433.isol" unicode="&#x639;" horiz-adv-x="1066" arabic-form="isolated" 
d="M1246 -540c-115.333 -46 -191.332 -74 -227.999 -84c-99.333 -28 -208.666 -42 -327.999 -42c-135.333 0 -254.333 35.333 -357 106c-116.667 80 -175 184.333 -175 313c0 109.333 24.667 203.333 74 282c42.667 68 112.667 136 210 204c-106 78.667 -159 173 -159 283
c0 38 7.16699 73.667 21.5 107s34.666 62.833 60.999 88.5s57.833 47.167 94.5 64.5s77.667 29.666 123 36.999c40 6 83.333 9 130 9c15.333 0 31 -0.333008 47 -1s32.667 -1.66699 50 -3v-134c-12.667 0.666992 -24.667 1.16699 -36 1.5s-22.333 0.5 -33 0.5
c-36 0 -67.167 -1.66699 -93.5 -5s-48.166 -8 -65.499 -14c-94 -35.333 -141 -86.333 -141 -153c0 -46.667 16.167 -83.834 48.5 -111.501s74.833 -41.5 127.5 -41.5c38 0 163.667 42 377 126l51 -120c-490.667 -178 -736 -369.333 -736 -574c0 -46 10.5 -87.667 31.5 -125
s50.167 -69.166 87.5 -95.499s81.666 -46.666 132.999 -60.999s107.333 -21.5 168 -21.5c143.333 0 295.666 31 456.999 93z" />
    <glyph glyph-name="afii57434.isol" unicode="&#x63a;" horiz-adv-x="1066" arabic-form="isolated" 
d="M803 988h-159v158h159v-158zM1246 -540c-115.333 -46 -191.332 -74 -227.999 -84c-99.333 -28 -208.666 -42 -327.999 -42c-135.333 0 -254.333 35.333 -357 106c-116.667 80 -175 184.333 -175 313c0 109.333 24.667 203.333 74 282c42.667 68 112.667 136 210 204
c-106 78.667 -159 173 -159 283c0 38 7.16699 73.667 21.5 107s34.666 62.833 60.999 88.5s57.833 47.167 94.5 64.5s77.667 29.666 123 36.999c40 6 83.333 9 130 9c15.333 0 31 -0.333008 47 -1s32.667 -1.66699 50 -3v-134c-12.667 0.666992 -24.667 1.16699 -36 1.5
s-22.333 0.5 -33 0.5c-36 0 -67.167 -1.66699 -93.5 -5s-48.166 -8 -65.499 -14c-94 -35.333 -141 -86.333 -141 -153c0 -46.667 16.167 -83.834 48.5 -111.501s74.833 -41.5 127.5 -41.5c38 0 163.667 42 377 126l51 -120c-490.667 -178 -736 -369.333 -736 -574
c0 -46 10.5 -87.667 31.5 -125s50.167 -69.166 87.5 -95.499s81.666 -46.666 132.999 -60.999s107.333 -21.5 168 -21.5c143.333 0 295.666 31 456.999 93z" />
    <glyph glyph-name="afii57441.isol" unicode="&#x641;" horiz-adv-x="1632" arabic-form="isolated" 
d="M1380 949h-159v157h159v-157zM1628 349c0 -106 -26.334 -189.667 -79.001 -251c-55.333 -64.667 -135.333 -97 -240 -97h-846c-98 0 -173.5 29 -226.5 87s-79.5 136.333 -79.5 235v62h147v-48c0 -106 49.667 -159 149 -159h867c94 0 147 40 159 120h-143
c-77.333 0 -139.333 21 -186 63c-48.667 42.667 -73.667 102 -75 178c-1.33301 60.667 17.334 116.667 56.001 168c42 55.333 92.667 83 152 83c108 0 194.667 -48 260 -144c56.667 -84.667 85 -183.667 85 -297zM1474 460c-49.333 118.667 -110.334 178 -183.001 178
c-27.333 0 -50.166 -9.66699 -68.499 -29s-27.5 -43 -27.5 -71c0 -52 40.333 -78 121 -78h158z" />
    <glyph glyph-name="afii57442.isol" unicode="&#x642;" horiz-adv-x="1295" arabic-form="isolated" 
d="M1173 827h-158v158h158v-158zM957 827h-158v158h158v-158zM1293 201c0 -164.667 -64.999 -298.333 -194.999 -401c-120.667 -95.333 -265.334 -143 -434.001 -143c-159.333 0 -283 39.667 -371 119c-90.667 82 -136 201.667 -136 359c0 82.667 12.667 165 38 247l139 -29
c-18.667 -82.667 -28 -148 -28 -196c0 -102 28.667 -181.833 86 -239.5s137 -86.5 239 -86.5c123.333 0 231.666 23 324.999 69c119.333 58.667 179 143.334 179 254.001h-145c-182.667 0 -274 90.333 -274 271c0 62 20.333 117.333 61 166c42.667 52 94.334 78 155.001 78
c109.333 0 199 -52.333 269 -157c61.333 -92.667 92 -196.334 92 -311.001zM1137 326.001c-43.333 118.667 -105.001 177.999 -185.001 177.999c-27.333 0 -50.166 -9.66699 -68.499 -29s-27.5 -43 -27.5 -71c0 -53.333 40.333 -79.666 121 -78.999z" />
    <glyph glyph-name="afii57443.isol" unicode="&#x643;" horiz-adv-x="1422" arabic-form="isolated" 
d="M1422 250c0 -166 -101.666 -248.999 -304.999 -248.999h-639c-94.667 0 -171.334 26.667 -230.001 80c-60.667 55.333 -91 129.666 -91 222.999v75h145v-40c0 -107.333 55 -161 165 -161h660c92.667 0 139 26.667 139 80l-40 900h169zM1014 669.001l-463.999 -153l-28 74
l165 55c-32.667 30.667 -49 73 -49 127c0 44.667 22.667 80 68 106c37.333 21.333 80 32 128 32c19.333 0 39.666 -1.33301 60.999 -4v-69c-14.667 2 -29 3 -43 3c-86 0 -129 -26.667 -129 -80c0 -20 8.66699 -36.667 26 -50c15.333 -12.667 33.333 -19 54 -19
c24 0 86 17.667 186 53z" />
    <glyph glyph-name="afii57444.isol" unicode="&#x644;" horiz-adv-x="1140" arabic-form="isolated" 
d="M1109 1158l27.002 -1014c0 -128 -39 -237.333 -117 -328c-95.333 -112 -231 -168 -407 -168c-71.333 0 -135.166 10.5 -191.499 31.5s-104 51.167 -143 90.5s-68.833 87.333 -89.5 144s-31 120.667 -31 192c0 90 19 184 57 282l129 -37
c-31.333 -84.667 -47 -164 -47 -238c0 -46 7.5 -87.167 22.5 -123.5s36.667 -67.333 65 -93s62.666 -45.334 102.999 -59.001s85.5 -20.5 135.5 -20.5c51.333 0 99.166 7.16699 143.499 21.5s82.666 34.666 114.999 60.999s57.833 58.166 76.5 95.499s28 78.666 28 123.999
l-40 1039h164z" />
    <glyph glyph-name="afii57445.isol" unicode="&#x645;" horiz-adv-x="1041" arabic-form="isolated" 
d="M1039 355c0 -84 -29.334 -147.667 -88.001 -191c-52 -38.667 -121.667 -58 -209 -58c-32.667 0 -81.667 5 -147 15s-114.333 15 -147 15c-90.667 0 -136 -55 -136 -165v-740h-155v771c0 88 24 159.667 72 215c50.667 58.667 119.334 88 206.001 88
c27.333 220.667 128 331 302 331c81.333 0 151.333 -26.333 210 -79c61.333 -54.667 92 -122 92 -202zM904.999 365c0 38 -19.667 70.333 -59 97c-35.333 23.333 -73 35 -113 35c-94 0 -152 -64.333 -174 -193c76 -15.333 145 -23 207 -23c92.667 0 139 28 139 84z" />
    <glyph glyph-name="afii57446.isol" unicode="&#x646;" horiz-adv-x="1275" arabic-form="isolated" 
d="M735 404h-159v158h159v-158zM1273 215c0 -134.667 -40.334 -254.334 -121.001 -359.001c-107.333 -140 -267 -210 -479 -210c-149.333 0 -272.666 46.667 -369.999 140s-146 214.333 -146 363c0 74.667 16.667 163 50 265l138 -36c-24.667 -74.667 -37 -145.667 -37 -213
c0 -101.333 38.333 -185 115 -251c72.667 -62 160.667 -93 264 -93c129.333 0 234 34.667 314 104c84.667 72.667 127 172.667 127 300c0 82.667 -36.333 186.334 -109 311.001l131 90c82 -134 123 -271 123 -411z" />
    <glyph glyph-name="afii57470.init" unicode="&#x647;" horiz-adv-x="966" arabic-form="initial" 
d="M963 117c0 -64 -24.668 -116.666 -74.001 -157.999c-43.333 -36.667 -92.333 -55 -147 -55c-55.333 0 -130 21 -224 63c-70 31.333 -125.667 61.333 -167 90c-79.333 -37.333 -169.666 -56 -270.999 -56h-150v177h109c105.333 0 165 1.33301 179 4
c-71.333 74 -107 167.333 -107 280c0 56 20 110 60 162c46.667 60.667 107 97 181 109l-94 91l120 100c97.333 -84 197 -183.333 299 -298c190.667 -214.667 286 -384.334 286 -509.001zM823.999 139.001c0 28.667 -21.333 73.999 -64 135.999
c-36.667 53.333 -71.334 96 -104.001 128c2.66699 -53.333 -15.666 -106.666 -54.999 -159.999c-32.667 -44 -66 -74.333 -100 -91c100 -65.333 181 -98 243 -98c53.333 0 80 28.333 80 85zM549.999 457c0 38.667 -17 70.999 -51 96.999c-30.667 24 -66 36 -106 36
c-37.333 0 -71.333 -13 -102 -39s-46 -57.333 -46 -94c0 -45.333 12.333 -88.666 37 -129.999s57 -72.333 97 -93c114 46.667 171 121 171 223z" />
    <glyph glyph-name="afii57448.isol" unicode="&#x648;" horiz-adv-x="923" arabic-form="isolated" 
d="M919 240c0 -239.333 -246.999 -478 -740.999 -716l-78 134c113.333 52 223.666 113 330.999 183c162.667 106 270 207 322 303h-120c-88 0 -156 24.167 -204 72.5s-72 116.5 -72 204.5c0 63.333 23.833 117.833 71.5 163.5s103.167 68.5 166.5 68.5
c74 0 142 -29.667 204 -89c80 -76 120 -184 120 -324zM763.001 318c-2 50.667 -24 94.667 -66 132c-36 32 -69.667 48 -101 48c-26 0 -49.667 -8 -71 -24c-24 -17.333 -36 -38.333 -36 -63c0 -62 38.333 -93 115 -93h159z" />
    <glyph glyph-name="afii57449.isol" unicode="&#x649;" horiz-adv-x="1423" arabic-form="isolated" 
d="M1417 666l-65 -127.998c-54 28 -105.667 42 -155 42c-92.667 0 -184 -53 -274 -159c-15.333 -18 -23 -35.333 -23 -52c0 -29.333 18 -45.333 54 -48l275 -19c106.667 -8 160 -65 160 -171c0 -89.333 -66 -185.333 -198 -288c-150.667 -116.667 -322 -175 -514 -175
c-153.333 0 -276.333 37.667 -369 113c-100.667 82 -151 197.333 -151 346c0 101.333 16 192.666 48 273.999l123 -41c-22 -75.333 -33 -136.333 -33 -183c0 -226.667 131.333 -340 394 -340c93.333 0 186.333 16.667 279 50c118 42 204.333 103 259 183
c12 17.333 18 32.333 18 45c0 19.333 -15.667 29 -47 29c-147.333 1.33301 -241.333 6.33301 -282 15c-114 25.333 -171 84.666 -171 177.999c0 84 52.667 172 158 264c102 89.333 194.667 134 278 134c86 0 164.667 -23 236 -69z" />
    <glyph glyph-name="afii57450.isol" unicode="&#x64a;" horiz-adv-x="1423" arabic-form="isolated" 
d="M1417 666l-65 -127.998c-54 28 -105.667 42 -155 42c-92.667 0 -184 -53 -274 -159c-15.333 -18 -23 -35.333 -23 -52c0 -29.333 18 -45.333 54 -48l275 -19c106.667 -8 160 -65 160 -171c0 -89.333 -66 -185.333 -198 -288c-150.667 -116.667 -322 -175 -514 -175
c-153.333 0 -276.333 37.667 -369 113c-100.667 82 -151 197.333 -151 346c0 101.333 16 192.666 48 273.999l123 -41c-22 -75.333 -33 -136.333 -33 -183c0 -226.667 131.333 -340 394 -340c93.333 0 186.333 16.667 279 50c118 42 204.333 103 259 183
c12 17.333 18 32.333 18 45c0 19.333 -15.667 29 -47 29c-147.333 1.33301 -241.333 6.33301 -282 15c-114 25.333 -171 84.666 -171 177.999c0 84 52.667 172 158 264c102 89.333 194.667 134 278 134c86 0 164.667 -23 236 -69zM877 -635.998h-159v158h159v-158z
M661 -635.998h-158v158h158v-158z" />
    <glyph glyph-name="uni0671.isol" unicode="&#x671;" horiz-adv-x="640" arabic-form="isolated" 
d="M638 1435c0 -69.333 -28.333 -113.332 -85 -131.999c-26 -8.66699 -84.667 -13 -176 -13c-107.333 0 -184.333 8.33301 -231 25v64h115c66.667 130 143.667 195 231 195c54 0 93.667 -17.667 119 -53c18 -24.667 27 -53.334 27 -86.001zM500 1.00098h-179v1233h179v-1233
zM577 1428c0 40 -32 60 -96 60c-32 0 -60.333 -10.667 -85 -32c-13.333 -11.333 -36 -38 -68 -80h162c58 0 87 17.333 87 52z" />
    <glyph glyph-name="afii57506.isol" unicode="&#x67e;" horiz-adv-x="1624" arabic-form="isolated" 
d="M1621 241c0 -72 -25.667 -130.667 -77 -176c-48.667 -42.667 -109.667 -64 -183 -64h-914c-86.667 0 -156.667 28.5 -210 85.5s-80 129.167 -80 216.5v71h149v-34c0 -108 52 -162 156 -162h883c81.333 0 122 23.333 122 70c0 23.333 -10.333 55.333 -31 96l-79 155
l130 85l91 -187c28.667 -66 43 -118 43 -156zM1063 -332h-159v158h159v-158zM846 -332h-157v158h157v-158zM954 -535h-159v158h159v-158z" />
    <glyph glyph-name="afii57507.isol" unicode="&#x686;" horiz-adv-x="1247" arabic-form="isolated" 
d="M968 -169h-159v158h159v-158zM1277 -614c-176 -81.333 -348.333 -122.001 -517 -122.001c-94 0 -178.333 11.667 -253 35s-138 57.333 -190 102s-91.667 99.667 -119 165s-41 140.333 -41 225c0 162.667 91.667 316 275 460c96 74.667 236 156.667 420 246
c-115.333 7.33301 -206.333 12.833 -273 16.5s-109.667 5.5 -129 5.5c-66 0 -127.667 -20.667 -185 -62l-55 122c72 56 152 84 240 84h22l760 -37v-152c-118.667 0 -281 -57 -487 -171c-297.333 -165.333 -446 -345.333 -446 -540c0 -48.667 11.5 -93.667 34.5 -135
s55.167 -77.166 96.5 -107.499s90.5 -54 147.5 -71s119.167 -25.5 186.5 -25.5c152.667 0 301.667 31.333 447 94zM752 -169.001h-159v158h159v-158zM859 -372.001h-159v158h159v-158z" />
    <glyph glyph-name="afii57508.isol" unicode="&#x698;" horiz-adv-x="924" arabic-form="isolated" 
d="M741 1064h-158v158h158v-158zM848 861h-158v158h158v-158zM633 861h-159v158h159v-158zM885 546c26 -49.333 39 -101.001 39 -155.001c0 -75.333 -25.667 -151.333 -77 -228c-106 -158.667 -335.333 -329.334 -688 -512.001l-75 140c326 172.667 539 331.334 639 476.001
c29.333 42.667 44 82.334 44 119.001c0 36 -11.333 74.333 -34 115l-102 183l137 84z" />
    <glyph glyph-name="uni06A9.isol" unicode="&#x6a9;" horiz-adv-x="1883" arabic-form="isolated" 
d="M1899 1035l-540.999 -156.001c-43.333 -12.667 -65 -30 -65 -52c0 -16 9.33301 -42.333 28 -79l167 -329c36 -70.667 54 -127 54 -169c0 -166 -101.667 -249 -305 -249h-759c-94.667 0 -171.334 26.667 -230.001 80c-60.667 55.333 -91 129.666 -91 222.999v75h145v-40
c0 -107.333 55 -161 165 -161h780c92.667 0 139 26.667 139 80c0 29.333 -13 69 -39 119l-176 339c-20 38.667 -30 76.334 -30 113.001c0 88.667 52.333 148.334 157 179.001l544 161z" />
    <glyph glyph-name="afii57509.isol" unicode="&#x6af;" horiz-adv-x="1915" arabic-form="isolated" 
d="M1859 1184l-684 -163l-40 71l689 165zM1935 1027l-585.999 -138c-43.333 -10 -65 -27 -65 -51c0 -18 9.33301 -45 28 -81l176 -338c36 -69.333 54 -125.666 54 -168.999c0 -166 -101.667 -249 -305 -249h-759c-94.667 0 -171.334 26.667 -230.001 80
c-60.667 55.333 -91 129.666 -91 222.999v75h145v-40c0 -107.333 55 -161 165 -161h780c92.667 0 139 26.667 139 80c0 29.333 -13 69 -39 119l-176 339c-16.667 32 -25 65.667 -25 101c0 97.333 50.667 158.333 152 183l581 141z" />
    <glyph glyph-name="uni06470654.isol" unicode="&#x6c0;" horiz-adv-x="876" arabic-form="isolated" 
d="M616 919l-463.999 -153l-28 74l165 55c-32.667 30.667 -49 73 -49 127c0 44.667 22.667 80 68 106c37.333 21.333 80 32 128 32c19.333 0 39.666 -1.33301 60.999 -4v-69c-14.667 2 -29 3 -43 3c-86 0 -129 -26.667 -129 -80c0 -20 8.66699 -36.667 26 -50
c15.333 -12.667 33.333 -19 54 -19c24 0 86 17.667 186 53zM869.001 275c0 -94.667 -39 -166.333 -117 -215c-63.333 -39.333 -141 -59 -233 -59c-117.333 0 -207 31.167 -269 93.5s-93 151.5 -93 267.5c0 78.667 19 147.667 57 207c44 68 103.333 102 178 102
c92 0 192.333 -40.333 301 -121c117.333 -87.333 176 -179 176 -275zM725.001 281.001c0 47.333 -44.333 100.333 -133 159c-82 54.667 -144.667 82 -188 82c-34 0 -60.667 -20.333 -80 -61c-15.333 -32.667 -23 -68 -23 -106c0 -58.667 21 -103.667 63 -135
c37.333 -28 86.333 -42 147 -42c142.667 0 214 34.333 214 103z" />
    <glyph glyph-name="uni06CC.isol" unicode="&#x6cc;" horiz-adv-x="1423" arabic-form="isolated" 
d="M1417 666l-65 -127.998c-54 28 -105.667 42 -155 42c-92.667 0 -184 -53 -274 -159c-15.333 -18 -23 -35.333 -23 -52c0 -29.333 18 -45.333 54 -48l275 -19c106.667 -8 160 -65 160 -171c0 -89.333 -66 -185.333 -198 -288c-150.667 -116.667 -322 -175 -514 -175
c-153.333 0 -276.333 37.667 -369 113c-100.667 82 -151 197.333 -151 346c0 101.333 16 192.666 48 273.999l123 -41c-22 -75.333 -33 -136.333 -33 -183c0 -226.667 131.333 -340 394 -340c93.333 0 186.333 16.667 279 50c118 42 204.333 103 259 183
c12 17.333 18 32.333 18 45c0 19.333 -15.667 29 -47 29c-147.333 1.33301 -241.333 6.33301 -282 15c-114 25.333 -171 84.666 -171 177.999c0 84 52.667 172 158 264c102 89.333 194.667 134 278 134c86 0 164.667 -23 236 -69z" />
    <glyph glyph-name="uni0671.fina" unicode="&#x671;" horiz-adv-x="571" arabic-form="final" 
d="M571 1l-113 -0.000976562c-200.667 0 -301 120.667 -301 362v797h168v-783c0 -67.333 9.66699 -115.666 29 -144.999c24 -36 67.333 -54 130 -54h87v-177zM516 1435c0 -69.333 -28.332 -113.332 -84.999 -131.999c-26 -8.66699 -84.667 -13 -176 -13
c-107.333 0 -184.333 8.33301 -231 25v64h114c67.333 130 144.666 195 231.999 195c54 0 93.667 -17.667 119 -53c18 -24.667 27 -53.334 27 -86.001zM455.001 1428c0 40 -32.332 60.001 -96.999 60.001c-30.667 0 -58.667 -10.667 -84 -32
c-14.667 -12.667 -37.334 -39.334 -68.001 -80.001h162c58 0 87 17.333 87 52z" />
    <glyph glyph-name="afii57506.fina" unicode="&#x67e;" horiz-adv-x="1923" arabic-form="final" 
d="M1923 1h-62.999c-114 0 -202.333 43.667 -265 131c-45.333 -87.333 -123.333 -131 -234 -131h-914c-86.667 0 -156.667 28.5 -210 85.5s-80 129.167 -80 216.5v71h149v-34c0 -108 52 -162 156 -162h883c82.667 0 124 23.667 124 71c0 24 -11 55.667 -33 95l-83 149
l130 86l90 -169c40 -75.333 75.667 -128 107 -158c51.333 -49.333 112.666 -74 183.999 -74h59v-177zM1063 -332h-159v158h159v-158zM846.001 -332h-157v158h157v-158zM954.001 -535h-159v158h159v-158z" />
    <glyph glyph-name="afii57506.init" unicode="&#x67e;" horiz-adv-x="400" arabic-form="initial" 
d="M399 252c0 -63.333 -19.333 -118.334 -58 -165.001c-48 -57.333 -116.667 -86 -206 -86h-205v177h202c74.667 0 112 27.333 112 82c0 22.667 -8 48.334 -24 77.001l-92 163l129 91c52.667 -95.333 84.667 -155.333 96 -180c30.667 -66 46 -119 46 -159zM387 -332.001
h-159v158h159v-158zM171 -332.001h-158v158h158v-158zM278 -535.001h-159v158h159v-158z" />
    <glyph glyph-name="afii57506.medi" unicode="&#x67e;" horiz-adv-x="538" arabic-form="medial" 
d="M538 1l-25 -0.000976562c-104 0 -178.333 38 -223 114c-46 -76 -115 -114 -207 -114h-153v177h113c62 0 101.333 13 118 39c11.333 18 17 58.667 17 122v212h154v-164c0 -85.333 15.667 -142.666 47 -171.999c26 -24 73.667 -36 143 -36h16v-178zM451 -332.001h-159v158
h159v-158zM235 -332.001h-159v158h159v-158zM342 -535.001h-159v158h159v-158z" />
    <glyph glyph-name="afii57507.fina" unicode="&#x686;" horiz-adv-x="1328" arabic-form="final" 
d="M1328 1l-144.001 -0.00390625c-116 0 -203.667 25.333 -263 76c-44.667 36.667 -97.667 114.334 -159 233.001c-111.333 -52.667 -208.666 -119.667 -291.999 -201c-114 -112 -171 -227.333 -171 -346c0 -48.667 11.5 -93.667 34.5 -135s55.167 -77.166 96.5 -107.499
s90.5 -54 147.5 -71s119.167 -25.5 186.5 -25.5c152.667 0 301.667 31.333 447 94l66 -132c-176 -81.333 -348.333 -122 -517 -122c-94 0 -178.333 11.667 -253 35s-138 57.333 -190 102s-91.667 99.667 -119 165s-41 140.333 -41 225c0 162.667 91.667 316 275 460
c96 74.667 236 156.667 420 246c-115.333 7.33301 -206.333 12.833 -273 16.5s-109.667 5.5 -129 5.5c-66 0 -127.667 -20.667 -185 -62l-55 122c72 56 152 84 240 84h22l760 -37v-152c-48.667 0 -112 -12 -190 -36c-80.667 -25.333 -139.667 -51.666 -177 -78.999
c20 -30.667 39.333 -56.667 58 -78s36.667 -37.666 54 -48.999c52.667 -36 126 -54 220 -54h131v-177zM894.999 -205.004h-158v158h158v-158zM678.999 -205.004h-159v158h159v-158zM785.999 -408.004h-158v158h158v-158z" />
    <glyph glyph-name="afii57507.init" unicode="&#x686;" horiz-adv-x="907" arabic-form="initial" 
d="M907 117l-83 -116h-894v177h710l-289 255c-43.333 46.667 -93 70 -149 70h-114v152h148c64 0 123.667 -26 179 -78zM451 -332h-159v158h159v-158zM235 -332h-159v158h159v-158zM342 -535h-159v158h159v-158z" />
    <glyph glyph-name="afii57507.medi" unicode="&#x686;" horiz-adv-x="1229" arabic-form="medial" 
d="M1229 1h-112.999c-152 0 -279 99.333 -381 298c-144.667 -123.333 -256 -204.666 -334 -243.999c-73.333 -36 -157 -54 -251 -54h-220v177h131c103.333 0 190 12 260 36c28 9.33301 60.167 24.166 96.5 44.499s76.833 45.833 121.5 76.5l103 73.5l103 75.5
c-120 5.33301 -217.5 9.33301 -292.5 12s-127.833 4 -158.5 4c-60.667 0 -116.334 -19.333 -167.001 -58l-58 117c72.667 60 150.667 90 234 90h16l790 -36v-145c-105.333 0 -201.333 -34.333 -288 -103c48.667 -61.333 89.667 -103.333 123 -126
c57.333 -40.667 126.333 -61 207 -61h78v-177zM814.001 -332h-159v158h159v-158zM597.001 -332h-158v158h158v-158zM705.001 -535h-159v158h159v-158z" />
    <glyph glyph-name="afii57508.fina" unicode="&#x698;" horiz-adv-x="1192" arabic-form="final" 
d="M741 874h-158v158h158v-158zM848 671h-158v158h158v-158zM633 671h-159v158h159v-158zM1192 1l-64.001 -0.000976562c-90 0 -163.667 34 -221 102c-6.66699 -40 -26.667 -85 -60 -135c-105.333 -156.667 -334.666 -327 -687.999 -511l-75 140
c328 174 541 332.333 639 475c29.333 42.667 44 82.334 44 119.001c0 36 -11.333 74.333 -34 115l-102 183l137 86l117 -224c60 -115.333 144 -173 252 -173h55v-177z" />
    <glyph glyph-name="uni06A9.fina" unicode="&#x6a9;" horiz-adv-x="1842" arabic-form="final" 
d="M1899 1035l-540.999 -155.998c-44 -12.667 -66 -29.667 -66 -51c0 -16 9.66699 -42.667 29 -80l170 -327c54 -104 110.333 -173.333 169 -208c39.333 -23.333 93 -35 161 -35h21v-177h-46c-48.667 0 -100 13.667 -154 41s-94.667 60.666 -122 99.999
c-42 -94 -136.333 -141 -283 -141h-759c-94.667 0 -171.334 26.667 -230.001 80c-60.667 55.333 -91 129.666 -91 222.999v75h145v-40c0 -107.333 55 -161 165 -161h780c92.667 0 139 26.667 139 80c0 29.333 -13 69 -39 119l-176 339c-20.667 40 -31 78.333 -31 115
c0 86.667 52.667 145.667 158 177l544 161z" />
    <glyph glyph-name="uni06A9.init" unicode="&#x6a9;" horiz-adv-x="762" arabic-form="initial" 
d="M774 1035l-540 -156.001c-44 -12.667 -66 -30 -66 -52c0 -16 9.33301 -42.333 28 -79l168 -329c35.333 -69.333 53 -125.666 53 -168.999c0 -166 -101 -249 -303 -249h-184v177h192c93.333 0 140 26.667 140 80c0 29.333 -13 69 -39 119l-176 339
c-20.667 40 -31 77.667 -31 113c0 88 52.667 147.667 158 179l544 161z" />
    <glyph glyph-name="uni06A9.medi" unicode="&#x6a9;" horiz-adv-x="718" arabic-form="medial" 
d="M774 1035l-540 -155.998c-44 -12.667 -66 -29.667 -66 -51c0 -17.333 9.33301 -44 28 -80l170 -327c54 -104 110.333 -173.333 169 -208c39.333 -23.333 93 -35 161 -35h22v-177h-46c-48.667 0 -100 13.667 -154 41s-94.667 60.666 -122 99.999
c-42.667 -94 -136.667 -141 -282 -141h-184v177h192c93.333 0 140 26.667 140 80c0 29.333 -13 69 -39 119l-176 339c-21.333 41.333 -32 79.666 -32 114.999c0 86.667 53 145.667 159 177l544 161z" />
    <glyph glyph-name="afii57509.fina" unicode="&#x6af;" horiz-adv-x="1842" arabic-form="final" 
d="M1859 1184l-684 -163l-40 71l689 165zM1935 1027l-585.998 -137.997c-44 -10.667 -66 -27.334 -66 -50.001c0 -18.667 9.66699 -46 29 -82l179 -336c55.333 -103.333 111.666 -172.333 168.999 -207c40 -24 93.667 -36 161 -36h21v-177h-46
c-48.667 0 -100 13.667 -154 41s-94.667 60.666 -122 99.999c-42 -94 -136.333 -141 -283 -141h-759c-94.667 0 -171.334 26.667 -230.001 80c-60.667 55.333 -91 129.666 -91 222.999v75h145v-40c0 -107.333 55 -161 165 -161h780c92.667 0 139 26.667 139 80
c0 29.333 -13 69 -39 119l-176 339c-16.667 32 -25 65.667 -25 101c0 97.333 50.667 158.333 152 183l581 141z" />
    <glyph glyph-name="afii57509.init" unicode="&#x6af;" horiz-adv-x="805" arabic-form="initial" 
d="M735 1184l-684 -163l-40 71l689 165zM811 1027l-586 -138c-44 -10.667 -66 -27.667 -66 -51c0 -16.667 9.66699 -43.667 29 -81l176 -338c35.333 -68 53 -124.333 53 -169c0 -166 -101 -249 -303 -249h-184v177h192c93.333 0 140 26.667 140 80c0 29.333 -13 69 -39 119
l-176 339c-17.333 33.333 -26 67 -26 101c0 97.333 51 158.333 153 183l580 141z" />
    <glyph glyph-name="afii57509.medi" unicode="&#x6af;" horiz-adv-x="716" arabic-form="medial" 
d="M735 1184l-684 -163l-40 71l689 165zM811 1027l-586.001 -137.999c-44.667 -10.667 -67 -27.667 -67 -51c0 -16 10 -43 30 -81l178 -336c54.667 -103.333 111.334 -172.333 170.001 -207c40.667 -24 94 -36 160 -36h20v-177h-44c-48.667 0 -100 13.667 -154 41
s-94.667 60.666 -122 99.999c-42.667 -94 -136.667 -141 -282 -141h-184v177h192c93.333 0 140 26.667 140 80c0 29.333 -13 69 -39 119l-176 339c-17.333 33.333 -26 67 -26 101c0 97.333 51 158.333 153 183l580 141z" />
    <glyph glyph-name="uni06470654.fina" unicode="&#x6c0;" horiz-adv-x="1082" arabic-form="final" 
d="M666 1046l-463.999 -154l-28 75l165 55c-32.667 30.667 -49 73 -49 127c0 44.667 22.667 80 68 106c37.333 21.333 80 32 128 32c19.333 0 39.666 -1.66699 60.999 -5v-68c-14.667 2 -29 3 -43 3c-30.667 0 -58 -5.66699 -82 -17c-31.333 -14.667 -47 -35.667 -47 -63
c0 -20 8.66699 -36.667 26 -50c15.333 -12.667 33.333 -19 54 -19c24 0 86 17.667 186 53zM1082 1l-48.002 0.000976562c-140.667 0 -244 56.333 -310 169c-69.333 -20 -150.666 -30 -243.999 -30c-215.333 0 -323 87.667 -323 263c0 64 48 130.667 144 200
c16.667 12 82 51 196 117l-37 87l125 85l173 -469c31.333 -84.667 61.333 -142.334 90 -173.001c44.667 -48 109.334 -72 194.001 -72h40v-177zM655.999 310.001l-109.999 275c-86 -42 -145 -75.333 -177 -100c-47.333 -36 -71 -73 -71 -111c0 -52 64 -78 192 -78
c63.333 0 118.666 4.66699 165.999 14z" />
    <glyph glyph-name="afii57449.init" unicode="&#x649;" horiz-adv-x="400" arabic-form="initial" 
d="M399 252c0 -63.333 -19.333 -118.334 -58 -165.001c-48 -57.333 -116.667 -86 -206 -86h-205v177h202c74.667 0 112 27.333 112 82c0 22.667 -8 48.334 -24 77.001l-92 163l129 91c52.667 -95.333 84.667 -155.333 96 -180c30.667 -66 46 -119 46 -159z" />
    <glyph glyph-name="afii57449.medi" unicode="&#x649;" horiz-adv-x="538" arabic-form="medial" 
d="M538 1l-25 -0.000976562c-104 0 -178.333 38 -223 114c-46 -76 -115 -114 -207 -114h-153v177h113c62 0 101.333 13 118 39c11.333 18 17 58.667 17 122v212h154v-164c0 -85.333 15.667 -142.666 47 -171.999c26 -24 73.667 -36 143 -36h16v-178z" />
    <glyph glyph-name="uni06CC.fina" unicode="&#x6cc;" horiz-adv-x="1447" arabic-form="final" 
d="M1447 1l-97.999 -0.000976562c36.667 -46.667 55 -93 55 -139c0 -86 -67.667 -171.333 -203 -256c-150 -94 -324 -141 -522 -141c-176.667 0 -311.334 52.333 -404.001 157c-78.667 88.667 -118 200.334 -118 335.001c0 111.333 11 198.333 33 261l131 -39
c-16 -70.667 -24 -128 -24 -172c0 -86.667 20.333 -160.667 61 -222c65.333 -98.667 175.333 -148 330 -148c94 0 188.667 14.333 284 43c110 33.333 193.333 79 250 137c15.333 15.333 23 30.333 23 45c0 24.667 -20.667 50 -62 76c-64 40 -202 73.667 -414 101l41 139h637
v-177z" />
    <glyph glyph-name="uni06CC.init" unicode="&#x6cc;" horiz-adv-x="400" arabic-form="initial" 
d="M399 252c0 -63.333 -19.333 -118.334 -58 -165.001c-48 -57.333 -116.667 -86 -206 -86h-205v177h202c74.667 0 112 27.333 112 82c0 22.667 -8 48.334 -24 77.001l-92 163l129 91c52.667 -95.333 84.667 -155.333 96 -180c30.667 -66 46 -119 46 -159zM397 -334.001
h-158v158h158v-158zM181 -334.001h-158v158h158v-158z" />
    <glyph glyph-name="uni06CC.medi" unicode="&#x6cc;" horiz-adv-x="538" arabic-form="medial" 
d="M538 1l-25 -0.000976562c-104 0 -178.333 38 -223 114c-46 -76 -115 -114 -207 -114h-153v177h113c62 0 101.333 13 118 39c11.333 18 17 58.667 17 122v212h154v-164c0 -85.333 15.667 -142.666 47 -171.999c26 -24 73.667 -36 143 -36h16v-178zM460 -334.001h-158v158
h158v-158zM245 -334.001h-159v158h159v-158z" />
    <glyph glyph-name="afii57415_afii57451.fina" unicode="&#xfd3c;" horiz-adv-x="791" arabic-form="final" 
d="M721 1586l-560 -139l-25 83l560 145zM721 1402l-560 -139l-25 83l560 146zM791 1h-119c-214.667 0 -322 128.333 -322 385v849h179v-834c0 -70.667 10.667 -122 32 -154c25.333 -38.667 71.333 -58 138 -58h92v-188z" />
    <glyph glyph-name="afii57415_afii57451.isol" unicode="&#xfd3d;" horiz-adv-x="705" arabic-form="isolated" 
d="M721 1586l-560 -139l-25 83l560 145zM721 1402l-560 -139l-25 83l560 146zM510 1h-179v1233h179v-1233z" />
    <glyph glyph-name="uniFDFC" unicode="&#xfdfc;" horiz-adv-x="1873" arabic-form="isolated" 
d="M1779 621c20 -38 29.999 -77.666 29.999 -118.999c0 -56.667 -19.667 -114.667 -59 -174c-80.667 -121.333 -256 -252 -526 -392l-57 107c249.333 133.333 412.333 254.666 489 363.999c10.667 16.667 18.834 32.5 24.501 47.5s8.5 29.5 8.5 43.5
c0 28.667 -8.66699 58 -26 88l-78 140l105 65zM813.999 319.001c3.33301 -104.667 -26.334 -192.999 -89.001 -264.999c-73.333 -86 -177.333 -129 -312 -129c-108.667 0 -194 31 -256 93c-61.333 62.667 -92 148.667 -92 258c0 67.333 14.667 139 44 215l99 -28
c-24 -64 -36 -124.667 -36 -182c0 -72.667 23.667 -129.334 71 -170.001c44.667 -37.333 104 -56 178 -56c72.667 0 134.667 17.667 186 53c64.667 44 95.334 106.667 92.001 188l-31 938h126zM1117 340.002c-153.333 0 -230 92.333 -230 277v610h128v-599
c0 -51.333 7.66699 -88.333 23 -111c18 -28 51 -42 99 -42h82c56.667 0 85 21 85 63c0 17.333 -6 37 -18 59l-71 125l99 69c20.667 -36 37 -65.5 49 -88.5l25 -48.5c23.333 -49.333 35 -90 35 -122c0 -47.333 -14.667 -89.333 -44 -126c-37.333 -44 -90 -66 -158 -66h-104z
M1279 155.002h-121v121h121v-121zM1114 155.002h-121v121h121v-121z" />
    <glyph glyph-name="afii57410.fina" unicode="&#x622;" horiz-adv-x="852" arabic-form="final" 
d="M852 1l-112.001 -0.000976562c-201.333 0 -302 120.667 -302 362v747h168v-733c0 -67.333 9.66699 -115.666 29 -144.999c24.667 -36 68.334 -54 131.001 -54h86v-177zM896.999 1309c-132 -74.667 -271.331 -111.999 -417.998 -111.999c-33.333 0 -81 12.333 -143 37
c-57.333 22.667 -84.666 35 -81.999 37c-9.33301 -2.66699 -27 -25.334 -53 -68.001l-103 62c56.667 101.333 99 152 127 152c5.33301 0 40.166 -14.5 104.499 -43.5s119.166 -43.5 164.499 -43.5c127.333 0 261.666 34.667 402.999 104v-125z" />
    <glyph glyph-name="afii57411.fina" unicode="&#x623;" horiz-adv-x="716" arabic-form="final" 
d="M612 1331l-465 -153l-28 74l166 56c-32.667 30.667 -49 73 -49 127c0 44.667 22.667 80 68 106c37.333 21.333 80 32 128 32c19.333 0 39.333 -1.66699 60 -5v-69c-14 2.66699 -28 4 -42 4c-86.667 0 -130 -27 -130 -81c0 -19.333 8.5 -35.5 25.5 -48.5
s35.5 -19.5 55.5 -19.5c24 0 85.667 17.333 185 52zM716 1l-112 -0.000976562c-201.333 0 -302 120.667 -302 362v797h168v-783c0 -67.333 9.66699 -115.666 29 -144.999c24 -36 67.333 -54 130 -54h87v-177z" />
    <glyph glyph-name="afii57412.fina" unicode="&#x624;" horiz-adv-x="1115" arabic-form="final" 
d="M712 746l-465 -153l-27 74l164 55c-32.667 32.667 -49 75 -49 127c0 44.667 22.667 80 68 106c37.333 22 80 33 128 33c19.333 0 39.666 -1.66699 60.999 -5v-68c-14 2 -28 3 -42 3c-86.667 0 -130 -26.667 -130 -80c0 -20 8.33301 -36.667 25 -50s35.334 -20 56.001 -20
c21.333 0 83.333 17.667 186 53zM1115 1l-211.002 0.000976562c-56.667 -202.667 -298.667 -409 -726 -619l-78 134c350.667 166 568 328 652 486h-119c-87.333 0 -155.166 24 -203.499 72s-72.5 116 -72.5 204c0 64 23.667 118.667 71 164s103 68 167 68
c64.667 0 126.334 -24 185.001 -72c74 -60.667 118.333 -147.334 133 -260.001h202v-177zM762.998 175.001c-2 52 -23.999 96.334 -65.999 133.001c-35.333 31.333 -69 47 -101 47c-25.333 0 -49 -7.66699 -71 -23c-24 -16.667 -36 -37.334 -36 -62.001c0 -30 12 -54 36 -72
c21.333 -15.333 47.666 -23 78.999 -23h159z" />
    <glyph glyph-name="afii57413.fina" unicode="&#x625;" horiz-adv-x="743" arabic-form="final" 
d="M743 1l-112.001 -0.000976562c-201.333 0 -302 120.667 -302 362v797h168v-783c0 -67.333 9.66699 -115.666 29 -144.999c24.667 -36 68.334 -54 131.001 -54h86v-177zM674.999 -347.001l-464 -153.001l-28 74l166 56c-33.333 32 -50 74.333 -50 127
c0 44.667 22.667 80 68 106c37.333 21.333 80 32 128 32c20 0 40.333 -1.66699 61 -5v-68c-14 2.66699 -28 4 -42 4c-31.333 0 -59.333 -5.66699 -84 -17c-31.333 -14.667 -47 -36 -47 -64c0 -19.333 8.5 -35.666 25.5 -48.999s35.5 -20 55.5 -20c22 0 84 17.333 186 52z
" />
    <glyph glyph-name="afii57414.fina" unicode="&#x626;" horiz-adv-x="1447" arabic-form="final" 
d="M1447 1l-97.999 -0.000976562c36.667 -46.667 55 -93 55 -139c0 -86 -67.667 -171.333 -203 -256c-150 -94 -324 -141 -522 -141c-176.667 0 -311.334 52.333 -404.001 157c-78.667 88.667 -118 200.334 -118 335.001c0 111.333 11 198.333 33 261l131 -39
c-16 -70.667 -24 -128 -24 -172c0 -86.667 20.333 -160.667 61 -222c65.333 -98.667 175.333 -148 330 -148c94 0 188.667 14.333 284 43c110 33.333 193.333 79 250 137c15.333 15.333 23 30.333 23 45c0 24.667 -20.667 50 -62 76c-64 40 -202 73.667 -414 101l41 139h637
v-177zM566.001 519.999l-464.002 -153.999l-28 75l166 55c-32.667 32 -49 74.333 -49 127c0 45.333 22.333 80.666 67 105.999c36.667 21.333 79.334 32 128.001 32c20 0 40.333 -1.66699 61 -5v-67c-14 2 -27.667 3 -41 3c-88 0 -132 -27 -132 -81
c0 -20.667 9.33301 -37.667 28 -51c16.667 -12 34.334 -18 53.001 -18c24.667 0 86.667 17.667 186 53z" />
    <glyph glyph-name="afii57414.init" unicode="&#x626;" horiz-adv-x="444" arabic-form="initial" 
d="M467 800l-464 -152.999l-28 74l165 56c-32.667 31.333 -49 73.666 -49 126.999c0 44.667 22.667 80 68 106c37.333 21.333 80 32 128 32c19.333 0 39.666 -1.66699 60.999 -5v-67c-14 2 -28 3 -42 3c-31.333 0 -59.333 -5.66699 -84 -17c-31.333 -14.667 -47 -36 -47 -64
c0 -20 8.33301 -36.5 25 -49.5s35.334 -19.5 56.001 -19.5c21.333 0 83.333 17.667 186 53zM399 252.001c0 -63.333 -19.333 -118.334 -58 -165.001c-48 -57.333 -116.667 -86 -206 -86h-205v177h202c74.667 0 112 27.333 112 82c0 22.667 -8 48.334 -24 77.001l-92 163
l129 91c52.667 -95.333 84.667 -155.333 96 -180c30.667 -66 46 -119 46 -159z" />
    <glyph glyph-name="afii57414.medi" unicode="&#x626;" horiz-adv-x="538" arabic-form="medial" 
d="M485 783l-464 -154l-29 75l166 55c-32.667 32 -49 74.333 -49 127c0 44.667 22.667 80 68 106c37.333 21.333 80 32 128 32c19.333 0 39.333 -1.66699 60 -5v-68c-14 2 -28 3 -42 3c-30.667 0 -58 -5.66699 -82 -17c-31.333 -14.667 -47 -35.667 -47 -63
c0 -20 8 -36.5 24 -49.5s34.333 -19.5 55 -19.5c24.667 0 86.667 17.667 186 53zM538 1l-25 -0.000976562c-104 0 -178.333 38 -223 114c-46 -76 -115 -114 -207 -114h-153v177h113c62 0 101.333 13 118 39c11.333 18 17 58.667 17 122v212h154v-164
c0 -85.333 15.667 -142.666 47 -171.999c26 -24 73.667 -36 143 -36h16v-178z" />
    <glyph glyph-name="afii57415.fina" unicode="&#x627;" horiz-adv-x="571" arabic-form="final" 
d="M571 1l-113 -0.000976562c-200.667 0 -301 120.667 -301 362v797h168v-783c0 -67.333 9.66699 -115.666 29 -144.999c24 -36 67.333 -54 130 -54h87v-177z" />
    <glyph glyph-name="afii57416.fina" unicode="&#x628;" horiz-adv-x="1923" arabic-form="final" 
d="M1923 1h-62.999c-114 0 -202.333 43.667 -265 131c-45.333 -87.333 -123.333 -131 -234 -131h-914c-86.667 0 -156.667 28.5 -210 85.5s-80 129.167 -80 216.5v71h149v-34c0 -108 52 -162 156 -162h883c82.667 0 124 23.667 124 71c0 24 -11 55.667 -33 95l-83 149
l130 86l90 -169c40 -75.333 75.667 -128 107 -158c51.333 -49.333 112.666 -74 183.999 -74h59v-177zM952.001 -334h-159v157h159v-157z" />
    <glyph glyph-name="afii57416.init" unicode="&#x628;" horiz-adv-x="400" arabic-form="initial" 
d="M399 252c0 -63.333 -19.333 -118.334 -58 -165.001c-48 -57.333 -116.667 -86 -206 -86h-205v177h202c74.667 0 112 27.333 112 82c0 22.667 -8 48.334 -24 77.001l-92 163l129 91c52.667 -95.333 84.667 -155.333 96 -180c30.667 -66 46 -119 46 -159zM272 -334.001
h-158v157h158v-157z" />
    <glyph glyph-name="afii57416.medi" unicode="&#x628;" horiz-adv-x="538" arabic-form="medial" 
d="M538 1l-25 -0.000976562c-104 0 -178.333 38 -223 114c-46 -76 -115 -114 -207 -114h-153v177h113c62 0 101.333 13 118 39c11.333 18 17 58.667 17 122v212h154v-164c0 -85.333 15.667 -142.666 47 -171.999c26 -24 73.667 -36 143 -36h16v-178zM335 -334.001h-158v157
h158v-157z" />
    <glyph glyph-name="afii57417.fina" unicode="&#x629;" horiz-adv-x="1082" arabic-form="final" 
d="M1082 1l-48.002 0.000976562c-140.667 0 -244 56.333 -310 169c-69.333 -20 -150.666 -30 -243.999 -30c-215.333 0 -323 87.667 -323 263c0 64 48 130.667 144 200c16.667 12 82 51 196 117l-37 87l125 85l173 -469c31.333 -84.667 61.333 -142.334 90 -173.001
c44.667 -48 109.334 -72 194.001 -72h40v-177zM655.998 310.001l-109.999 275c-86 -42 -145 -75.333 -177 -100c-47.333 -36 -71 -73 -71 -111c0 -52 64 -78 192 -78c63.333 0 118.666 4.66699 165.999 14zM657.999 1029h-158v157h158v-157zM441.999 1029h-158v157h158v-157
z" />
    <glyph glyph-name="afii57418.fina" unicode="&#x62a;" horiz-adv-x="1923" arabic-form="final" 
d="M1018 487h-158v157h158v-157zM1923 1h-62.999c-114 0 -202.333 43.667 -265 131c-45.333 -87.333 -123.333 -131 -234 -131h-914c-86.667 0 -156.667 28.5 -210 85.5s-80 129.167 -80 216.5v71h149v-34c0 -108 52 -162 156 -162h883c82.667 0 124 23.667 124 71
c0 24 -11 55.667 -33 95l-83 149l130 86l90 -169c40 -75.333 75.667 -128 107 -158c51.333 -49.333 112.666 -74 183.999 -74h59v-177zM802.001 487h-158v157h158v-157z" />
    <glyph glyph-name="afii57418.init" unicode="&#x62a;" horiz-adv-x="400" arabic-form="initial" 
d="M401 720h-159v157h159v-157zM185 720h-159v157h159v-157zM399 252c0 -63.333 -19.333 -118.334 -58 -165.001c-48 -57.333 -116.667 -86 -206 -86h-205v177h202c74.667 0 112 27.333 112 82c0 22.667 -8 48.334 -24 77.001l-92 163l129 91
c52.667 -95.333 84.667 -155.333 96 -180c30.667 -66 46 -119 46 -159z" />
    <glyph glyph-name="afii57418.medi" unicode="&#x62a;" horiz-adv-x="538" arabic-form="medial" 
d="M447 682h-159v158h159v-158zM231 682h-159v158h159v-158zM538 1l-25 -0.000976562c-104 0 -178.333 38 -223 114c-46 -76 -115 -114 -207 -114h-153v177h113c62 0 101.333 13 118 39c11.333 18 17 58.667 17 122v212h154v-164c0 -85.333 15.667 -142.666 47 -171.999
c26 -24 73.667 -36 143 -36h16v-178z" />
    <glyph glyph-name="afii57419.fina" unicode="&#x62b;" horiz-adv-x="1923" arabic-form="final" 
d="M911 692h-159v158h159v-158zM1018 489h-158v158h158v-158zM1923 1h-62.999c-114 0 -202.333 43.667 -265 131c-45.333 -87.333 -123.333 -131 -234 -131h-914c-86.667 0 -156.667 28.5 -210 85.5s-80 129.167 -80 216.5v71h149v-34c0 -108 52 -162 156 -162h883
c82.667 0 124 23.667 124 71c0 24 -11 55.667 -33 95l-83 149l130 86l90 -169c40 -75.333 75.667 -128 107 -158c51.333 -49.333 112.666 -74 183.999 -74h59v-177zM802.001 489h-158v158h158v-158z" />
    <glyph glyph-name="afii57419.init" unicode="&#x62b;" horiz-adv-x="403" arabic-form="initial" 
d="M294 920h-159v158h159v-158zM401 716h-159v158h159v-158zM185 716h-159v158h159v-158zM399 252c0 -63.333 -19.333 -118.334 -58 -165.001c-48 -57.333 -116.667 -86 -206 -86h-205v177h202c74.667 0 112 27.333 112 82c0 22.667 -8 48.334 -24 77.001l-92 163l129 91
c52.667 -95.333 84.667 -155.333 96 -180c30.667 -66 46 -119 46 -159z" />
    <glyph glyph-name="afii57419.medi" unicode="&#x62b;" horiz-adv-x="538" arabic-form="medial" 
d="M340 883h-159v158h159v-158zM447 680h-159v158h159v-158zM231 680h-159v158h159v-158zM538 1l-25 -0.000976562c-104 0 -178.333 38 -223 114c-46 -76 -115 -114 -207 -114h-153v177h113c62 0 101.333 13 118 39c11.333 18 17 58.667 17 122v212h154v-164
c0 -85.333 15.667 -142.666 47 -171.999c26 -24 73.667 -36 143 -36h16v-178z" />
    <glyph glyph-name="afii57420.fina" unicode="&#x62c;" horiz-adv-x="1328" arabic-form="final" 
d="M1328 1l-144.001 -0.00390625c-116 0 -203.667 25.333 -263 76c-44.667 36.667 -97.667 114.334 -159 233.001c-111.333 -52.667 -208.666 -119.667 -291.999 -201c-114 -112 -171 -227.333 -171 -346c0 -48.667 11.5 -93.667 34.5 -135s55.167 -77.166 96.5 -107.499
s90.5 -54 147.5 -71s119.167 -25.5 186.5 -25.5c152.667 0 301.667 31.333 447 94l66 -132c-176 -81.333 -348.333 -122 -517 -122c-94 0 -178.333 11.667 -253 35s-138 57.333 -190 102s-91.667 99.667 -119 165s-41 140.333 -41 225c0 162.667 91.667 316 275 460
c96 74.667 236 156.667 420 246c-115.333 7.33301 -206.333 12.833 -273 16.5s-109.667 5.5 -129 5.5c-66 0 -127.667 -20.667 -185 -62l-55 122c72 56 152 84 240 84h22l760 -37v-152c-48.667 0 -112 -12 -190 -36c-80.667 -25.333 -139.667 -51.666 -177 -78.999
c20 -30.667 39.333 -56.667 58 -78s36.667 -37.666 54 -48.999c52.667 -36 126 -54 220 -54h131v-177zM792.999 -262.004h-158v158h158v-158z" />
    <glyph glyph-name="afii57420.init" unicode="&#x62c;" horiz-adv-x="907" arabic-form="initial" 
d="M907 117l-83 -116h-894v177h710l-289 255c-43.333 46.667 -93 70 -149 70h-114v152h148c64 0 123.667 -26 179 -78zM240 -325h-158v157h158v-157z" />
    <glyph glyph-name="afii57420.medi" unicode="&#x62c;" horiz-adv-x="1229" arabic-form="medial" 
d="M1229 1h-112.999c-152 0 -279 99.333 -381 298c-144.667 -123.333 -256 -204.666 -334 -243.999c-73.333 -36 -157 -54 -251 -54h-220v177h131c103.333 0 190 12 260 36c28 9.33301 60.167 24.166 96.5 44.499s76.833 45.833 121.5 76.5l103 73.5l103 75.5
c-120 5.33301 -217.5 9.33301 -292.5 12s-127.833 4 -158.5 4c-60.667 0 -116.334 -19.333 -167.001 -58l-58 117c72.667 60 150.667 90 234 90h16l790 -36v-145c-105.333 0 -201.333 -34.333 -288 -103c50 -61.333 91 -103.333 123 -126
c56.667 -40.667 125.667 -61 207 -61h78v-177zM639.001 -325h-158v157h158v-157z" />
    <glyph glyph-name="afii57421.fina" unicode="&#x62d;" horiz-adv-x="1327" arabic-form="final" 
d="M1327 1l-143.001 -0.00390625c-116 0 -203.667 25.333 -263 76c-44.667 36.667 -97.667 114.334 -159 233.001c-111.333 -52.667 -208.666 -119.667 -291.999 -201c-114 -112 -171 -227.333 -171 -346c0 -48.667 11.5 -93.667 34.5 -135s55.167 -77.166 96.5 -107.499
s90.5 -54 147.5 -71s119.167 -25.5 186.5 -25.5c152.667 0 301.667 31.333 447 94l66 -132c-176 -81.333 -348.333 -122 -517 -122c-94 0 -178.333 11.667 -253 35s-138 57.333 -190 102s-91.667 99.667 -119 165s-41 140.333 -41 225c0 162.667 91.667 316 275 460
c96 74.667 236 156.667 420 246c-115.333 7.33301 -206.333 12.833 -273 16.5s-109.667 5.5 -129 5.5c-66 0 -127.667 -20.667 -185 -62l-55 122c72 56 152 84 240 84h22l760 -37v-152c-48.667 0 -112 -12 -190 -36c-80.667 -25.333 -139.667 -51.666 -177 -78.999
c20 -30.667 39.333 -56.667 58 -78s36.667 -37.666 54 -48.999c52.667 -36 126 -54 220 -54h130v-177z" />
    <glyph glyph-name="afii57421.init" unicode="&#x62d;" horiz-adv-x="907" arabic-form="initial" 
d="M907 117l-83 -116h-894v177h710l-289 255c-43.333 46.667 -93 70 -149 70h-114v152h148c64 0 123.667 -26 179 -78z" />
    <glyph glyph-name="afii57421.medi" unicode="&#x62d;" horiz-adv-x="1230" arabic-form="medial" 
d="M1230 1h-113.999c-152 0 -279 99.333 -381 298c-144.667 -123.333 -256 -204.666 -334 -243.999c-73.333 -36 -157 -54 -251 -54h-220v177h131c103.333 0 190 12 260 36c28 9.33301 60.167 24.166 96.5 44.499s76.833 45.833 121.5 76.5l103 73.5l103 75.5
c-120 5.33301 -217.5 9.33301 -292.5 12s-127.833 4 -158.5 4c-60.667 0 -116.334 -19.333 -167.001 -58l-58 117c72.667 60 150.667 90 234 90h16l790 -36v-145c-105.333 0 -201.333 -34.333 -288 -103c48.667 -61.333 89.667 -103.333 123 -126
c57.333 -40.667 126.333 -61 207 -61h79v-177z" />
    <glyph glyph-name="afii57422.fina" unicode="&#x62e;" horiz-adv-x="1328" arabic-form="final" 
d="M798 858h-159v158h159v-158zM1328 1l-144.001 -0.00390625c-116 0 -203.667 25.333 -263 76c-44.667 36.667 -97.667 114.334 -159 233.001c-111.333 -52.667 -208.666 -119.667 -291.999 -201c-114 -112 -171 -227.333 -171 -346c0 -48.667 11.5 -93.667 34.5 -135
s55.167 -77.166 96.5 -107.499s90.5 -54 147.5 -71s119.167 -25.5 186.5 -25.5c152.667 0 301.667 31.333 447 94l66 -132c-176 -81.333 -348.333 -122 -517 -122c-94 0 -178.333 11.667 -253 35s-138 57.333 -190 102s-91.667 99.667 -119 165s-41 140.333 -41 225
c0 162.667 91.667 316 275 460c96 74.667 236 156.667 420 246c-115.333 7.33301 -206.333 12.833 -273 16.5s-109.667 5.5 -129 5.5c-66 0 -127.667 -20.667 -185 -62l-55 122c72 56 152 84 240 84h22l760 -37v-152c-48.667 0 -112 -12 -190 -36
c-80.667 -25.333 -139.667 -51.666 -177 -78.999c20 -30.667 39.333 -56.667 58 -78s36.667 -37.666 54 -48.999c52.667 -36 126 -54 220 -54h131v-177z" />
    <glyph glyph-name="afii57422.init" unicode="&#x62e;" horiz-adv-x="907" arabic-form="initial" 
d="M254 858h-159v158h159v-158zM907 117l-83 -116h-894v177h710l-289 255c-43.333 46.667 -93 70 -149 70h-114v152h148c64 0 123.667 -26 179 -78z" />
    <glyph glyph-name="afii57422.medi" unicode="&#x62e;" horiz-adv-x="1229" arabic-form="medial" 
d="M707 858h-158v158h158v-158zM1229 1h-112.999c-152 0 -279 99.333 -381 298c-144.667 -123.333 -256 -204.666 -334 -243.999c-73.333 -36 -157 -54 -251 -54h-220v177h131c103.333 0 190 12 260 36c28 9.33301 60.167 24.166 96.5 44.499s76.833 45.833 121.5 76.5
l103 73.5l103 75.5c-120 5.33301 -217.5 9.33301 -292.5 12s-127.833 4 -158.5 4c-60.667 0 -116.334 -19.333 -167.001 -58l-58 117c72.667 60 150.667 90 234 90h16l790 -36v-145c-105.333 0 -201.333 -34.333 -288 -103c48.667 -61.333 89.667 -103.333 123 -126
c57.333 -40.667 126.333 -61 207 -61h78v-177z" />
    <glyph glyph-name="afii57423.fina" unicode="&#x62f;" horiz-adv-x="1339" arabic-form="final" 
d="M1339 1h-28.001c-123.333 0 -220.666 45.667 -291.999 137c-32.667 -91.333 -120.334 -137 -263.001 -137h-298c-62.667 0 -120.667 13.333 -174 40c-60 29.333 -102.667 70 -128 122l98 104c52 -59.333 105.333 -89 160 -89h346c83.333 0 125 24 125 72
c0 18.667 -8 43.667 -24 75l-228 443l134 86l229 -450c40.667 -80 83 -136.333 127 -169c50.667 -38 117.334 -57 200.001 -57h16v-177z" />
    <glyph glyph-name="afii57424.fina" unicode="&#x630;" horiz-adv-x="1338" arabic-form="final" 
d="M775 980h-159v158h159v-158zM1338 1h-27.001c-123.333 0 -220.666 45.667 -291.999 137c-32.667 -91.333 -120.334 -137 -263.001 -137h-298c-62.667 0 -120.667 13.333 -174 40c-60 29.333 -102.667 70 -128 122l98 104c52 -59.333 105.333 -89 160 -89h346
c83.333 0 125 24 125 72c0 18.667 -8 43.667 -24 75l-228 443l134 86l229 -450c40.667 -80 83 -136.333 127 -169c50.667 -38 117.334 -57 200.001 -57h15v-177z" />
    <glyph glyph-name="afii57425.fina" unicode="&#x631;" horiz-adv-x="1191" arabic-form="final" 
d="M1191 1l-63.001 -0.000976562c-90 0 -163.667 34 -221 102c-6.66699 -40 -26.667 -85 -60 -135c-105.333 -156.667 -334.666 -327 -687.999 -511l-75 140c328 174 541 332.333 639 475c29.333 42.667 44 82.334 44 119.001c0 36 -11.333 74.333 -34 115l-102 183l137 86
l117 -224c60 -115.333 144 -173 252 -173h54v-177z" />
    <glyph glyph-name="afii57426.fina" unicode="&#x632;" horiz-adv-x="1192" arabic-form="final" 
d="M780 721h-159v158h159v-158zM1192 1l-64.001 -0.000976562c-90 0 -163.667 34 -221 102c-6.66699 -40 -26.667 -85 -60 -135c-105.333 -156.667 -334.666 -327 -687.999 -511l-75 140c328 174 541 332.333 639 475c29.333 42.667 44 82.334 44 119.001
c0 36 -11.333 74.333 -34 115l-102 183l137 86l117 -224c60 -115.333 144 -173 252 -173h55v-177z" />
    <glyph glyph-name="afii57427.fina" unicode="&#x633;" horiz-adv-x="2275" arabic-form="final" 
d="M2275 1l-28 -0.00195312c-42 0 -84 10.333 -126 31c-44.667 22.667 -76.334 51.334 -95.001 86.001c-47.333 -83.333 -111 -125 -191 -125c-92.667 0 -160 41.333 -202 124c-43.333 -77.333 -100.666 -116 -171.999 -116c-52.667 0 -101 14 -145 42
c0 -135.333 -19.333 -238.333 -58 -309c-50.667 -92.667 -129.334 -165.667 -236.001 -219c-98.667 -49.333 -204 -74 -316 -74c-180 0 -319.333 49 -418 147c-86.667 86 -130 195 -130 327c0 119.333 26 234 78 344l129 -39c-38 -112 -57 -204.667 -57 -278
c0 -121.333 47.333 -210.666 142 -267.999c68.667 -41.333 150.334 -62 245.001 -62c119.333 0 223 27 311 81c104 63.333 156 151 156 263c0 16.667 -2 36.334 -6 59.001c-22 124 -74.333 256.667 -157 398l133 84c60.667 -108.667 100.334 -175.667 119.001 -201
c60 -81.333 119 -122 177 -122c39.333 0 66.666 6.66699 81.999 20s23 39.666 23 78.999v270h144v-77c0 -198 54.667 -297 164 -297c54 0 81 34.667 81 104v271h145v-167c0 -132.667 51.667 -199 155 -199h53v-177z" />
    <glyph glyph-name="afii57427.init" unicode="&#x633;" horiz-adv-x="1160" arabic-form="initial" 
d="M1158 240c0 -76 -25.166 -138.332 -75.499 -186.999s-113.833 -73 -190.5 -73c-110.667 0 -189 41.667 -235 125c-54.667 -76 -113.334 -114 -176.001 -114c-97.333 0 -167 41.333 -209 124c-26.667 -46.667 -61.667 -78.334 -105 -95.001
c-32.667 -12.667 -79.334 -19 -140.001 -19h-97v177h116c50.667 0 86 11.667 106 35c18 21.333 27 58 27 110v213h139l1 -86c2 -190 57.333 -285 166 -285c33.333 0 55.333 18.333 66 55c6.66699 23.333 10 72 10 146v170h141v-130c0 -66 15 -122.667 45 -170
c34.667 -54.667 83.334 -82 146.001 -82c71.333 0 107 29.667 107 89c0 38 -35.333 116.667 -106 236l125 87c92.667 -163.333 139 -272 139 -326z" />
    <glyph glyph-name="afii57427.medi" unicode="&#x633;" horiz-adv-x="1296" arabic-form="medial" 
d="M1296 1h-29.002c-42 0 -83.667 10.333 -125 31c-44 22 -75 50.667 -93 86c-47.333 -83.333 -111.666 -125 -192.999 -125c-87.333 0 -151.666 41.333 -192.999 124c-48 -83.333 -108.667 -125 -182 -125c-94.667 0 -163.667 41.667 -207 125
c-38.667 -77.333 -102 -116 -190 -116h-154v177h144c70 0 105 31.667 105 95v270h145v-77c0 -198 51.667 -297 155 -297c50 0 75 34.667 75 104v270h144v-77c0 -198 54.667 -297 164 -297c54 0 81 34.667 81 104v271h144v-167c0 -132.667 51.667 -199 155 -199h54v-177z" />
    <glyph glyph-name="afii57428.fina" unicode="&#x634;" horiz-adv-x="2274" arabic-form="final" 
d="M1680 928h-159v158h159v-158zM1787 725h-159v158h159v-158zM1572 725h-159v158h159v-158zM2274 1l-27 -0.00195312c-42 0 -84 10.333 -126 31c-44.667 22.667 -76.334 51.334 -95.001 86.001c-47.333 -83.333 -111 -125 -191 -125c-92.667 0 -160 41.333 -202 124
c-43.333 -77.333 -100.666 -116 -171.999 -116c-52.667 0 -101 14 -145 42c0 -135.333 -19.333 -238.333 -58 -309c-50.667 -92.667 -129.334 -165.667 -236.001 -219c-98.667 -49.333 -204 -74 -316 -74c-180 0 -319.333 49 -418 147c-86.667 86 -130 195 -130 327
c0 119.333 26 234 78 344l129 -39c-38 -112 -57 -204.667 -57 -278c0 -121.333 47.333 -210.666 142 -267.999c68.667 -41.333 150.334 -62 245.001 -62c119.333 0 223 27 311 81c104 63.333 156 151 156 263c0 16.667 -2 36.334 -6 59.001
c-22 124 -74.333 256.667 -157 398l133 84c60.667 -108.667 100.334 -175.667 119.001 -201c60 -81.333 119 -122 177 -122c39.333 0 66.666 6.66699 81.999 20s23 39.666 23 78.999v270h144v-77c0 -198 54.667 -297 164 -297c54 0 81 34.667 81 104v271h145v-167
c0 -132.667 51.667 -199 155 -199h52v-177z" />
    <glyph glyph-name="afii57428.init" unicode="&#x634;" horiz-adv-x="1160" arabic-form="initial" 
d="M707 928h-158v158h158v-158zM815 725h-159v158h159v-158zM598 725h-158v158h158v-158zM1158 240c0 -76 -25.166 -138.332 -75.499 -186.999s-113.833 -73 -190.5 -73c-110.667 0 -189 41.667 -235 125c-54.667 -76 -113.334 -114 -176.001 -114
c-97.333 0 -167 41.333 -209 124c-26.667 -46.667 -61.667 -78.334 -105 -95.001c-32.667 -12.667 -79.334 -19 -140.001 -19h-97v177h116c50.667 0 86 11.667 106 35c18 21.333 27 58 27 110v213h139l1 -86c2 -190 57.333 -285 166 -285c33.333 0 55.333 18.333 66 55
c6.66699 23.333 10 72 10 146v170h141v-130c0 -66 15 -122.667 45 -170c34.667 -54.667 83.334 -82 146.001 -82c71.333 0 107 29.667 107 89c0 38 -35.333 116.667 -106 236l125 87c92.667 -163.333 139 -272 139 -326z" />
    <glyph glyph-name="afii57428.medi" unicode="&#x634;" horiz-adv-x="1296" arabic-form="medial" 
d="M719 928h-159v158h159v-158zM826 725h-159v158h159v-158zM611 725h-159v158h159v-158zM1296 1h-29.002c-42 0 -83.667 10.333 -125 31c-44 22 -75 50.667 -93 86c-47.333 -83.333 -111.666 -125 -192.999 -125c-87.333 0 -151.666 41.333 -192.999 124
c-48 -83.333 -108.667 -125 -182 -125c-94.667 0 -163.667 41.667 -207 125c-38.667 -77.333 -102 -116 -190 -116h-154v177h144c70 0 105 31.667 105 95v270h145v-77c0 -198 51.667 -297 155 -297c50 0 75 34.667 75 104v270h144v-77c0 -198 54.667 -297 164 -297
c54 0 81 34.667 81 104v271h144v-167c0 -132.667 51.667 -199 155 -199h54v-177z" />
    <glyph glyph-name="afii57429.fina" unicode="&#x635;" horiz-adv-x="2380" arabic-form="final" 
d="M2380 1l-22 -0.00195312c-107.333 0 -195.666 32.667 -264.999 98c-70.667 -65.333 -163 -98 -277 -98h-335c-71.333 0 -126.333 14 -165 42c0 -135.333 -19.333 -238.333 -58 -309c-50.667 -92.667 -129.334 -165.667 -236.001 -219c-98.667 -49.333 -204 -74 -316 -74
c-180 0 -319.333 49 -418 147c-86.667 86 -130 195 -130 327c0 119.333 26 234 78 344l129 -39c-38 -112 -57 -204.667 -57 -278c0 -121.333 47.333 -210.666 142 -267.999c68.667 -41.333 150.334 -62 245.001 -62c119.333 0 223 27 311 81c104 63.333 156 151 156 263
c0 16.667 -2 36.334 -6 59.001c-22 124 -74.333 256.667 -157 398l133 84l78 -156c27.333 -48 57 -86 89 -114c202.667 286.667 401.667 430 597 430c81.333 0 152.333 -27.667 212.999 -83c60.667 -55.333 91 -123.333 91 -204c0 -55.333 -7 -103 -21 -143
c37.333 -32.667 91.333 -49 162 -49h39v-177zM2048 358.998c0 42.667 -16 77 -48 103c-29.333 24.667 -66 37 -110 37c-146 0 -307 -95.667 -483 -287c-8 -8.66699 -12 -15.667 -12 -21c0 -8.66699 12.667 -13 38 -13h397c73.333 0 130 21 170 63c32 34 48 73.333 48 118z
" />
    <glyph glyph-name="afii57429.init" unicode="&#x635;" horiz-adv-x="1261" arabic-form="initial" 
d="M1258 370c0 -114.667 -35.168 -204.832 -105.501 -270.499s-163.5 -98.5 -279.5 -98.5h-336c-106.667 0 -187 36 -241 108c-53.333 -72 -128 -108 -224 -108h-142v177h88c64 0 106.333 8 127 24c24 19.333 36 59.666 36 120.999v214h157v-142
c0 -86 8.33301 -138.667 25 -158c198.667 280 395.334 420 590.001 420c80 0 150.833 -28 212.5 -84s92.5 -123.667 92.5 -203zM1105 359.002c0 42.667 -15.333 76.667 -46 102s-67.667 38 -111 38c-152.667 0 -323 -107 -511 -321h450c73.333 0 130 21 170 63
c32 34 48 73.333 48 118z" />
    <glyph glyph-name="afii57429.medi" unicode="&#x635;" horiz-adv-x="1445" arabic-form="medial" 
d="M1445 1l-29.001 0.000976562c-107.333 0 -196 32.667 -266 98c-71.333 -65.333 -163.666 -98 -276.999 -98h-336c-106.667 0 -187 36 -241 108c-53.333 -72 -128 -108 -224 -108h-142v177h88c64 0 106.333 8 127 24c24 19.333 36 59.666 36 120.999v214h157v-142
c0 -86 8.33301 -138.667 25 -158c198.667 280 395.334 420 590.001 420c80 0 150.833 -28 212.5 -84s92.5 -123.667 92.5 -203c0 -54 -7.66699 -101.667 -23 -143c39.333 -32.667 93.666 -49 162.999 -49h47v-177zM1105 359.001c0 42.667 -15.333 76.667 -46 102
s-67.667 38 -111 38c-152.667 0 -323 -107 -511 -321h450c73.333 0 130 21 170 63c32 34 48 73.333 48 118z" />
    <glyph glyph-name="afii57430.fina" unicode="&#x636;" horiz-adv-x="2381" arabic-form="final" 
d="M1918 867h-158v158h158v-158zM2381 1l-23 -0.00195312c-107.333 0 -195.666 32.667 -264.999 98c-70.667 -65.333 -163 -98 -277 -98h-335c-71.333 0 -126.333 14 -165 42c0 -135.333 -19.333 -238.333 -58 -309c-50.667 -92.667 -129.334 -165.667 -236.001 -219
c-98.667 -49.333 -204 -74 -316 -74c-180 0 -319.333 49 -418 147c-86.667 86 -130 195 -130 327c0 119.333 26 234 78 344l129 -39c-38 -112 -57 -204.667 -57 -278c0 -121.333 47.333 -210.666 142 -267.999c68.667 -41.333 150.334 -62 245.001 -62
c119.333 0 223 27 311 81c104 63.333 156 151 156 263c0 16.667 -2 36.334 -6 59.001c-22 124 -74.333 256.667 -157 398l133 84l78 -156c27.333 -48 57 -86 89 -114c202.667 286.667 401.667 430 597 430c81.333 0 152.333 -27.667 212.999 -83
c60.667 -55.333 91 -123.333 91 -204c0 -55.333 -7 -103 -21 -143c37.333 -32.667 91.333 -49 162 -49h40v-177zM2048 358.998c0 42.667 -16 77 -48 103c-29.333 24.667 -66 37 -110 37c-146 0 -307 -95.667 -483 -287c-8 -8.66699 -12 -15.667 -12 -21
c0 -8.66699 12.667 -13 38 -13h397c73.333 0 130 21 170 63c32 34 48 73.333 48 118z" />
    <glyph glyph-name="afii57430.init" unicode="&#x636;" horiz-adv-x="1262" arabic-form="initial" 
d="M975 867h-158v158h158v-158zM1258 370c0 -114.667 -35.168 -204.832 -105.501 -270.499s-163.5 -98.5 -279.5 -98.5h-336c-106.667 0 -187 36 -241 108c-53.333 -72 -128 -108 -224 -108h-142v177h88c64 0 106.333 8 127 24c24 19.333 36 59.666 36 120.999v214h157v-142
c0 -86 8.33301 -138.667 25 -158c198.667 280 395.334 420 590.001 420c80 0 150.833 -28 212.5 -84s92.5 -123.667 92.5 -203zM1105 359.002c0 42.667 -15.333 76.667 -46 102s-67.667 38 -111 38c-152.667 0 -323 -107 -511 -321h450c73.333 0 130 21 170 63
c32 34 48 73.333 48 118z" />
    <glyph glyph-name="afii57430.medi" unicode="&#x636;" horiz-adv-x="1447" arabic-form="medial" 
d="M975 867h-158v158h158v-158zM1447 1l-31.001 0.000976562c-107.333 0 -196 32.667 -266 98c-71.333 -65.333 -163.666 -98 -276.999 -98h-336c-106.667 0 -187 36 -241 108c-53.333 -72 -128 -108 -224 -108h-142v177h88c64 0 106.333 8 127 24
c24 19.333 36 59.666 36 120.999v214h157v-142c0 -86 8.33301 -138.667 25 -158c198.667 280 395.334 420 590.001 420c80 0 150.833 -28 212.5 -84s92.5 -123.667 92.5 -203c0 -54 -7.66699 -101.667 -23 -143c39.333 -32.667 93.666 -49 162.999 -49h49v-177z
M1105 359.001c0 42.667 -15.333 76.667 -46 102s-67.667 38 -111 38c-152.667 0 -323 -107 -511 -321h450c73.333 0 130 21 170 63c32 34 48 73.333 48 118z" />
    <glyph glyph-name="afii57431.fina" unicode="&#x637;" horiz-adv-x="1634" arabic-form="final" 
d="M1634 1l-53.001 0.000976562c-97.333 0 -178 33.333 -242 100c-72.667 -66.667 -164.667 -100 -276 -100h-698c-83.333 0 -152.666 19.333 -207.999 58v119h233c44.667 0 75 15.333 91 46c12 22.667 18 59 18 109v824h138v-801c59.333 73.333 128 137 206 191
c106 73.333 206 110 300 110c82.667 0 153.667 -27 213 -81c61.333 -56 92 -124.667 92 -206c0 -50.667 -8.33301 -99.334 -25 -146.001c40 -30.667 93.333 -46 160 -46h51v-177zM1296 359.001c0 42 -16 76.333 -48 103c-30 24.667 -66.667 37 -110 37
c-158.667 0 -332 -107 -520 -321h460c58.667 0 108.667 15.333 150 46c45.333 33.333 68 78.333 68 135z" />
    <glyph glyph-name="afii57431.init" unicode="&#x637;" horiz-adv-x="1134" arabic-form="initial" 
d="M1131 370c0 -123.333 -42.333 -218.333 -127 -285c-70.667 -56 -156.667 -84 -258 -84l-816 1v176h142c45.333 0 76 15.333 92 46c11.333 22 17 58.333 17 109v824h138v-801c60.667 74 129.334 137.667 206.001 191c105.333 73.333 205.666 110 300.999 110
c82.667 0 153.667 -27 213 -81c61.333 -56 92 -124.667 92 -206zM978 359c0 42.667 -16 77 -48 103c-29.333 24.667 -66 37 -110 37c-158 0 -331 -107 -519 -321h459c73.333 0 130 21 170 63c32 34 48 73.333 48 118z" />
    <glyph glyph-name="afii57431.medi" unicode="&#x637;" horiz-adv-x="1316" arabic-form="medial" 
d="M1316 1h-52c-97.333 0 -178.333 33.333 -243 100c-72 -66.667 -163.667 -100 -275 -100h-816v177h142c45.333 0 76 15.333 92 46c11.333 22 17 58.333 17 109v824h138v-801c60.667 74 129.334 137.667 206.001 191c105.333 73.333 205.666 110 300.999 110
c82.667 0 153.667 -27 213 -81c61.333 -56 92 -124.667 92 -206c0 -49.333 -8.33301 -98 -25 -146c39.333 -30.667 92.333 -46 159 -46h51v-177zM978 359c0 42.667 -16 77 -48 103c-29.333 24.667 -66 37 -110 37c-158 0 -331 -107 -519 -321h459c73.333 0 130 21 170 63
c32 34 48 73.333 48 118z" />
    <glyph glyph-name="afii57432.fina" unicode="&#x638;" horiz-adv-x="1634" arabic-form="final" 
d="M1166 867h-159v158h159v-158zM1634 1l-53.001 0.000976562c-97.333 0 -178 33.333 -242 100c-72.667 -66.667 -164.667 -100 -276 -100h-698c-83.333 0 -152.666 19.333 -207.999 58v119h233c44.667 0 75 15.333 91 46c12 22.667 18 59 18 109v824h138v-801
c59.333 73.333 128 137 206 191c106 73.333 206 110 300 110c82.667 0 153.667 -27 213 -81c61.333 -56 92 -124.667 92 -206c0 -50.667 -8.33301 -99.334 -25 -146.001c40 -30.667 93.333 -46 160 -46h51v-177zM1296 359.001c0 42 -16 76.333 -48 103
c-30 24.667 -66.667 37 -110 37c-158.667 0 -332 -107 -520 -321h460c58.667 0 108.667 15.333 150 46c45.333 33.333 68 78.333 68 135z" />
    <glyph glyph-name="afii57432.init" unicode="&#x638;" horiz-adv-x="1135" arabic-form="initial" 
d="M867 867h-159v158h159v-158zM1131 370c0 -123.333 -42.333 -218.333 -127 -285c-70.667 -56 -156.667 -84 -258 -84l-816 1v176h142c45.333 0 76 15.333 92 46c11.333 22 17 58.333 17 109v824h138v-801c60.667 74 129.334 137.667 206.001 191
c105.333 73.333 205.666 110 300.999 110c82.667 0 153.667 -27 213 -81c61.333 -56 92 -124.667 92 -206zM978 359c0 42.667 -16 77 -48 103c-29.333 24.667 -66 37 -110 37c-158 0 -331 -107 -519 -321h459c73.333 0 130 21 170 63c32 34 48 73.333 48 118z" />
    <glyph glyph-name="afii57432.medi" unicode="&#x638;" horiz-adv-x="1314" arabic-form="medial" 
d="M867 867h-159v158h159v-158zM1314 1h-50c-97.333 0 -178.333 33.333 -243 100c-72 -66.667 -163.667 -100 -275 -100h-816v177h142c45.333 0 76 15.333 92 46c11.333 22 17 58.333 17 109v824h138v-801c60.667 74 129.334 137.667 206.001 191
c105.333 73.333 205.666 110 300.999 110c82.667 0 153.667 -27 213 -81c61.333 -56 92 -124.667 92 -206c0 -49.333 -8.33301 -98 -25 -146c39.333 -30.667 92.333 -46 159 -46h49v-177zM978 359c0 42.667 -16 77 -48 103c-29.333 24.667 -66 37 -110 37
c-158 0 -331 -107 -519 -321h459c73.333 0 130 21 170 63c32 34 48 73.333 48 118z" />
    <glyph glyph-name="afii57433.fina" unicode="&#x639;" horiz-adv-x="1077" arabic-form="final" 
d="M1077 1l-61.002 0.00195312c-115.333 0 -222.666 47.333 -321.999 142c-56 -29.333 -103.167 -55.333 -141.5 -78s-68.166 -42.334 -89.499 -59.001c-106 -82 -159 -169.333 -159 -262c0 -46.667 10 -88.5 30 -125.5s48 -68.333 84 -94s79.167 -45.334 129.5 -59.001
s106.166 -20.5 167.499 -20.5c118 0 224.667 17 320 51l44 -136c-134 -52 -271 -78 -411 -78c-73.333 0 -141.333 10.833 -204 32.5s-116.667 52.334 -162 92.001s-80.833 87 -106.5 142s-38.5 115.833 -38.5 182.5c0 95.333 29 181.666 87 258.999
c45.333 60 105 113.333 179 160l61 36.5l86 51.5l-22 21l-41.5 40l-42.5 41l-26 25c-58 54.667 -87 101.667 -87 141c0 49.333 51 87.666 153 114.999c70.667 18 141 27 211 27c38 0 72.167 -4.16699 102.5 -12.5s56.333 -20.666 78 -36.999s38.334 -36.333 50.001 -60
s17.5 -50.5 17.5 -80.5c0 -32 -19.333 -74.333 -58 -127c-33.333 -44.667 -64 -77 -92 -97c55.333 -37.333 135 -56 239 -56h25v-177zM818.998 470.002c0 23.333 -36.667 35 -110 35c-117.333 0 -176 -13.667 -176 -41c0 -28 53 -78.333 159 -151
c84.667 64.667 127 117 127 157z" />
    <glyph glyph-name="afii57433.init" unicode="&#x639;" horiz-adv-x="830" arabic-form="initial" 
d="M829 1l-899 0.000976562v177h205c-30 56 -45 122 -45 198c0 42 8.66699 81 26 117s41.166 67.5 71.499 94.5s66.333 48.167 108 63.5s86.834 23 135.501 23c116.667 0 236.667 -39 360 -117l-73 -116c-96 54 -182.667 81 -260 81c-26 0 -51 -3.83301 -75 -11.5
s-45 -18.334 -63 -32.001s-32.5 -29.5 -43.5 -47.5s-16.5 -37.333 -16.5 -58c0 -130 75.667 -195 227 -195h342v-177z" />
    <glyph glyph-name="afii57433.medi" unicode="&#x639;" horiz-adv-x="745" arabic-form="medial" 
d="M745 1l-45.998 0.00195312c-25.333 0 -52.833 3.5 -82.5 10.5s-59.167 16.5 -88.5 28.5s-57.666 26.167 -84.999 42.5s-51 33.5 -71 51.5c-94.667 -88.667 -189.334 -133 -284.001 -133h-158v177h104c100.667 0 171.667 15 213 45
c-2.66699 2 -10.834 9.16699 -24.501 21.5l-44.5 41l-46 42.5c-14.667 13.333 -24.667 22.666 -30 27.999c-63.333 60 -95 110 -95 150c0 49.333 51 87.666 153 114.999c70.667 18 140.667 27 210 27c168 0 252 -60 252 -180c0 -68.667 -46.667 -146.667 -140 -234
c53.333 -37.333 137.666 -56 252.999 -56h10v-177zM484.002 477.002c0 22.667 -37.333 33.998 -112 33.998c-21.333 0 -43 -1.33301 -65 -4s-41.667 -6.16699 -59 -10.5s-31.5 -9.5 -42.5 -15.5s-16.5 -12.333 -16.5 -19c0 -5.33301 5.33301 -14.166 16 -26.499
s24.167 -25.666 40.5 -39.999s34.333 -29 54 -44s38.167 -27.833 55.5 -38.5c86 72 129 126.667 129 164z" />
    <glyph glyph-name="afii57434.fina" unicode="&#x63a;" horiz-adv-x="1076" arabic-form="final" 
d="M758 813h-159v157h159v-157zM1076 1l-60.002 0.00195312c-115.333 0 -222.666 47.333 -321.999 142c-56 -29.333 -103.167 -55.333 -141.5 -78s-68.166 -42.334 -89.499 -59.001c-106 -82 -159 -169.333 -159 -262c0 -46.667 10 -88.5 30 -125.5s48 -68.333 84 -94
s79.167 -45.334 129.5 -59.001s106.166 -20.5 167.499 -20.5c118 0 224.667 17 320 51l44 -136c-134 -52 -271 -78 -411 -78c-73.333 0 -141.333 10.833 -204 32.5s-116.667 52.334 -162 92.001s-80.833 87 -106.5 142s-38.5 115.833 -38.5 182.5
c0 95.333 29 181.666 87 258.999c45.333 60 105 113.333 179 160l61 36.5l86 51.5l-22 21l-41.5 40l-42.5 41l-26 25c-58 54.667 -87 101.667 -87 141c0 49.333 51 87.666 153 114.999c70.667 18 141 27 211 27c38 0 72.167 -4.16699 102.5 -12.5s56.333 -20.666 78 -36.999
s38.334 -36.333 50.001 -60s17.5 -50.5 17.5 -80.5c0 -32 -19.333 -74.333 -58 -127c-33.333 -44.667 -64 -77 -92 -97c55.333 -37.333 135 -56 239 -56h24v-177zM818.998 470.002c0 23.333 -36.667 35 -110 35c-117.333 0 -176 -13.667 -176 -41c0 -28 53 -78.333 159 -151
c84.667 64.667 127 117 127 157z" />
    <glyph glyph-name="afii57434.init" unicode="&#x63a;" horiz-adv-x="834" arabic-form="initial" 
d="M489 867h-158v158h158v-158zM829 1l-899 0.000976562v177h205c-30 56 -45 122 -45 198c0 42 8.66699 81 26 117s41.166 67.5 71.499 94.5s66.333 48.167 108 63.5s86.834 23 135.501 23c116.667 0 236.667 -39 360 -117l-73 -116c-96 54 -182.667 81 -260 81
c-26 0 -51 -3.83301 -75 -11.5s-45 -18.334 -63 -32.001s-32.5 -29.5 -43.5 -47.5s-16.5 -37.333 -16.5 -58c0 -130 75.667 -195 227 -195h342v-177z" />
    <glyph glyph-name="afii57434.medi" unicode="&#x63a;" horiz-adv-x="745" arabic-form="medial" 
d="M423 813h-159v157h159v-157zM745 1l-45.998 0.00195312c-25.333 0 -52.833 3.5 -82.5 10.5s-59.167 16.5 -88.5 28.5s-57.666 26.167 -84.999 42.5s-51 33.5 -71 51.5c-94.667 -88.667 -189.334 -133 -284.001 -133h-158v177h104c100.667 0 171.667 15 213 45
c-2.66699 2 -10.834 9.16699 -24.501 21.5l-44.5 41l-46 42.5c-14.667 13.333 -24.667 22.666 -30 27.999c-63.333 60 -95 110 -95 150c0 49.333 51 87.666 153 114.999c70.667 18 140.667 27 210 27c168 0 252 -60 252 -180c0 -68.667 -46.667 -146.667 -140 -234
c53.333 -37.333 137.666 -56 252.999 -56h10v-177zM484.002 477.002c0 22.667 -37.333 33.998 -112 33.998c-21.333 0 -43 -1.33301 -65 -4s-41.667 -6.16699 -59 -10.5s-31.5 -9.5 -42.5 -15.5s-16.5 -12.333 -16.5 -19c0 -5.33301 5.33301 -14.166 16 -26.499
s24.167 -25.666 40.5 -39.999s34.333 -29 54 -44s38.167 -27.833 55.5 -38.5c86 72 129 126.667 129 164z" />
    <glyph glyph-name="afii57441.fina" unicode="&#x641;" horiz-adv-x="1875" arabic-form="final" 
d="M1552 803h-159v158h159v-158zM1875 1l-86.999 0.000976562c-38.667 0 -93 8.66699 -163 26c-76.667 19.333 -126.334 39.333 -149.001 60c-28.667 -20.667 -78.667 -40.334 -150 -59.001c-68 -18 -122 -27 -162 -27h-701c-98 0 -173.5 29 -226.5 87
s-79.5 136.333 -79.5 235v62h147v-48c0 -106 49.667 -159 149 -159h725c60 0 106 5.33301 138 16c-74.667 56.667 -112 133.667 -112 231c0 68 31.333 123.667 94 167c55.333 39.333 118.333 59 189 59c70 0 131.333 -22 184 -66c56 -46.667 84 -104 84 -172
c0 -92.667 -41.333 -165.667 -124 -219c22 -10.667 53 -16 93 -16h151v-177zM1607 396.001c0 30.667 -13.334 56.668 -40.001 78.001c-25.333 19.333 -53.666 29 -84.999 29c-33.333 0 -62.333 -8.33301 -87 -25c-28 -19.333 -42 -45 -42 -77c0 -34.667 11.5 -67 34.5 -97
s51.167 -51 84.5 -63c30.667 9.33301 59.667 27.666 87 54.999c32 32 48 65.333 48 100z" />
    <glyph glyph-name="afii57441.init" unicode="&#x641;" horiz-adv-x="635" arabic-form="initial" 
d="M382 949h-158v157h158v-157zM631 349c0 -105.333 -26.667 -188.666 -80 -249.999c-56 -65.333 -136 -98 -240 -98h-381v177h395c92.667 0 144.667 40 156 120h-143c-77.333 0 -139.333 21 -186 63c-48.667 42.667 -73.667 102 -75 178
c-1.33301 61.333 17.667 117.666 57 168.999c41.333 54.667 92 82 152 82c108 0 194.667 -48 260 -144c56.667 -84.667 85 -183.667 85 -297zM477 460c-50 118.667 -111 178 -183 178c-28 0 -51.167 -9.66699 -69.5 -29s-27.5 -43 -27.5 -71c0 -52 40.667 -78 122 -78h158z
" />
    <glyph glyph-name="afii57441.medi" unicode="&#x641;" horiz-adv-x="748" arabic-form="medial" 
d="M428 803h-158v158h158v-158zM748 1l-84.999 -0.000976562c-62.667 0 -127 10 -193 30c-57.333 17.333 -97 36 -119 56c-27.333 -20 -69.333 -38.667 -126 -56c-64.667 -20 -126.667 -30 -186 -30h-109v177h124c59.333 0 105.666 5.33301 138.999 16
c-75.333 56.667 -113 133.334 -113 230.001c0 68.667 31 124.667 93 168c54.667 38.667 118 58 190 58c70 0 131.333 -22 184 -66c56 -46 84 -103 84 -171c0 -91.333 -41.333 -164.333 -124 -219c21.333 -10.667 52 -16 92 -16h149v-177zM483.001 395.999
c0 31.333 -13 56.999 -39 76.999s-55 30 -87 30c-33.333 0 -62.333 -8.33301 -87 -25c-28 -19.333 -42 -45 -42 -77c0 -34 12 -66.5 36 -97.5s52.333 -51.833 85 -62.5c33.333 10.667 63.333 30.334 90 59.001c29.333 31.333 44 63.333 44 96z" />
    <glyph glyph-name="afii57442.fina" unicode="&#x642;" horiz-adv-x="1436" arabic-form="final" 
d="M1173 663h-158v158h158v-158zM957 663h-158v158h158v-158zM1436 1l-146 0.000976562c-14.667 -152 -85.667 -274 -213 -366c-117.333 -84 -255 -126 -413 -126c-160 0 -283.667 39.333 -371 118c-90.667 82 -136 202 -136 360c0 81.333 12.667 163.666 38 246.999
l139 -29c-18.667 -81.333 -28 -147 -28 -197c0 -101.333 28.833 -181 86.5 -239s137.167 -87 238.5 -87c124 0 232.333 22.667 325 68c119.333 57.333 179 141.666 179 252.999h-145c-86.667 0 -154 23.667 -202 71s-72 114.333 -72 201c0 62.667 20 118.334 60 167.001
c42.667 52 94.667 78 156 78c88 0 164.667 -36.333 230 -109c58 -63.333 97.333 -141 118 -233h156v-177zM1137 177.001c-43.333 118.667 -105.001 177.999 -185.001 177.999c-27.333 0 -50.166 -9.66699 -68.499 -29s-27.5 -42.666 -27.5 -69.999
c0 -52.667 40.333 -79 121 -79h160z" />
    <glyph glyph-name="afii57442.init" unicode="&#x642;" horiz-adv-x="635" arabic-form="initial" 
d="M511 945h-159v158h159v-158zM296 945h-159v158h159v-158zM631 349c0 -105.333 -26.667 -188.666 -80 -249.999c-56 -65.333 -136 -98 -240 -98h-381v177h395c92.667 0 144.667 40 156 120h-143c-77.333 0 -139.333 21 -186 63c-48.667 42.667 -73.667 102 -75 178
c-1.33301 61.333 17.667 117.666 57 168.999c41.333 54.667 92 82 152 82c108 0 194.667 -48 260 -144c56.667 -84.667 85 -183.667 85 -297zM477 460c-50 118.667 -111 178 -183 178c-28 0 -51.167 -9.66699 -69.5 -29s-27.5 -43 -27.5 -71c0 -52 40.667 -78 122 -78h158z
" />
    <glyph glyph-name="afii57442.medi" unicode="&#x642;" horiz-adv-x="749" arabic-form="medial" 
d="M548 782h-159v157h159v-157zM332 782h-159v157h159v-157zM749 1l-85.999 -0.000976562c-62.667 0 -127 10 -193 30c-57.333 17.333 -97 36 -119 56c-27.333 -20 -69.333 -38.667 -126 -56c-64.667 -20 -126.667 -30 -186 -30h-109v177h124
c59.333 0 105.666 5.33301 138.999 16c-75.333 56.667 -113 133.334 -113 230.001c0 68.667 31 124.667 93 168c54.667 38.667 118 58 190 58c70 0 131.333 -22 184 -66c56 -46 84 -103 84 -171c0 -91.333 -41.333 -164.333 -124 -219c21.333 -10.667 52 -16 92 -16h150
v-177zM483.001 395.999c0 31.333 -13 56.999 -39 76.999s-55 30 -87 30c-33.333 0 -62.333 -8.33301 -87 -25c-28 -19.333 -42 -45 -42 -77c0 -34 12 -66.5 36 -97.5s52.333 -51.833 85 -62.5c33.333 10.667 63.333 30.334 90 59.001c29.333 31.333 44 63.333 44 96z" />
    <glyph glyph-name="afii57443.fina" unicode="&#x643;" horiz-adv-x="1722" arabic-form="final" 
d="M1426 384c17.333 -79.333 55.334 -136.331 114.001 -170.998c39.333 -23.333 93 -35 161 -35h21v-177h-46c-48.667 0 -100 13.667 -154 41s-94.667 60.666 -122 99.999c-42 -94 -136.333 -141 -283 -141h-639c-94.667 0 -171.334 26.667 -230.001 80
c-60.667 55.333 -91 129.666 -91 222.999v75h145v-40c0 -107.333 55 -161 165 -161h660c92.667 0 139 26.667 139 80c0 29.333 -13.333 329.333 -40 900h169zM1014 679.002l-463.999 -153l-28 74l165 55c-32.667 30.667 -49 73 -49 127c0 44.667 22.667 80 68 106
c37.333 21.333 80 32 128 32c19.333 0 39.666 -1.33301 60.999 -4v-69c-14.667 2 -29 3 -43 3c-86 0 -129 -26.667 -129 -80c0 -20 8.66699 -36.667 26 -50c15.333 -12.667 33.333 -19 54 -19c24 0 86 17.667 186 53z" />
    <glyph glyph-name="afii57444.fina" unicode="&#x644;" horiz-adv-x="1440" arabic-form="final" 
d="M1096 1158l28 -748.001c1.33301 -33.333 9.83301 -64.166 25.5 -92.499s36.334 -52.833 62.001 -73.5s54.667 -36.834 87 -48.501s66.166 -17.5 101.499 -17.5h40v-177h-60c-23.333 0 -47.5 3.5 -72.5 10.5s-48.833 16.5 -71.5 28.5s-43.167 25.833 -61.5 41.5
s-32.833 32.5 -43.5 50.5l5 -164c0 -126.667 -39 -235.334 -117 -326.001c-95.333 -111.333 -231 -167 -407 -167c-72 0 -136.167 10.333 -192.5 31s-104 50.834 -143 90.501s-68.667 87.834 -89 144.501s-30.5 121 -30.5 193c0 90 19 184 57 282l129 -38
c-31.333 -84.667 -47 -164 -47 -238c0 -46 7.66699 -87.167 23 -123.5s37 -67.333 65 -93s62.167 -45.167 102.5 -58.5s85.5 -20 135.5 -20s97 7.16699 141 21.5s82.5 34.5 115.5 60.5s59 57.333 78 94s28.5 77.667 28.5 123l-53 1214h164z" />
    <glyph glyph-name="afii57444.init" unicode="&#x644;" horiz-adv-x="341" arabic-form="initial" 
d="M312 1157l27 -881c0 -183.333 -103.667 -275 -311 -275h-98v177h101c32 0 58 2.16699 78 6.5s35.833 11.5 47.5 21.5s19.5 23.167 23.5 39.5s6 36.833 6 61.5l-27 850h153z" />
    <glyph glyph-name="afii57444.medi" unicode="&#x644;" horiz-adv-x="542" arabic-form="medial" 
d="M542 1h-29c-20.667 0 -42.167 3.16699 -64.5 9.5s-43.5 15.333 -63.5 27s-38.167 25.167 -54.5 40.5s-28.5 32 -36.5 50c-38.667 -84.667 -127.334 -127 -266.001 -127h-98v177h101c60.667 0 100.334 7.33301 119.001 22c24 18.667 36 58.667 36 120v837h153v-765
c0 -142.667 55.667 -214 167 -214h36v-177z" />
    <glyph glyph-name="afii57445.fina" unicode="&#x645;" horiz-adv-x="1247" arabic-form="final" 
d="M1247 1h-30.001c-74 0 -148.333 32.333 -223 97c-50 -67.333 -134 -101 -252 -101c-32.667 0 -81.667 5 -147 15s-114.333 15 -147 15c-90.667 0 -136 -55 -136 -165v-740h-155v771c0 88 24 159.667 72 215c50.667 58.667 119.334 88 206.001 88
c27.333 220.667 128 331 302 331c78.667 0 147.334 -25.333 206.001 -76c61.333 -52.667 93.333 -117.667 96 -195c20.667 -22 50.167 -40.5 88.5 -55.5s73.166 -22.5 104.499 -22.5h15v-177zM904.999 256c0 38 -19.667 70.333 -59 97c-35.333 23.333 -73 35 -113 35
c-94 0 -152 -64.333 -174 -193c76 -15.333 145 -23 207 -23c92.667 0 139 28 139 84z" />
    <glyph glyph-name="afii57445.init" unicode="&#x645;" horiz-adv-x="827" arabic-form="initial" 
d="M809 148c-46 -109.333 -119.332 -164 -219.999 -164c-58 0 -115.333 14.333 -172 43c-6.66699 3.33301 -54.667 32.666 -144 87.999c-70 -76 -148.333 -114 -235 -114h-108v177h115c51.333 0 93.666 21.333 126.999 64c8 10 33.333 56 76 138c62.667 120 140 180 232 180
c82.667 0 161 -34 235 -102s111 -143 111 -225c0 -29.333 -5.66699 -57.666 -17 -84.999zM684.001 232c0 42.667 -28.667 87.001 -86 133.001c-41.333 33.333 -80 50 -116 50c-24.667 0 -49 -15 -73 -45c-11.333 -14.667 -32 -49.334 -62 -104.001
c102.667 -79.333 180.667 -119 234 -119c26.667 0 50.5 7.66699 71.5 23s31.5 36 31.5 62z" />
    <glyph glyph-name="afii57445.medi" unicode="&#x645;" horiz-adv-x="1016" arabic-form="medial" 
d="M1016 1l-28.999 0.000976562c-34 0 -71 9 -111 27s-70.667 40 -92 66c-53.333 -73.333 -118.333 -110 -195 -110c-58 0 -115.333 14.333 -172 43c-6.66699 3.33301 -54.667 32.666 -144 87.999c-70 -76 -148.333 -114 -235 -114h-108v177h115
c51.333 0 93.666 21.333 126.999 64c8 10 33.333 56 76 138c62.667 120 140 180 232 180c82.667 0 159 -31.5 229 -94.5s108 -135.833 114 -218.5c53.333 -46 113.333 -69 180 -69h13v-177zM684.001 232.001c0 42.667 -28.667 87.001 -86 133.001
c-41.333 33.333 -80 50 -116 50c-24.667 0 -49 -15 -73 -45c-11.333 -14.667 -32 -49.334 -62 -104.001c102.667 -79.333 180.667 -119 234 -119c26.667 0 50.5 7.66699 71.5 23s31.5 36 31.5 62z" />
    <glyph glyph-name="afii57446.fina" unicode="&#x646;" horiz-adv-x="1513" arabic-form="final" 
d="M716 296h-158v158h158v-158zM1513 1l-34.001 -0.00195312c-67.333 0 -121.666 14 -162.999 42c0 -135.333 -19.333 -238.333 -58 -309c-50.667 -92.667 -129.334 -165.667 -236.001 -219c-98.667 -49.333 -204 -74 -316 -74c-180 0 -319.333 49 -418 147
c-86.667 86 -130 195 -130 327c0 119.333 26 234 78 344l129 -39c-38 -112 -57 -204.667 -57 -278c0 -121.333 47.333 -210.666 142 -267.999c68.667 -41.333 150.334 -62 245.001 -62c119.333 0 223 27 311 81c104 63.333 156 151 156 263c0 16.667 -2 36.334 -6 59.001
c-22 124 -74.333 256.667 -157 398l133 84c61.333 -127.333 113.333 -210.333 156 -249c50.667 -46.667 124.667 -70 222 -70h3v-177z" />
    <glyph glyph-name="afii57446.init" unicode="&#x646;" horiz-adv-x="400" arabic-form="initial" 
d="M276 726h-159v158h159v-158zM399 252c0 -63.333 -19.333 -118.334 -58 -165.001c-48 -57.333 -116.667 -86 -206 -86h-205v177h202c74.667 0 112 27.333 112 82c0 22.667 -8 48.334 -24 77.001l-92 163l129 91c52.667 -95.333 84.667 -155.333 96 -180
c30.667 -66 46 -119 46 -159z" />
    <glyph glyph-name="afii57446.medi" unicode="&#x646;" horiz-adv-x="538" arabic-form="medial" 
d="M337 726h-159v158h159v-158zM538 1l-25 -0.000976562c-104 0 -178.333 38 -223 114c-46 -76 -115 -114 -207 -114h-153v177h113c62 0 101.333 13 118 39c11.333 18 17 58.667 17 122v212h154v-164c0 -85.333 15.667 -142.666 47 -171.999c26 -24 73.667 -36 143 -36h16
v-178z" />
    <glyph glyph-name="afii57470.isol" unicode="&#x647;" horiz-adv-x="871" arabic-form="isolated" 
d="M869 275c0 -94.667 -39 -166.333 -117 -215c-63.333 -39.333 -141 -59 -233 -59c-117.333 0 -207 31.167 -269 93.5s-93 151.5 -93 267.5c0 78.667 19 147.667 57 207c44 68 103.333 102 178 102c92 0 192.333 -40.333 301 -121c117.333 -87.333 176 -179 176 -275z
M725 281.001c0 47.333 -44.333 100.333 -133 159c-82 54.667 -144.667 82 -188 82c-34 0 -60.667 -20.333 -80 -61c-15.333 -32.667 -23 -68 -23 -106c0 -58.667 21 -103.667 63 -135c37.333 -28 86.333 -42 147 -42c142.667 0 214 34.333 214 103z" />
    <glyph glyph-name="afii57470.fina" unicode="&#x647;" horiz-adv-x="1079" arabic-form="final" 
d="M1079 1l-45.002 0.000976562c-140.667 0 -244 56.333 -310 169c-69.333 -20 -150.666 -30 -243.999 -30c-215.333 0 -323 87.667 -323 263c0 64 48 130.667 144 200c16.667 12 82 51 196 117l-37 87l125 85l173 -469c31.333 -84.667 61.333 -142.334 90 -173.001
c44.667 -48 109.334 -72 194.001 -72h37v-177zM655.998 310.001l-109.999 275c-86 -42 -145 -75.333 -177 -100c-47.333 -36 -71 -73 -71 -111c0 -52 64 -78 192 -78c63.333 0 118.666 4.66699 165.999 14z" />
    <glyph glyph-name="afii57470.medi" unicode="&#x647;" horiz-adv-x="786" arabic-form="medial" 
d="M786 1h-23c-59.333 0 -115 -11.333 -167 -34c-68 -28.667 -102 -69 -102 -121c0 -51.333 73 -102 219 -152l-40 -135c-134.667 44.667 -234.667 91.667 -300 141c-108.667 82 -178.667 196.667 -210 344c-21.333 -28.667 -60 -43 -116 -43h-117v177h117
c43.333 0 72 16.333 86 49c8.66699 20 13 55.333 13 106v214h153v-345c0 -155.333 30.333 -256.333 91 -303c4 66 37.333 127 100 183c72 64 161.667 96 269 96h27v-177z" />
    <glyph glyph-name="afii57448.fina" unicode="&#x648;" horiz-adv-x="1115" arabic-form="final" 
d="M1115 1l-211.002 0.000976562c-56.667 -202.667 -298.667 -409 -726 -619l-78 134c350.667 166 568 328 652 486h-119c-87.333 0 -155.166 24 -203.499 72s-72.5 116 -72.5 204c0 64 23.667 118.667 71 164s103 68 167 68c64.667 0 126.334 -24 185.001 -72
c74 -60.667 118.333 -147.334 133 -260.001h202v-177zM762.998 175.001c-2 52 -23.999 96.334 -65.999 133.001c-35.333 31.333 -69 47 -101 47c-25.333 0 -49 -7.66699 -71 -23c-24 -16.667 -36 -37.334 -36 -62.001c0 -30 12 -54 36 -72
c21.333 -15.333 47.666 -23 78.999 -23h159z" />
    <glyph glyph-name="afii57450.fina" unicode="&#x64a;" horiz-adv-x="1447" arabic-form="final" 
d="M1447 1l-97.999 -0.000976562c36.667 -46.667 55 -93 55 -139c0 -86 -67.667 -171.333 -203 -256c-150 -94 -324 -141 -522 -141c-176.667 0 -311.334 52.333 -404.001 157c-78.667 88.667 -118 200.334 -118 335.001c0 111.333 11 198.333 33 261l131 -39
c-16 -70.667 -24 -128 -24 -172c0 -86.667 20.333 -160.667 61 -222c65.333 -98.667 175.333 -148 330 -148c94 0 188.667 14.333 284 43c110 33.333 193.333 79 250 137c15.333 15.333 23 30.333 23 45c0 24.667 -20.667 50 -62 76c-64 40 -202 73.667 -414 101l41 139h637
v-177zM877.001 -845.001h-159v158h159v-158zM661.001 -845.001h-158v158h158v-158z" />
    <glyph glyph-name=".notdef" horiz-adv-x="1024" 
d="M128 0v1240h768v-1240h-768zM256 128h512v984h-512v-984z" />
    <glyph glyph-name="space" unicode=" " horiz-adv-x="470" 
 />
    <glyph glyph-name="space" unicode="&#xa0;" horiz-adv-x="470" 
 />
    <glyph glyph-name="exclam" unicode="!" horiz-adv-x="353" 
d="M351 1158l-59 -853h-77l-53 853h189zM344 3h-181v174h181v-174z" />
    <glyph glyph-name="quotedbl" unicode="&#x22;" horiz-adv-x="801" 
d="M312 1239v-472h-145v472h145zM633 1239v-472h-144v472h144z" />
    <glyph glyph-name="numbersign" unicode="#" horiz-adv-x="1459" 
d="M890 736h-247l-72 -284h249zM762 1219l-88 -352h248l89 352h136l-87 -352h265v-131h-298l-70 -284h270v-130h-303l-88 -352h-136l87 352h-249l-88 -352h-136l88 352h-268v130h299l72 284h-274v131h307l87 352h137z" />
    <glyph glyph-name="dollar" unicode="$" 
d="M588 -286l-85.002 -0.000976562l-1 256c-59.333 1.33301 -118.666 8.33301 -177.999 21s-119.333 31.667 -180 57v153c58 -36 116.667 -63.167 176 -81.5s120.333 -27.833 183 -28.5v387c-125.333 20.667 -216.5 55.334 -273.5 104.001s-85.5 115.667 -85.5 201
c0 92 31 164.667 93 218s150.667 84 266 92v200h85v-198c52.667 -2 103.667 -7.33301 153 -16s97.666 -20.667 144.999 -36v-149c-47.333 24 -95.833 42.5 -145.5 55.5s-100.5 20.5 -152.5 22.5v-363c128.667 -20 223.334 -55.5 284.001 -106.5s91 -120.5 91 -208.5
c0 -96 -32.167 -171.667 -96.5 -227s-157.166 -87 -278.499 -95v-258zM502.998 623.999v349c-65.333 -7.33301 -115.333 -26 -150 -56s-52 -70 -52 -120c0 -48.667 16 -86.667 48 -114s83.333 -47 154 -59zM587.998 460.999v-368c72 10 126.333 30.5 163 61.5
s55 72.167 55 123.5c0 49.333 -17.5 88.833 -52.5 118.5s-90.167 51.167 -165.5 64.5z" />
    <glyph glyph-name="percent" unicode="%" horiz-adv-x="1654" 
d="M1266 528c-49.333 0 -88 -20.833 -116 -62.5s-42 -100.167 -42 -175.5c0 -73.333 14 -131.166 42 -173.499s66.667 -63.5 116 -63.5c48 0 86 21.167 114 63.5s42 100.166 42 173.499c0 74.667 -14 133 -42 175s-66 63 -114 63zM1266 636
c89.333 0 160.333 -31.167 213 -93.5s79 -146.5 79 -252.5s-26.5 -190 -79.5 -252s-123.833 -93 -212.5 -93c-90.667 0 -162.334 31 -215.001 93s-79 146 -79 252c0 106.667 26.333 191 79 253s124.334 93 215.001 93zM388 1154c-48.667 0 -87 -21.167 -115 -63.5
s-42 -100.166 -42 -173.499c0 -74.667 13.833 -133 41.5 -175s66.167 -63 115.5 -63s88.166 21 116.499 63s42.5 100.333 42.5 175c0 73.333 -14.167 131.166 -42.5 173.499s-67.166 63.5 -116.499 63.5zM1156 1262h136l-794 -1317h-136zM388 1262
c90 0 161.667 -30.999 215 -92.999s80 -146 80 -252c0 -107.333 -26.5 -191.833 -79.5 -253.5s-124.833 -92.5 -215.5 -92.5c-90 0 -161.167 31 -213.5 93s-78.5 146.333 -78.5 253c0 105.333 26.333 189.166 79 251.499s123.667 93.5 213 93.5z" />
    <glyph glyph-name="ampersand" unicode="&#x26;" horiz-adv-x="1357" 
d="M423 653c-51.333 -46 -89 -91.833 -113 -137.5s-36 -93.5 -36 -143.5c0 -82.667 30 -151.5 90 -206.5s135.333 -82.5 226 -82.5c54 0 104.5 9 151.5 27s91.167 45 132.5 81zM543 748l432.003 -442.002c33.333 50 59.333 103.833 78 161.5s29.667 118.834 33 183.501h158
c-6.66699 -74.667 -24.667 -148.667 -54 -222s-70.333 -145.666 -123 -216.999l237 -242h-214l-122 125c-58.667 -50.667 -120.334 -88.334 -185.001 -113.001s-134 -37 -208 -37c-136.667 0 -248.334 39 -335.001 117s-130 178 -130 300c0 72.667 19 140.834 57 204.501
s94.667 123.5 170 179.5c-26.667 36 -47.167 71.667 -61.5 107s-21.5 70 -21.5 104c0 92 31.5 165.833 94.5 221.5s146.5 83.5 250.5 83.5c47.333 0 94.333 -5.16699 141 -15.5s94 -25.5 142 -45.5v-155c-49.333 26.667 -96.333 47 -141 61s-86.334 21 -125.001 21
c-59.333 0 -107.5 -15.833 -144.5 -47.5s-55.5 -72.167 -55.5 -121.5c0 -29.333 8.33301 -58.5 25 -87.5s50.667 -70.167 102 -123.5z" />
    <glyph glyph-name="quotesingle" unicode="'" horiz-adv-x="479" 
d="M312 1239v-472h-145v472h145z" />
    <glyph glyph-name="parenleft" unicode="(" horiz-adv-x="585" 
d="M158 438c0 298 119.333 569.331 358 813.998l69 -68c-56 -58 -113.667 -147 -173 -267c-82.667 -167.333 -124 -325.666 -124 -474.999c0 -177.333 41.333 -345.666 124 -504.999c49.333 -94.667 107 -176.667 173 -246l-69 -69c-238.667 244.667 -358 516.667 -358 816z
" />
    <glyph glyph-name="parenright" unicode=")" horiz-adv-x="585" 
d="M585 433c0 -298 -119.333 -569.331 -358 -813.998l-69 68c56 58 113.667 147 173 267c82.667 167.333 124 325.666 124 474.999c0 177.333 -41.333 345.666 -124 504.999c-49.333 94.667 -107 176.667 -173 246l69 69c238.667 -244.667 358 -516.667 358 -816z" />
    <glyph glyph-name="asterisk" unicode="*" horiz-adv-x="1118" 
d="M1007 797l-65 -110l-327 217l7 -364h-125l6 364l-325 -218l-66 110l354 207l-354 207l66 110l326 -219l-7 365h125l-8 -365l328 218l65 -110l-354 -205z" />
    <glyph glyph-name="plus" unicode="+" horiz-adv-x="887" 
d="M778 301h-287v-300h-99v300h-301v104h301v298h99v-298h287v-104z" />
    <glyph glyph-name="comma" unicode="," horiz-adv-x="357" 
d="M142 -180c76.667 14 115 75 115 183h-109v184h191v-104c0 -186.667 -65.667 -285.667 -197 -297v34z" />
    <glyph glyph-name="hyphen" unicode="-" horiz-adv-x="887" 
d="M698 301h-517v104h517v-104z" />
    <glyph glyph-name="period" unicode="." horiz-adv-x="337" 
d="M336 1h-179v177h179v-177z" />
    <glyph glyph-name="slash" unicode="/" horiz-adv-x="586" 
d="M442 1239h144l-442 -1431h-144z" />
    <glyph glyph-name="zero" unicode="0" 
d="M553 1126c-88 0 -154.333 -43.5 -199 -130.5s-67 -217.833 -67 -392.5c0 -174 22.333 -304.5 67 -391.5s111 -130.5 199 -130.5c89.333 0 156.166 43.5 200.499 130.5s66.5 217.5 66.5 391.5c0 174.667 -22.167 305.5 -66.5 392.5s-111.166 130.5 -200.499 130.5z
M553 1262c142.667 0 251.5 -56.167 326.5 -168.5s112.5 -275.833 112.5 -490.5c0 -213.333 -37.5 -376.333 -112.5 -489s-183.833 -169 -326.5 -169c-142 0 -250.5 56.333 -325.5 169s-112.5 275.667 -112.5 489c0 214.667 37.5 378.167 112.5 490.5
s183.5 168.5 325.5 168.5z" />
    <glyph glyph-name="one" unicode="1" 
d="M216 114h280v969l-305 -62v157l304 61h171v-1125h281v-144h-731v144z" />
    <glyph glyph-name="two" unicode="2" 
d="M334 114l598.999 0.00292969v-144h-806v144l267 272c112.667 113.333 183.334 186.666 212.001 219.999c54.667 61.333 93 113.5 115 156.5s33 85.167 33 126.5c0 67.333 -23.667 122.166 -71 164.499s-109 63.5 -185 63.5c-54 0 -110.833 -9.33301 -170.5 -28
s-123.5 -47 -191.5 -85v174c69.333 27.333 134 48.166 194 62.499s115 21.5 165 21.5c131.333 0 236 -32.833 314 -98.5s117 -153.5 117 -263.5c0 -52 -9.66699 -101.5 -29 -148.5s-55 -102.167 -107 -165.5c-14 -16 -59 -63.333 -135 -142z" />
    <glyph glyph-name="three" unicode="3" 
d="M706 654c82.667 -17.333 146.998 -53.832 192.998 -109.499s69 -124.167 69 -205.5c0 -125.333 -43 -222.333 -129 -291s-208.333 -103 -367 -103c-53.333 0 -108.166 5.33301 -164.499 16s-114.5 26.334 -174.5 47.001v166c47.333 -28 99.333 -49 156 -63
s116 -21 178 -21c107.333 0 189.166 21.167 245.499 63.5s84.5 104.166 84.5 185.499c0 74.667 -26.167 133.167 -78.5 175.5s-125.166 63.5 -218.499 63.5h-148v141h155c84 0 148.5 16.833 193.5 50.5s67.5 82.167 67.5 145.5c0 65.333 -23.167 115.333 -69.5 150
s-112.5 52 -198.5 52c-47.333 0 -97.833 -5 -151.5 -15s-112.834 -25.667 -177.501 -47v153c65.333 18 126.333 31.5 183 40.5s110.334 13.5 161.001 13.5c130.667 0 233.834 -29.667 309.501 -89s113.5 -139.333 113.5 -240c0 -70 -20 -129.333 -60 -178
s-97.333 -82.334 -172 -101.001z" />
    <glyph glyph-name="four" unicode="4" 
d="M658 1089l-434 -677h434v677zM613 1239h216v-827h181v-143h-181v-299h-171v299h-573v166z" />
    <glyph glyph-name="five" unicode="5" 
d="M188 1239l674.001 0.00195312v-144h-517v-312c24.667 8.66699 49.5 15.167 74.5 19.5s50.167 6.5 75.5 6.5c141.333 0 253.333 -38.833 336 -116.5s124 -182.834 124 -315.501c0 -136.667 -42.5 -242.834 -127.5 -318.501s-204.833 -113.5 -359.5 -113.5
c-53.333 0 -107.5 4.66699 -162.5 14s-112.167 23 -171.5 41v172c51.333 -27.333 104.166 -47.833 158.499 -61.5s111.833 -20.5 172.5 -20.5c98 0 175.667 25.833 233 77.5s86 121.5 86 209.5c0 88.667 -28.667 158.667 -86 210s-135 77 -233 77
c-46 0 -91.833 -5 -137.5 -15s-92.167 -25.667 -139.5 -47v637z" />
    <glyph glyph-name="six" unicode="6" 
d="M575 673c-77.333 0 -138.5 -26.333 -183.5 -79s-67.5 -125 -67.5 -217c0 -91.333 22.5 -163.5 67.5 -216.5s106.167 -79.5 183.5 -79.5c76.667 0 137.5 26.5 182.5 79.5s67.5 125.167 67.5 216.5c0 92 -22.5 164.333 -67.5 217s-105.833 79 -182.5 79zM915 1211v-155.999
c-42.667 20 -86 35.333 -130 46s-87.667 16 -131 16c-113.333 0 -199.833 -38.167 -259.5 -114.5s-93.834 -191.833 -102.501 -346.5c34 49.333 76.167 87.166 126.5 113.499s105.833 39.5 166.5 39.5c127.333 0 228 -38.667 302 -116s111 -182.666 111 -315.999
c0 -130 -38.5 -234.5 -115.5 -313.5s-179.5 -118.5 -307.5 -118.5c-147.333 0 -259.666 56.333 -336.999 169s-116 275.667 -116 489c0 200.667 47.5 360.667 142.5 480s222.833 179 383.5 179c42.667 0 86 -4.33301 130 -13s89.667 -21.334 137 -38.001z" />
    <glyph glyph-name="seven" unicode="7" 
d="M143 1239h816v-73l-461 -1196h-179l433 1125h-609v144z" />
    <glyph glyph-name="eight" unicode="8" 
d="M553 573c-81.333 0 -145.332 -21.832 -191.999 -65.499s-70 -103.834 -70 -180.501s23.333 -136.834 70 -180.501s110.667 -65.5 192 -65.5c82 0 146.5 22 193.5 66s70.5 104 70.5 180c0 76.667 -23.333 136.834 -70 180.501s-111.334 65.5 -194.001 65.5z
M382.001 646.001c-74 18 -131.5 52.167 -172.5 102.5s-61.5 111.833 -61.5 184.5c0 101.333 36.167 181.5 108.5 240.5s171.166 88.5 296.499 88.5c126.667 0 226 -29.5 298 -88.5s108 -139.167 108 -240.5c0 -72.667 -20.5 -134.167 -61.5 -184.5
s-98.167 -84.5 -171.5 -102.5c82.667 -19.333 147.167 -57 193.5 -113s69.5 -124.667 69.5 -206c0 -122.667 -37.667 -217 -113 -283s-183 -99 -323 -99s-247.5 33 -322.5 99s-112.5 160.333 -112.5 283c0 81.333 23.333 150 70 206s111.334 93.667 194.001 113z
M319.001 917.001c0 -66 20.5 -117.333 61.5 -154s98.5 -55 172.5 -55s131.833 18.333 173.5 55s62.5 88 62.5 154c0 65.333 -20.833 116.5 -62.5 153.5s-99.5 55.5 -173.5 55.5s-131.5 -18.5 -172.5 -55.5s-61.5 -88.167 -61.5 -153.5z" />
    <glyph glyph-name="nine" unicode="9" 
d="M191 -4l-0.000976562 156.999c43.333 -20.667 87 -36.334 131 -47.001s87.333 -16 130 -16c113.333 0 200 38 260 114s94 191.667 102 347c-32.667 -48.667 -74.167 -86 -124.5 -112s-106.166 -39 -167.499 -39c-127.333 0 -227.833 38.333 -301.5 115
s-110.5 181.667 -110.5 315c0 130.667 38.5 235.334 115.5 314.001s179.5 118 307.5 118c146.667 0 258.667 -56.167 336 -168.5s116 -275.833 116 -490.5c0 -200 -47.5 -359.667 -142.5 -479s-222.5 -179 -382.5 -179c-43.333 0 -87 4.33301 -131 13
s-90 21.334 -138 38.001zM532.999 533.999c77.333 0 138.5 26.333 183.5 79s67.5 125 67.5 217c0 91.333 -22.5 163.5 -67.5 216.5s-106.167 79.5 -183.5 79.5s-138.5 -26.5 -183.5 -79.5s-67.5 -125.167 -67.5 -216.5c0 -92 22.5 -164.333 67.5 -217s106.167 -79 183.5 -79
z" />
    <glyph glyph-name="colon" unicode=":" horiz-adv-x="337" 
d="M336 436h-179v177h179v-177zM336 1h-179v177h179v-177z" />
    <glyph glyph-name="semicolon" unicode=";" horiz-adv-x="358" 
d="M147 -105c76.667 14 115 75 115 183h-109v184h191v-104c0 -186.667 -65.667 -285.667 -197 -297v34zM156 615h180v-177h-180v177z" />
    <glyph glyph-name="less" unicode="&#x3c;" horiz-adv-x="1015" 
d="M887 586l-611 -217l611 -217v-107l-758 275v98l758 275v-107z" />
    <glyph glyph-name="equal" unicode="=" horiz-adv-x="887" 
d="M778 419h-687v104h687v-104zM778 183h-687v104h687v-104z" />
    <glyph glyph-name="greater" unicode="&#x3e;" horiz-adv-x="1015" 
d="M129 586v107l758 -275v-98l-758 -275v107l609 217z" />
    <glyph glyph-name="question" unicode="?" horiz-adv-x="924" 
d="M332 186h173v-216h-173v216zM500 311h-163v131c0 57.333 8 104.333 24 141s49.667 79.334 101 128.001l76 76c32 30 55.333 58.333 70 85s22 53.667 22 81c0 50.667 -18.667 91.667 -56 123s-86.333 47 -147 47c-44.667 0 -92.5 -10 -143.5 -30s-103.833 -49 -158.5 -87
v160c53.333 32 107.333 56 162 72s111 24 169 24c104.667 0 188.5 -27.5 251.5 -82.5s94.5 -127.5 94.5 -217.5c0 -43.333 -10.167 -84.333 -30.5 -123s-55.833 -82.334 -106.5 -131.001l-75 -73c-26.667 -26.667 -45.5 -47.5 -56.5 -62.5s-18.833 -29.833 -23.5 -44.5
c-3.33301 -11.333 -5.83301 -25.5 -7.5 -42.5s-2.5 -40.5 -2.5 -70.5v-104z" />
    <glyph glyph-name="at" unicode="@" horiz-adv-x="1741" 
d="M648 426c0 -80.667 20 -144.167 60 -190.5s95.333 -69.5 166 -69.5c69.333 0 124 23.333 164 70s60 110 60 190c0 79.333 -20.333 142.5 -61 189.5s-95.667 70.5 -165 70.5c-68.667 0 -123.167 -23.333 -163.5 -70s-60.5 -110 -60.5 -190zM1111 172
c-34 -43.333 -72.9971 -75.332 -116.997 -95.999s-95 -31 -153 -31c-98 0 -177.333 35.167 -238 105.5s-91 162.166 -91 275.499s30.5 205.5 91.5 276.5s140.167 106.5 237.5 106.5c58 0 109.167 -10.667 153.5 -32s83.166 -53.333 116.499 -96v111h121v-626
c83.333 12.667 148.333 50.667 195 114s70 145 70 245c0 60.667 -9 117.667 -27 171s-45 102.666 -81 147.999c-59.333 74 -131.333 130.667 -216 170s-176.667 59 -276 59c-70 0 -137 -9.16699 -201 -27.5s-123.333 -45.5 -178 -81.5
c-88.667 -58 -158 -133.833 -208 -227.5s-75 -195.167 -75 -304.5c0 -90.667 16.167 -175.334 48.5 -254.001s79.5 -148 141.5 -208c59.333 -58.667 128.166 -103.5 206.499 -134.5s161.833 -46.5 250.5 -46.5c73.333 0 145.333 12.333 216 37s135.334 60 194.001 106
l76 -95c-70.667 -54.667 -147.834 -96.667 -231.501 -126s-168.5 -44 -254.5 -44c-104.667 0 -203.5 18.667 -296.5 56s-175.833 91.333 -248.5 162c-72 70.667 -127 152.667 -165 246s-57 193.666 -57 300.999c0 102.667 19.167 200.834 57.5 294.501
s93.166 175.834 164.499 246.501c73.333 72 157.833 127.167 253.5 165.5s197.167 57.5 304.5 57.5c120 0 231.5 -24.667 334.5 -74s189.167 -119.333 258.5 -210c42.667 -56 75.167 -116.5 97.5 -181.5s33.5 -132.5 33.5 -202.5c0 -148.667 -45 -266.167 -135 -352.5
s-214.333 -131.166 -373 -134.499v131z" />
    <glyph glyph-name="A" unicode="A" horiz-adv-x="1191" 
d="M595 1070l-233 -632h467zM498 1239h195l483 -1269h-178l-116 326h-572l-115 -326h-181z" />
    <glyph glyph-name="B" unicode="B" horiz-adv-x="1194" 
d="M343 576v-465h275c92 0 160.333 19.167 205 57.5s67 96.833 67 175.5c0 79.333 -22.333 137.833 -67 175.5s-113 56.5 -205 56.5h-275zM343 1098v-383.001h254c83.333 0 145.666 15.833 186.999 47.5s62 79.834 62 144.501c0 64 -20.667 111.833 -62 143.5
s-103.666 47.5 -186.999 47.5h-254zM171 1239h437.999c131.333 0 232.333 -27.167 303 -81.5s106 -131.833 106 -232.5c0 -77.333 -18.167 -139 -54.5 -185s-89.5 -74.667 -159.5 -86c84.667 -18 150.334 -55.833 197.001 -113.5s70 -129.5 70 -215.5
c0 -113.333 -38.5 -200.833 -115.5 -262.5s-186.833 -92.5 -329.5 -92.5h-455v1269z" />
    <glyph glyph-name="C" unicode="C" horiz-adv-x="1215" 
d="M1121 1141v-180.999c-58 54 -119.667 94.333 -185 121s-134.666 40 -207.999 40c-145.333 0 -256.5 -44.333 -333.5 -133s-115.5 -217 -115.5 -385c0 -167.333 38.5 -295.333 115.5 -384s188.167 -133 333.5 -133c73.333 0 142.666 13.333 207.999 40s127 67 185 121
v-179c-60 -40.667 -123.5 -71.334 -190.5 -92.001s-138.167 -31 -213.5 -31c-192 0 -343.167 58.833 -453.5 176.5s-165.5 278.167 -165.5 481.5c0 204 55.167 364.833 165.5 482.5s261.5 176.5 453.5 176.5c76 0 147.667 -10 215 -30s130.333 -50.333 189 -91z" />
    <glyph glyph-name="D" unicode="D" horiz-adv-x="1340" 
d="M343 1098v-986.999h207c175.333 0 303.666 39.667 384.999 119s122 204.666 122 375.999c0 170 -40.667 294.5 -122 373.5s-209.666 118.5 -384.999 118.5h-207zM171 1239h353.002c245.333 0 425.666 -51.167 540.999 -153.5s173 -262.166 173 -479.499
c0 -218.667 -57.833 -379.334 -173.5 -482.001s-295.834 -154 -540.501 -154h-353v1269z" />
    <glyph glyph-name="E" unicode="E" horiz-adv-x="1100" 
d="M171 1239h802v-144h-630v-376h604v-145h-604v-460h646v-144h-818v1269z" />
    <glyph glyph-name="F" unicode="F" horiz-adv-x="1001" 
d="M171 1239h729v-144h-557v-374h503v-145h-503v-606h-172v1269z" />
    <glyph glyph-name="G" unicode="G" horiz-adv-x="1349" 
d="M1036 151l-0.00488281 341.001h-280v141h450v-545c-66 -46.667 -139 -82.167 -219 -106.5s-165.333 -36.5 -256 -36.5c-198.667 0 -353.834 58 -465.501 174s-167.5 277.333 -167.5 484c0 207.333 55.833 369 167.5 485s266.834 174 465.501 174
c82.667 0 161.334 -10.167 236.001 -30.5s143.334 -50.5 206.001 -90.5v-182c-63.333 53.333 -130.666 93.666 -201.999 120.999s-146.666 41 -225.999 41c-154.667 0 -271 -43.333 -349 -130s-117 -216 -117 -388c0 -170.667 39 -299.5 117 -386.5
s194.333 -130.5 349 -130.5c60.667 0 114.834 5.33301 162.501 16s90.5 27 128.5 49z" />
    <glyph glyph-name="H" unicode="H" horiz-adv-x="1309" 
d="M171 1239h172v-520h623v520h172v-1269h-172v604h-623v-604h-172v1269z" />
    <glyph glyph-name="I" unicode="I" horiz-adv-x="513" 
d="M171 1239h172v-1269h-172v1269z" />
    <glyph glyph-name="J" unicode="J" horiz-adv-x="513" 
d="M171 1239h172v-1181c0 -152.667 -29.167 -263.667 -87.5 -333s-151.833 -104 -280.5 -104h-65v145h53c76 0 129.667 21.167 161 63.5s47 118.5 47 228.5v1181z" />
    <glyph glyph-name="K" unicode="K" horiz-adv-x="1142" 
d="M171 1239h172v-536l569 536h221l-630 -592l675 -677h-226l-609 611v-611h-172v1269z" />
    <glyph glyph-name="L" unicode="L" horiz-adv-x="970" 
d="M171 1239h172v-1125h617v-144h-789v1269z" />
    <glyph glyph-name="M" unicode="M" horiz-adv-x="1502" 
d="M171 1239h256l324 -864l325 864h256v-1269h-168v1114l-327 -870h-172l-328 870v-1114h-166v1269z" />
    <glyph glyph-name="N" unicode="N" horiz-adv-x="1302" 
d="M171 1239h231l563 -1062v1062h166v-1269h-231l-563 1062v-1062h-166v1269z" />
    <glyph glyph-name="O" unicode="O" horiz-adv-x="1370" 
d="M686 1123c-124.667 0 -223.667 -46.5 -297 -139.5s-110 -219.833 -110 -380.5c0 -159.333 36.667 -285.5 110 -378.5s172.333 -139.5 297 -139.5s223.334 46.5 296.001 139.5s109 219.167 109 378.5c0 160.667 -36.333 287.5 -109 380.5s-171.334 139.5 -296.001 139.5z
M686 1262c178 0 320.167 -59.667 426.5 -179s159.5 -279.333 159.5 -480c0 -200 -53.167 -359.667 -159.5 -479s-248.5 -179 -426.5 -179c-178.667 0 -321.334 59.5 -428.001 178.5s-160 278.833 -160 479.5s53.333 360.667 160 480s249.334 179 428.001 179z" />
    <glyph glyph-name="P" unicode="P" horiz-adv-x="1050" 
d="M343 1098v-477h215c80 0 141.833 20.667 185.5 62s65.5 100.333 65.5 177c0 76 -21.833 134.667 -65.5 176s-105.5 62 -185.5 62h-215zM171 1239h387c142.667 0 250.334 -32.167 323.001 -96.5s109 -158.5 109 -282.5c0 -125.333 -36.333 -220 -109 -284
s-180.334 -96 -323.001 -96h-215v-510h-172v1269z" />
    <glyph glyph-name="Q" unicode="Q" horiz-adv-x="1370" 
d="M686 1123c-124.667 0 -223.667 -46.5 -297 -139.5s-110 -219.833 -110 -380.5c0 -159.333 36.667 -285.5 110 -378.5s172.333 -139.5 297 -139.5s223.334 46.5 296.001 139.5s109 219.167 109 378.5c0 160.667 -36.333 287.5 -109 380.5s-171.334 139.5 -296.001 139.5z
M926 -7l227 -247h-208l-188 203l-42.5 -3c-9.66699 -0.666992 -19.167 -1 -28.5 -1c-178.667 0 -321.334 59.667 -428.001 179s-160 279 -160 479c0 200.667 53.333 360.667 160 480s249.334 179 428.001 179c178 0 320.167 -59.667 426.5 -179s159.5 -279.333 159.5 -480
c0 -147.333 -29.5 -273.333 -88.5 -378s-144.833 -182 -257.5 -232z" />
    <glyph glyph-name="R" unicode="R" horiz-adv-x="1210" 
d="M773 565c36.667 -12.667 72.334 -39.333 107.001 -80s69.667 -96.667 105 -168l174 -347h-184l-162 326c-42 84.667 -82.667 140.834 -122 168.501s-93 41.5 -161 41.5h-187v-536h-172v1269h387c145.333 0 253.666 -30.333 324.999 -91s107 -152 107 -274
c0 -80 -18.5 -146.333 -55.5 -199s-90.833 -89.334 -161.5 -110.001zM343 1098v-451h215c83.333 0 146 19.167 188 57.5s63 94.833 63 169.5c0 74 -21 129.833 -63 167.5s-104.667 56.5 -188 56.5h-215z" />
    <glyph glyph-name="S" unicode="S" horiz-adv-x="1105" 
d="M932 1197l-0.00195312 -167.001c-65.333 31.333 -127 54.666 -185 69.999s-113.667 23 -167 23c-94 0 -166.333 -18.167 -217 -54.5s-76 -88.166 -76 -155.499c0 -56 16.833 -98.333 50.5 -127s97.834 -51.667 192.501 -69l103 -21c128 -24.667 222.5 -67.667 283.5 -129
s91.5 -143.666 91.5 -246.999c0 -122.667 -41.167 -215.834 -123.5 -279.501s-203.166 -95.5 -362.499 -95.5c-60 0 -123.833 6.83301 -191.5 20.5s-137.834 33.834 -210.501 60.501v177c69.333 -39.333 137.5 -68.833 204.5 -88.5s132.833 -29.5 197.5 -29.5
c98 0 173.667 19.167 227 57.5s80 93.166 80 164.499c0 62.667 -19.167 111.5 -57.5 146.5s-101.166 61.5 -188.499 79.5l-104 20c-128.667 25.333 -221.5 65.333 -278.5 120s-85.5 130.334 -85.5 227.001c0 112 39.5 200.333 118.5 265s187.833 97 326.5 97
c59.333 0 120 -5.33301 182 -16s125.333 -27 190 -49z" />
    <glyph glyph-name="T" unicode="T" horiz-adv-x="1063" 
d="M-5 1239h1073v-144h-450v-1125h-173v1125h-450v144z" />
    <glyph glyph-name="U" unicode="U" horiz-adv-x="1274" 
d="M151 1239h173v-771c0 -136 24.667 -233.833 74 -293.5s129 -89.5 239 -89.5s189.667 29.833 239 89.5s74 157.5 74 293.5v771h173v-792c0 -165.333 -41 -290.333 -123 -375s-203 -127 -363 -127s-281 42.333 -363 127s-123 209.667 -123 375v792z" />
    <glyph glyph-name="V" unicode="V" horiz-adv-x="1191" 
d="M498 -30l-484 1269h179l402 -1068l403 1068h178l-483 -1269h-195z" />
    <glyph glyph-name="W" unicode="W" horiz-adv-x="1721" 
d="M58 1239h173l267 -1073l266 1073h193l267 -1073l266 1073h174l-318 -1269h-216l-268 1102l-270 -1102h-216z" />
    <glyph glyph-name="X" unicode="X" horiz-adv-x="1193" 
d="M110 1239h184l315 -472l317 472h185l-408 -609l435 -660h-184l-357 540l-360 -540h-185l453 677z" />
    <glyph glyph-name="Y" unicode="Y" horiz-adv-x="1063" 
d="M-3 1239h184l352 -522l349 522h185l-449 -665v-604h-173v604z" />
    <glyph glyph-name="Z" unicode="Z" horiz-adv-x="1193" 
d="M98 1239h997v-131l-803 -994h822v-144h-1036v131l803 994h-783v144z" />
    <glyph glyph-name="bracketleft" unicode="[" horiz-adv-x="679" 
d="M150 1293h360v-122h-204v-1309h204v-122h-360v1553z" />
    <glyph glyph-name="backslash" unicode="\" horiz-adv-x="586" 
d="M144 1239l442 -1431h-144l-442 1431h144z" />
    <glyph glyph-name="bracketright" unicode="]" horiz-adv-x="679" 
d="M530 1293v-1553h-361v122h203v1309h-203v122h361z" />
    <glyph glyph-name="asciicircum" unicode="^" horiz-adv-x="1459" 
d="M813 1239l461 -473h-171l-374 335l-374 -335h-171l462 473h167z" />
    <glyph glyph-name="underscore" unicode="_" horiz-adv-x="870" 
d="M887 -319v-122h-904v122h904z" />
    <glyph glyph-name="grave" unicode="`" horiz-adv-x="870" 
d="M312 1362l240 -318h-130l-278 318h168z" />
    <glyph glyph-name="a" unicode="a" horiz-adv-x="1067" 
d="M597 449c-126.667 0 -214.334 -14.5 -263.001 -43.5s-73 -78.5 -73 -148.5c0 -55.333 18.333 -99.333 55 -132s86.334 -49 149.001 -49c86.667 0 156.167 30.833 208.5 92.5s78.5 143.5 78.5 245.5v35h-155zM909 513l-0.00390625 -543h-157v144
c-35.333 -57.333 -79.666 -99.833 -132.999 -127.5s-118.666 -41.5 -195.999 -41.5c-97.333 0 -174.666 27.333 -231.999 82s-86 128 -86 220c0 107.333 35.833 188.166 107.5 242.499s178.5 81.5 320.5 81.5h219v15c0 72 -23.667 127.667 -71 167s-113.666 59 -198.999 59
c-54.667 0 -107.667 -6.5 -159 -19.5s-101 -32.5 -149 -58.5v145c57.333 22 113 38.5 167 49.5s106.333 16.5 157 16.5c138 0 241 -35.667 309 -107s102 -179.666 102 -324.999z" />
    <glyph glyph-name="b" unicode="b" horiz-adv-x="1105" 
d="M847 445c0 115.333 -23.667 205.666 -71 270.999s-112.333 98 -195 98s-147.667 -32.667 -195 -98s-71 -155.666 -71 -270.999c0 -114.667 23.667 -204.834 71 -270.501s112.333 -98.5 195 -98.5s147.667 32.833 195 98.5s71 155.834 71 270.501zM315 777
c33.333 56.667 75 98.832 125 126.499s110 41.5 180 41.5c115.333 0 209.166 -45.833 281.499 -137.5s108.5 -212.5 108.5 -362.5c0 -149.333 -36.167 -270 -108.5 -362s-166.166 -138 -281.499 -138c-70 0 -130 13.833 -180 41.5s-91.667 69.834 -125 126.501v-143h-157
v1323h157v-516z" />
    <glyph glyph-name="c" unicode="c" horiz-adv-x="957" 
d="M849 885l-0.000976562 -146c-44 24.667 -88.333 43 -133 55s-89.667 18 -135 18c-101.333 0 -180 -32.167 -236 -96.5s-84 -154.5 -84 -270.5s28 -206.167 84 -270.5s134.667 -96.5 236 -96.5c45.333 0 90.333 6 135 18s89 30.333 133 55v-144
c-43.333 -20.667 -88.5 -36.167 -135.5 -46.5s-96.833 -15.5 -149.5 -15.5c-143.333 0 -257.166 45.167 -341.499 135.5s-126.5 211.833 -126.5 364.5c0 155.333 42.667 277.5 128 366.5s202.333 133.5 351 133.5c48 0 95 -5 141 -15s90.333 -25 133 -45z" />
    <glyph glyph-name="d" unicode="d" horiz-adv-x="1105" 
d="M790 777v516.002h157v-1323h-157v143c-32.667 -56.667 -74 -98.834 -124 -126.501s-110.333 -41.5 -181 -41.5c-114.667 0 -208.167 46 -280.5 138s-108.5 212.667 -108.5 362c0 150 36.167 270.833 108.5 362.5s165.833 137.5 280.5 137.5
c70.667 0 131 -13.833 181 -41.5s91.333 -69.834 124 -126.501zM258 445.002c0 -114.667 23.5 -204.834 70.5 -270.501s112.167 -98.5 195.5 -98.5c82.667 0 147.667 32.833 195 98.5s71 155.834 71 270.501c0 115.333 -23.667 205.666 -71 270.999s-112.333 98 -195 98
c-83.333 0 -148.5 -32.667 -195.5 -98s-70.5 -155.666 -70.5 -270.999z" />
    <glyph glyph-name="e" unicode="e" horiz-adv-x="1071" 
d="M978 485l0.000976562 -76.001h-719c6.66699 -108 39.167 -190.167 97.5 -246.5s139.166 -84.5 242.499 -84.5c60 0 118.167 7.33301 174.5 22s112.5 36.667 168.5 66v-148c-56 -23.333 -113.5 -41.333 -172.5 -54s-118.833 -19 -179.5 -19
c-152 0 -272.333 44.333 -361 133s-133 208.334 -133 359.001c0 155.333 42 278.833 126 370.5s197.667 137.5 341 137.5c128 0 229.167 -41.167 303.5 -123.5s111.5 -194.5 111.5 -336.5zM822.001 530.999c-1.33301 85.333 -25.334 153.499 -72.001 204.499
s-108.667 76.5 -186 76.5c-87.333 0 -157.166 -24.667 -209.499 -74s-82.5 -118.666 -90.5 -207.999z" />
    <glyph glyph-name="f" unicode="f" horiz-adv-x="613" 
d="M646 1293v-130h-150c-56 0 -94.833 -11.333 -116.5 -34s-32.5 -63.667 -32.5 -123v-84h257v-122h-257v-830h-157v830h-150v122h150v66c0 106 24.5 183.333 73.5 232s127.167 73 234.5 73h148z" />
    <glyph glyph-name="g" unicode="g" horiz-adv-x="1105" 
d="M790 457c0 113.333 -23.333 201.166 -70 263.499s-112 93.5 -196 93.5s-149.333 -31.167 -196 -93.5s-70 -150.166 -70 -263.499c0 -112.667 23.333 -200.167 70 -262.5s112 -93.5 196 -93.5s149.333 31.167 196 93.5s70 149.833 70 262.5zM947 88
c0 -162 -36 -282.499 -108 -361.499s-182.333 -118.5 -331 -118.5c-54.667 0 -106.334 4.16699 -155.001 12.5s-96 20.833 -142 37.5v152c46 -24.667 91.333 -43 136 -55s90.334 -18 137.001 -18c102 0 178.5 26.833 229.5 80.5s76.5 134.5 76.5 242.5v77
c-32 -56 -73.167 -97.833 -123.5 -125.5s-110.833 -41.5 -181.5 -41.5c-116.667 0 -210.667 44.5 -282 133.5s-107 206.833 -107 353.5c0 147.333 35.667 265.5 107 354.5s165.333 133.5 282 133.5c70.667 0 131.167 -13.833 181.5 -41.5s91.5 -69.834 123.5 -126.501v145
h157v-834z" />
    <glyph glyph-name="h" unicode="h" horiz-adv-x="1103" 
d="M955 545v-575h-156v569c0 90.667 -17.5 158.334 -52.5 203.001s-87.833 67 -158.5 67c-84 0 -150.5 -27 -199.5 -81s-73.5 -127.333 -73.5 -220v-538h-157v1323h157v-519c37.333 57.333 81.5 100.166 132.5 128.499s109.5 42.5 175.5 42.5
c109.333 0 192 -33.833 248 -101.5s84 -167.167 84 -298.5z" />
    <glyph glyph-name="i" unicode="i" horiz-adv-x="484" 
d="M164 922h156v-952h-156v952zM164 1293h156v-198h-156v198z" />
    <glyph glyph-name="j" unicode="j" horiz-adv-x="484" 
d="M164 922l156 -0.00195312v-969c0 -121.333 -23 -209.166 -69 -263.499s-120.333 -81.5 -223 -81.5h-59v132h41c59.333 0 99.833 13.833 121.5 41.5s32.5 84.834 32.5 171.501v969zM164 1293h156v-198h-156v198z" />
    <glyph glyph-name="k" unicode="k" horiz-adv-x="1008" 
d="M158 1293h157v-782l467 411h200l-505 -445l526 -507h-204l-484 465v-465h-157v1323z" />
    <glyph glyph-name="l" unicode="l" horiz-adv-x="484" 
d="M164 1293h156v-1323h-156v1323z" />
    <glyph glyph-name="m" unicode="m" horiz-adv-x="1696" 
d="M905 739c39.333 70.667 86.167 122.667 140.5 156s118.5 50 192.5 50c98.667 0 175 -34.667 229 -104s81 -168 81 -296v-575h-157v569c0 91.333 -16.167 159.166 -48.5 203.499s-81.833 66.5 -148.5 66.5c-80.667 0 -144.5 -27 -191.5 -81s-70.5 -127.333 -70.5 -220
v-538h-158v569c0 92 -16.167 160 -48.5 204s-82.166 66 -149.499 66c-80 0 -143.5 -27 -190.5 -81s-70.5 -127.333 -70.5 -220v-538h-157v952h157v-148c36 58.667 78.833 101.834 128.5 129.501s108.834 41.5 177.501 41.5c69.333 0 128.166 -17.5 176.499 -52.5
s84.166 -86.167 107.499 -153.5z" />
    <glyph glyph-name="n" unicode="n" horiz-adv-x="1103" 
d="M955 545v-575h-156v569c0 90.667 -17.5 158.334 -52.5 203.001s-87.833 67 -158.5 67c-84 0 -150.5 -27 -199.5 -81s-73.5 -127.333 -73.5 -220v-538h-157v952h157v-148c37.333 57.333 81.5 100.166 132.5 128.499s109.5 42.5 175.5 42.5
c109.333 0 192 -33.833 248 -101.5s84 -167.167 84 -298.5z" />
    <glyph glyph-name="o" unicode="o" horiz-adv-x="1065" 
d="M533 812c-84 0 -150.333 -32.667 -199 -98s-73 -155 -73 -269s24.167 -203.667 72.5 -269s114.833 -98 199.5 -98c83.333 0 149.333 32.833 198 98.5s73 155.167 73 268.5c0 112.667 -24.333 202 -73 268s-114.667 99 -198 99zM533 945
c136 0 242.833 -44.167 320.5 -132.5s116.5 -210.833 116.5 -367.5c0 -156 -38.833 -278.333 -116.5 -367s-184.5 -133 -320.5 -133c-136.667 0 -243.667 44.333 -321 133s-116 211 -116 367c0 156.667 38.667 279.167 116 367.5s184.333 132.5 321 132.5z" />
    <glyph glyph-name="p" unicode="p" horiz-adv-x="1105" 
d="M315 113v-505.002h-157v1314h157v-145c33.333 56.667 75 98.834 125 126.501s110 41.5 180 41.5c115.333 0 209.166 -45.833 281.499 -137.5s108.5 -212.5 108.5 -362.5c0 -149.333 -36.167 -270 -108.5 -362s-166.166 -138 -281.499 -138c-70 0 -130 13.833 -180 41.5
s-91.667 69.834 -125 126.501zM847 444.998c0 115.333 -23.667 205.666 -71 270.999s-112.333 98 -195 98s-147.667 -32.667 -195 -98s-71 -155.666 -71 -270.999c0 -114.667 23.667 -204.834 71 -270.501s112.333 -98.5 195 -98.5s147.667 32.833 195 98.5
s71 155.834 71 270.501z" />
    <glyph glyph-name="q" unicode="q" horiz-adv-x="1105" 
d="M258 445c0 -114.667 23.5 -204.834 70.5 -270.501s112.167 -98.5 195.5 -98.5c82.667 0 147.667 32.833 195 98.5s71 155.834 71 270.501c0 115.333 -23.667 205.666 -71 270.999s-112.333 98 -195 98c-83.333 0 -148.5 -32.667 -195.5 -98
s-70.5 -155.666 -70.5 -270.999zM790 113c-32.667 -56.667 -74 -98.832 -124 -126.499s-110.333 -41.5 -181 -41.5c-114.667 0 -208.167 46 -280.5 138s-108.5 212.667 -108.5 362c0 150 36.167 270.833 108.5 362.5s165.833 137.5 280.5 137.5
c70.667 0 131 -13.833 181 -41.5s91.333 -69.834 124 -126.501v145h157v-1314h-157v505z" />
    <glyph glyph-name="r" unicode="r" horiz-adv-x="716" 
d="M716 776c-18 10 -37.332 17.499 -57.999 22.499s-43.334 7.5 -68.001 7.5c-88.667 0 -156.667 -28.833 -204 -86.5s-71 -140.5 -71 -248.5v-501h-157v952h157v-148c33.333 58 76.333 101 129 129s116.667 42 192 42c10.667 0 22.5 -0.666992 35.5 -2
s27.5 -3.66602 43.5 -6.99902z" />
    <glyph glyph-name="s" unicode="s" horiz-adv-x="907" 
d="M771 894l-0.000976562 -147.997c-44 22.667 -89.833 39.667 -137.5 51s-97.167 17 -148.5 17c-77.333 0 -135.5 -11.833 -174.5 -35.5s-58.5 -59.5 -58.5 -107.5c0 -36 14 -64.333 42 -85s84 -40.334 168 -59.001l53 -12c111.333 -24 190.333 -57.667 237 -101
s70 -103.666 70 -180.999c0 -88.667 -35 -158.834 -105 -210.501s-166.333 -77.5 -289 -77.5c-50.667 0 -103.667 5 -159 15s-113.666 25 -174.999 45v161c58 -30 115 -52.5 171 -67.5s111.667 -22.5 167 -22.5c73.333 0 129.833 12.667 169.5 38s59.5 61 59.5 107
c0 42 -14.333 74.333 -43 97s-91.334 44.667 -188.001 66l-54 13c-97.333 20 -167.5 51.167 -210.5 93.5s-64.5 100.166 -64.5 173.499c0 90 31.833 159.333 95.5 208s153.834 73 270.501 73c57.333 0 111.5 -4.33301 162.5 -13s98.167 -21.334 141.5 -38.001z" />
    <glyph glyph-name="t" unicode="t" horiz-adv-x="683" 
d="M319 1192v-270h322v-122h-322v-516c0 -78 10.5 -128 31.5 -150s64.167 -33 129.5 -33h161v-131h-161c-120.667 0 -204 22.5 -250 67.5s-69 127.167 -69 246.5v516h-114v122h114v270h158z" />
    <glyph glyph-name="u" unicode="u" horiz-adv-x="1103" 
d="M148 346v576h156v-570c0 -90.667 17.667 -158.5 53 -203.5s88 -67.5 158 -67.5c84.667 0 151.5 27 200.5 81s73.5 127.333 73.5 220v540h156v-952h-156v146c-38 -58 -82.167 -101 -132.5 -129s-108.5 -42 -174.5 -42c-109.333 0 -192.333 34 -249 102
s-85 167.667 -85 299z" />
    <glyph glyph-name="v" unicode="v" horiz-adv-x="1030" 
d="M52 922h166l297 -799l298 799h165l-357 -952h-212z" />
    <glyph glyph-name="w" unicode="w" horiz-adv-x="1424" 
d="M73 922h156l196 -743l195 743h184l196 -743l194 743h157l-249 -952h-185l-205 780l-205 -780h-185z" />
    <glyph glyph-name="x" unicode="x" horiz-adv-x="1030" 
d="M955 922l-344 -463l362 -489h-184l-277 374l-277 -374h-185l370 498l-338 454h184l252 -339l253 339h184z" />
    <glyph glyph-name="y" unicode="y" horiz-adv-x="1030" 
d="M560 -118c-44 -113.333 -87 -187.333 -129 -222s-98 -52 -168 -52h-125v131h91c43.333 0 76.833 10.167 100.5 30.5s50.167 68.5 79.5 144.5l28 71l-385 937h166l297 -745l298 745h165z" />
    <glyph glyph-name="z" unicode="z" horiz-adv-x="914" 
d="M96 922h743v-143l-588 -684h588v-125h-764v143l588 684h-567v125z" />
    <glyph glyph-name="braceleft" unicode="{" 
d="M890 -192l0.00390625 -122.002h-53c-140.667 0 -235 21 -283 63s-72 125.667 -72 251v203c0 85.333 -15.333 144.5 -46 177.5s-86.334 49.5 -167.001 49.5h-51v121h51c81.333 0 137.166 16.333 167.499 49s45.5 91.334 45.5 176.001v204c0 125.333 24 208.833 72 250.5
s142.333 62.5 283 62.5h53v-122h-58c-80 0 -132.167 -12.5 -156.5 -37.5s-36.5 -77.5 -36.5 -157.5v-210c0 -89.333 -12.833 -154.166 -38.5 -194.499s-69.834 -67.5 -132.501 -81.5c63.333 -15.333 107.666 -43 132.999 -83s38 -104.333 38 -193v-211
c0 -80 12.167 -132.5 36.5 -157.5s76.5 -37.5 156.5 -37.5h58z" />
    <glyph glyph-name="bar" unicode="|" horiz-adv-x="586" 
d="M365 1300v-1741h-144v1741h144z" />
    <glyph glyph-name="braceright" unicode="}" 
d="M218 -192h59c79.333 0 131 12.333 155 37s36 77.334 36 158.001v211c0 88.667 12.833 153 38.5 193s69.834 67.667 132.501 83c-62.667 14 -106.834 41.167 -132.501 81.5s-38.5 105.166 -38.5 194.499v210c0 80.667 -12 133.334 -36 158.001s-75.667 37 -155 37h-59v122
h53c141.333 0 235.666 -20.833 282.999 -62.5s71 -125.167 71 -250.5v-204c0 -84.667 15.333 -143.334 46 -176.001s86 -49 166 -49h53v-121h-53c-80 0 -135.333 -16.5 -166 -49.5s-46 -92.167 -46 -177.5v-203c0 -125.333 -23.667 -209 -71 -251s-141.666 -63 -282.999 -63
h-53v122z" />
    <glyph glyph-name="asciitilde" unicode="~" horiz-adv-x="1459" 
d="M1274 664l-0.000976562 -151.002c-59.333 -44.667 -114.333 -76.667 -165 -96s-103.667 -29 -159 -29c-62 0 -134.333 16.667 -217 50c-6.66699 2.66699 -11.334 4.33398 -14.001 5.00098c-4 2 -10.333 4.33301 -19 7c-87.333 35.333 -157.666 53 -210.999 53
c-50 0 -99.333 -11 -148 -33s-101 -56.333 -157 -103v151c60 44.667 115.333 76.834 166 96.501s103.334 29.5 158.001 29.5c62.667 0 135.667 -17 219 -51c5.33301 -2 9.33301 -3.66699 12 -5c4.66699 -2 11 -4.33301 19 -7c88 -35.333 158.667 -53 212 -53
c48.667 0 97 10.833 145 32.5s101 56.167 159 103.5z" />
    <glyph glyph-name="currency" unicode="&#xa4;" 
d="M757 814l176.001 177.999l97 -98l-175 -175c21.333 -33.333 37 -66.833 47 -100.5s15 -68.167 15 -103.5c0 -36 -5.33301 -70.167 -16 -102.5s-27.334 -64.833 -50.001 -97.5l177 -176l-96 -96l-176 176c-34 -22.667 -67.333 -39.334 -100 -50.001
s-66.334 -16 -101.001 -16c-32.667 0 -66 5.16699 -100 15.5s-68.333 26.166 -103 47.499l-176 -176l-96 97l176 176c-21.333 34.667 -37.166 68.834 -47.499 102.501s-15.5 66.834 -15.5 99.501c0 36 5.33301 70.5 16 103.5s27 65.167 49 96.5l-176 176l97 97l176 -176
c31.333 22 63.5 38.333 96.5 49s67.5 16 103.5 16c34 0 67.5 -5.16699 100.5 -15.5s66.833 -26.166 101.5 -47.499zM784.001 516.999c0 63.333 -22 116.833 -66 160.5s-98.333 65.5 -163 65.5c-63.333 0 -117.333 -21.833 -162 -65.5s-67 -97.167 -67 -160.5
c0 -64.667 22.167 -119.167 66.5 -163.5s98.5 -66.5 162.5 -66.5s118.167 22.167 162.5 66.5s66.5 98.833 66.5 163.5z" />
    <glyph glyph-name="section" unicode="&#xa7;" horiz-adv-x="870" 
d="M322 766c-35.333 -26.667 -61.833 -52.667 -79.5 -78s-26.5 -51 -26.5 -77c0 -43.333 19.667 -83.833 59 -121.5s130 -94.834 272 -171.501c35.333 26 61.833 51.833 79.5 77.5s26.5 51.5 26.5 77.5c0 42.667 -20.333 83.334 -61 122.001s-130.667 95.667 -270 171z
M705 1213l-0.000976562 -139.996c-47.333 22 -91.166 38.667 -131.499 50s-76.5 17 -108.5 17c-55.333 0 -98.166 -11.333 -128.499 -34s-45.5 -54.334 -45.5 -95.001c0 -50.667 58.333 -108.667 175 -174l34 -20c119.333 -67.333 197.5 -122.833 234.5 -166.5
s55.5 -93.834 55.5 -150.501c0 -51.333 -13 -96.833 -39 -136.5s-65.333 -74.5 -118 -104.5c35.333 -29.333 61 -59.5 77 -90.5s24 -64.5 24 -100.5c0 -80.667 -28.833 -144.834 -86.5 -192.501s-135.5 -71.5 -233.5 -71.5c-41.333 0 -83.833 4.16699 -127.5 12.5
s-90.5 20.833 -140.5 37.5v139c49.333 -22 95 -38.5 137 -49.5s79.333 -16.5 112 -16.5c58 0 103 11.833 135 35.5s48 57.167 48 100.5c0 57.333 -62.667 121 -188 191l-21 12c-121.333 68 -200.166 123.667 -236.499 167s-54.5 94 -54.5 152
c0 51.333 13.167 97.166 39.5 137.499s65.5 74.5 117.5 102.5c-34 24.667 -59.333 53 -76 85s-25 67.333 -25 106c0 74 28.333 133.5 85 178.5s132 67.5 226 67.5c41.333 0 83.666 -4.16699 126.999 -12.5s87.666 -20.5 132.999 -36.5z" />
    <glyph glyph-name="guillemotleft" unicode="&#xab;" horiz-adv-x="720" 
d="M720 -42l-83.999 -34.9971c-120 122.667 -180 259.334 -180 410.001c0 149.333 60 285.666 180 408.999l84 -35c-19.333 -20 -38.333 -45.5 -57 -76.5s-35.334 -64 -50.001 -99s-26.167 -69.833 -34.5 -104.5s-11.5 -65.334 -9.5 -92.001
c-0.666992 -33.333 2.5 -67.333 9.5 -102s17 -68.334 30 -101.001s29 -63.834 48 -93.501s40.167 -56.5 63.5 -80.5zM442.001 -41.9971l-83.999 -34.9971c-120 122.667 -180 259.334 -180 410.001c0 149.333 60 285.666 180 408.999l84 -35
c-19.333 -20 -38.333 -45.5 -57 -76.5s-35.334 -64 -50.001 -99s-26 -69.833 -34 -104.5s-11 -65.334 -9 -92.001c-0.666992 -33.333 2.33301 -67.333 9 -102s16.667 -68.334 30 -101.001s29.333 -63.834 48 -93.501s39.667 -56.5 63 -80.5z" />
    <glyph glyph-name="logicalnot" unicode="&#xac;" horiz-adv-x="1459" 
d="M184 703h1090v-489h-143v344h-947v145z" />
    <glyph glyph-name="degree" unicode="&#xb0;" horiz-adv-x="870" 
d="M435 1152c-45.333 0 -83.498 -15.6689 -114.498 -47.002s-46.5 -69.666 -46.5 -114.999c0 -44.667 15.5 -82.5 46.5 -113.5s69.167 -46.5 114.5 -46.5s83.666 15.5 114.999 46.5s47 68.833 47 113.5s-15.833 82.834 -47.5 114.501s-69.834 47.5 -114.501 47.5z
M435.002 1262c36.667 0 71.667 -7.00195 105 -21.002s62 -34 86 -60c26.667 -25.333 46.5 -54.166 59.5 -86.499s19.5 -67.166 19.5 -104.499c0 -74.667 -26.333 -138 -79 -190s-117 -78 -193 -78s-139.5 25.5 -190.5 76.5s-76.5 114.833 -76.5 191.5
c0 76 26 140.333 78 193s115.667 79 191 79z" />
    <glyph glyph-name="paragraph" unicode="&#xb6;" 
d="M538 1239h381v-1436h-120v1331h-162v-1331h-120v719c-122 9.33301 -216.333 45.333 -283 108s-100 146 -100 250c0 108 36.833 194.833 110.5 260.5s171.5 98.5 293.5 98.5z" />
    <glyph glyph-name="periodcentered" unicode="&#xb7;" horiz-adv-x="553" 
d="M186 682h179v-216h-179v216z" />
    <glyph glyph-name="guillemotright" unicode="&#xbb;" horiz-adv-x="720" 
d="M178 706l83.999 34.999c120 -123.333 180 -260 180 -410s-60 -286.333 -180 -409l-84 35c19.333 20 38.333 45.667 57 77s35.334 64.333 50.001 99s26 69.334 34 104.001s11 65.667 9 93c0.666992 33.333 -2.33301 67.166 -9 101.499s-16.5 67.833 -29.5 100.5
s-29 63.834 -48 93.501s-40.167 56.5 -63.5 80.5zM455.999 705.999l83.999 34.999c120 -123.333 180 -260 180 -410s-60 -286.333 -180 -409l-84 35c19.333 20 38.333 45.667 57 77s35.334 64.333 50.001 99s26 69.334 34 104.001s11 65.667 9 93
c0.666992 33.333 -2.33301 67.166 -9 101.499s-16.667 67.833 -30 100.5s-29.333 63.834 -48 93.501s-39.667 56.5 -63 80.5z" />
    <glyph glyph-name="multiply" unicode="&#xd7;" horiz-adv-x="887" 
d="M761 105l-71 -70l-248 248l-248 -248l-75 73l249 248l-247 247l72 71l246 -247l248 248l74 -74l-249 -248z" />
    <glyph glyph-name="divide" unicode="&#xf7;" horiz-adv-x="887" 
d="M778 301h-687v104h687v-104zM430 496c-26.667 0 -49.5 9.66699 -68.5 29s-28.5 42.333 -28.5 69s9.5 49.5 28.5 68.5s41.833 28.5 68.5 28.5c27.333 0 50.666 -9.33301 69.999 -28s29 -41.667 29 -69s-9.66699 -50.5 -29 -69.5s-42.666 -28.5 -69.999 -28.5zM430 7
c-26.667 0 -49.5 9.5 -68.5 28.5s-28.5 41.833 -28.5 68.5s9.5 49.667 28.5 69s41.833 29 68.5 29c27.333 0 50.666 -9.5 69.999 -28.5s29 -42.167 29 -69.5s-9.66699 -50.333 -29 -69s-42.666 -28 -69.999 -28z" />
    <glyph glyph-name="afii57388" unicode="&#x60c;" horiz-adv-x="347" 
d="M345 368c-76.667 -14 -115 -75 -115 -183h109v-184h-191v104c0 186.667 65.667 285.667 197 297v-34z" />
    <glyph glyph-name="afii57403" unicode="&#x61b;" horiz-adv-x="358" 
d="M355 721c-76.667 -14 -115 -75 -115 -183h109v-184h-191v104c0 186.667 65.667 285.667 197 297v-34zM346 1h-180v177h180v-177z" />
    <glyph glyph-name="afii57407" unicode="&#x61f;" horiz-adv-x="821" 
d="M819 821l-145.999 -0.00195312c-8.66699 47.333 -33.334 84.333 -74.001 111c-37.333 24.667 -81 37 -131 37c-106 0 -159 -46.667 -159 -140c0 -26.667 13.333 -55 40 -85c10 -11.333 40 -39.333 90 -84c89.333 -80 134 -165.667 134 -257v-130h-146
c0 91.333 -14.667 162 -44 212c-10 16.667 -38.667 48.334 -86 95.001l-92 90c-31.333 42 -47 95 -47 159c0 72 24 134.667 72 188c58 64 138.667 96 242 96c104.667 0 189 -33 253 -99c52 -53.333 83.333 -117.666 94 -192.999zM588.001 2.99805h-181v174h181v-174z" />
    <glyph glyph-name="afii57440" unicode="&#x640;" horiz-adv-x="654" 
d="M684 1h-711v177h711v-177z" />
    <glyph glyph-name="afii57451" unicode="&#x64b;" horiz-adv-x="483" 
d="M533 1599l-526 -131l-24 78l525 137zM533 1426l-526 -130l-24 77l525 138z" />
    <glyph glyph-name="afii57452" unicode="&#x64c;" horiz-adv-x="470" 
d="M527 1558c0 -90 -55.999 -148.334 -167.999 -175.001l-357 -85l-20 75c54 15.333 81 46.666 81 93.999c0 16 -2.33301 26.333 -7 31c-4.66699 7.33301 -11.334 11 -20.001 11c-14 0 -32.333 -7.66699 -55 -23l-37 56c32 43.333 67 64.666 105 63.999
c56 -1.33301 84 -30.666 84 -87.999c0 -43.333 -13 -82.666 -39 -117.999c33.333 9.33301 78 23.333 134 42c-26.667 33.333 -40 69.333 -40 108c0 44.667 19.667 83.334 59 116.001c34 28.667 68 43 102 43c44 0 84 -14 120 -42c38.667 -30 58 -66.333 58 -109z
M434.001 1546c0 21.333 -7.83301 39.1699 -23.5 53.5029s-34.167 21.5 -55.5 21.5c-20.667 0 -39 -7.33301 -55 -22s-24 -32.334 -24 -53.001s8 -38.334 24 -53.001s34.333 -22 55 -22c21.333 0 39.833 7.16699 55.5 21.5s23.5 32.166 23.5 53.499z" />
    <glyph glyph-name="afii57453" unicode="&#x64d;" horiz-adv-x="470" 
d="M523 -992l-526 -131l-23 78l526 137zM523 -1164l-526 -131l-23 78l526 138z" />
    <glyph glyph-name="afii57454" unicode="&#x64e;" horiz-adv-x="470" 
d="M533 1426l-526 -130l-24 77l525 138z" />
    <glyph glyph-name="afii57455" unicode="&#x64f;" horiz-adv-x="470" 
d="M527 1558c0 -90 -56 -148.334 -168 -175.001l-357 -85l-20 75c101.333 21.333 183.333 44.333 246 69c-26.667 33.333 -40 69.333 -40 108c0 44.667 19.667 83.334 59 116.001c34 28.667 68 43 102 43c44 0 84 -14 120 -42c38.667 -30 58 -66.333 58 -109zM434 1546
c0 21.333 -7.83301 39.1699 -23.5 53.5029s-34.167 21.5 -55.5 21.5c-20.667 0 -39 -7.33301 -55 -22s-24 -32.334 -24 -53.001s8 -38.334 24 -53.001s34.333 -22 55 -22c21.333 0 39.833 7.16699 55.5 21.5s23.5 32.166 23.5 53.499z" />
    <glyph glyph-name="afii57456" unicode="&#x650;" horiz-adv-x="470" 
d="M533 -992l-526 -131l-24 78l525 137z" />
    <glyph glyph-name="afii57457" unicode="&#x651;" horiz-adv-x="470" 
d="M521 1491c0 -38 -9.66992 -70 -29.0029 -96c-21.333 -28.667 -50.666 -43 -87.999 -43c-64 0 -114 25.667 -150 77c-38 -86 -96.667 -129 -176 -129c-34.667 0 -63 13 -85 39c-20 24 -30 53.667 -30 89c0 46 14.667 103.333 44 172l63 -32c-18.667 -52 -28 -85 -28 -99
c0 -45.333 18.333 -68 55 -68c72.667 0 107.334 61.333 104.001 184l86 46c2.66699 -120.667 34.334 -181 95.001 -181c38.667 0 58 21 58 63c0 23.333 -16.333 59.666 -49 108.999l67 50c42 -59.333 63 -119.666 63 -180.999z" />
    <glyph glyph-name="afii57458" unicode="&#x652;" horiz-adv-x="470" 
d="M437 1490c0 -53.333 -18.5 -98.667 -55.5 -136s-82.167 -56 -135.5 -56c-52 0 -97 19 -135 57s-57 83 -57 135c0 50 19.5 94.333 58.5 133s83.5 58 133.5 58c48.667 0 92.667 -19.667 132 -59s59 -83.333 59 -132zM344 1493c0 27.333 -10.168 50 -30.501 68
s-44.166 27 -71.499 27c-24.667 0 -46.667 -10.167 -66 -30.5s-29 -42.833 -29 -67.5c0 -66 33 -99 99 -99c65.333 0 98 34 98 102z" />
    <glyph glyph-name="uni0653" unicode="&#x653;" horiz-adv-x="682" 
d="M719 1309c-132 -74.667 -271.331 -111.999 -417.998 -111.999c-33.333 0 -81 12.333 -143 37c-57.333 22.667 -84.666 35 -81.999 37c-9.33301 -2.66699 -27 -25.334 -53 -68.001l-103 62c56.667 101.333 99 152 127 152c5.33301 0 40.166 -14.5 104.499 -43.5
s119.166 -43.5 164.499 -43.5c127.333 0 261.666 34.667 402.999 104v-125z" />
    <glyph glyph-name="uni0654" unicode="&#x654;" horiz-adv-x="411" 
d="M464 919l-463.999 -153l-28 74l165 55c-32.667 30.667 -49 73 -49 127c0 44.667 22.667 80 68 106c37.333 21.333 80 32 128 32c19.333 0 39.666 -1.33301 60.999 -4v-69c-14.667 2 -29 3 -43 3c-86 0 -129 -26.667 -129 -80c0 -20 8.66699 -36.667 26 -50
c15.333 -12.667 33.333 -19 54 -19c24 0 86 17.667 186 53z" />
    <glyph glyph-name="uni0655" unicode="&#x655;" horiz-adv-x="411" 
d="M449 -347l-465.001 -152.999l-28 74l166 56c-32.667 31.333 -49 73.666 -49 126.999c0 44.667 22.667 80 68 106c37.333 21.333 80 32 128 32c19.333 0 39.333 -1.66699 60 -5v-68c-14 2.66699 -27.667 4 -41 4c-31.333 0 -59.333 -5.66699 -84 -17
c-31.333 -14.667 -47 -36 -47 -64c0 -20 8.33301 -36.5 25 -49.5s35.334 -19.5 56.001 -19.5c21.333 0 83 17.333 185 52z" />
    <glyph glyph-name="uni0656" unicode="&#x656;" horiz-adv-x="242" 
d="M158 -773h-105v299h105v-299z" />
    <glyph glyph-name="uni06F0" unicode="&#x660;" horiz-adv-x="1033" 
d="M656 324h-267v266h267v-266z" />
    <glyph glyph-name="uni06F0" unicode="&#x6f0;" horiz-adv-x="1033" 
d="M656 324h-267v266h267v-266z" />
    <glyph glyph-name="uni06F1" unicode="&#x661;" horiz-adv-x="1033" 
d="M706 -83h-182c0 493.333 -85.667 874 -257 1142l120 158c94 -104.667 171.667 -280 233 -526c57.333 -229.333 86 -455.333 86 -678v-96z" />
    <glyph glyph-name="uni06F1" unicode="&#x6f1;" horiz-adv-x="1033" 
d="M706 -83h-182c0 493.333 -85.667 874 -257 1142l120 158c94 -104.667 171.667 -280 233 -526c57.333 -229.333 86 -455.333 86 -678v-96z" />
    <glyph glyph-name="uni06F2" unicode="&#x662;" horiz-adv-x="1033" 
d="M913 990c0 -213.333 -101.332 -319.999 -303.999 -319.999c-48 0 -101.667 6.33301 -161 19c62 -234.667 93 -492 93 -772h-179c0 198.667 -19 392.334 -57 581.001c-46.667 229.333 -115.334 409.666 -206.001 540.999l140 174l136 -260c42.667 -61.333 125 -92 247 -92
c94.667 0 142 47 142 141c0 43.333 -10 94.666 -30 153.999l127 93c34.667 -88.667 52 -175 52 -259z" />
    <glyph glyph-name="uni06F2" unicode="&#x6f2;" horiz-adv-x="1033" 
d="M913 990c0 -213.333 -101.332 -319.999 -303.999 -319.999c-48 0 -101.667 6.33301 -161 19c62 -234.667 93 -492 93 -772h-179c0 198.667 -19 392.334 -57 581.001c-46.667 229.333 -115.334 409.666 -206.001 540.999l140 174l136 -260c42.667 -61.333 125 -92 247 -92
c94.667 0 142 47 142 141c0 43.333 -10 94.666 -30 153.999l127 93c34.667 -88.667 52 -175 52 -259z" />
    <glyph glyph-name="uni06F3" unicode="&#x663;" horiz-adv-x="1033" 
d="M978 987c0 -170 -71.335 -255 -214.002 -255c-62 0 -106.667 23.333 -134 70c-35.333 -76.667 -97 -115 -185 -115c-20.667 0 -42.334 2 -65.001 6c84.667 -197.333 127 -456 127 -776h-172c0 390 -96.667 770.333 -290 1141l125 160c18.667 -22 57.334 -95 116.001 -219
c38.667 -82 82.334 -123 131.001 -123c78.667 0 118 53 118 159v132h124l1 -152c0.666992 -87.333 35.334 -131 104.001 -131c54.667 0 82 32 82 96c0 39.333 -10.333 86.333 -31 141l125 73c25.333 -77.333 38 -146.333 38 -207z" />
    <glyph glyph-name="uni06F3" unicode="&#x6f3;" horiz-adv-x="1033" 
d="M978 987c0 -170 -71.335 -255 -214.002 -255c-62 0 -106.667 23.333 -134 70c-35.333 -76.667 -97 -115 -185 -115c-20.667 0 -42.334 2 -65.001 6c84.667 -197.333 127 -456 127 -776h-172c0 390 -96.667 770.333 -290 1141l125 160c18.667 -22 57.334 -95 116.001 -219
c38.667 -82 82.334 -123 131.001 -123c78.667 0 118 53 118 159v132h124l1 -152c0.666992 -87.333 35.334 -131 104.001 -131c54.667 0 82 32 82 96c0 39.333 -10.333 86.333 -31 141l125 73c25.333 -77.333 38 -146.333 38 -207z" />
    <glyph glyph-name="afii57396" unicode="&#x664;" horiz-adv-x="1033" 
d="M865 -52h-423c-74.667 0 -138.334 18.333 -191.001 55c-60 42 -90 98.667 -90 170c0 134 89.667 292 269 474c-112 71.333 -168 159.333 -168 264c0 72.667 48 138 144 196c68.667 41.333 172 84 310 128l54 -121c-65.333 -15.333 -132 -40 -200 -74
c-93.333 -46.667 -140 -92.334 -140 -137.001c0 -43.333 37.667 -80 113 -110c60 -23.333 115.667 -35 167 -35v-95c-82.667 -45.333 -160 -104.666 -232 -177.999c-91.333 -92.667 -137 -175 -137 -247c0 -52.667 24.667 -87 74 -103c24.667 -8 71.334 -12 140.001 -12h310
v-175z" />
    <glyph glyph-name="afii57397" unicode="&#x665;" horiz-adv-x="1033" 
d="M964 274c0 -239.333 -157 -359 -471 -359c-286 0 -429 118.333 -429 355c0 178.667 92.333 409.667 277 693l-117 98l74 141c176.667 -134.667 327 -283 451 -445c143.333 -186.667 215 -347.667 215 -483zM806 288c0 68.667 -42.333 165.667 -127 291
c-78 115.333 -156.333 206 -235 272c-152 -242 -228 -436.667 -228 -584c0 -64.667 31 -112 93 -142c47.333 -23.333 107 -35 179 -35c94 0 164.333 10 211 30c71.333 30.667 107 86.667 107 168z" />
    <glyph glyph-name="afii57398" unicode="&#x666;" horiz-adv-x="1033" 
d="M583 938c-102.667 -1.33301 -184.666 1.99902 -245.999 9.99902c-101.333 12 -180.333 32.667 -237 62v216c79.333 -32 161 -53.333 245 -64c65.333 -9.33301 130.666 -13.666 195.999 -12.999s107 0.666992 125 0c52 -6 78.667 -50.333 80 -133v-252
c0 -323.333 59 -553 177 -689l-114 -168c-128 140 -203.333 359.667 -226 659v372z" />
    <glyph glyph-name="uni06F7" unicode="&#x667;" horiz-adv-x="1033" 
d="M963 1061c-94 -102.667 -170.332 -238.666 -228.999 -407.999c-74 -213.333 -111 -458.333 -111 -735h-193c-2.66699 289.333 -47.334 543.666 -134.001 762.999c-64 162 -141 286 -231 372l84 184c118.667 -108 207.667 -241.667 267 -401c44 -118 80.667 -285 110 -501
c28 223.333 61.333 392.333 100 507c54 160 137.333 293.667 250 401z" />
    <glyph glyph-name="uni06F7" unicode="&#x6f7;" horiz-adv-x="1033" 
d="M963 1061c-94 -102.667 -170.332 -238.666 -228.999 -407.999c-74 -213.333 -111 -458.333 -111 -735h-193c-2.66699 289.333 -47.334 543.666 -134.001 762.999c-64 162 -141 286 -231 372l84 184c118.667 -108 207.667 -241.667 267 -401c44 -118 80.667 -285 110 -501
c28 223.333 61.333 392.333 100 507c54 160 137.333 293.667 250 401z" />
    <glyph glyph-name="uni06F8" unicode="&#x668;" horiz-adv-x="1033" 
d="M963 108l-84.999 -184.999c-118.667 108 -207.334 242 -266.001 402c-43.333 118 -79.666 284.667 -108.999 500c-28.667 -222.667 -62.334 -391.334 -101.001 -506.001c-54 -160.667 -137.333 -294.667 -250 -402l-87 183c94 102.667 170.333 238.667 229 408
c74 213.333 111 458 111 734h192c4 -290 49 -544.333 135 -763c64 -162 141 -285.667 231 -371z" />
    <glyph glyph-name="uni06F8" unicode="&#x6f8;" horiz-adv-x="1033" 
d="M963 108l-84.999 -184.999c-118.667 108 -207.334 242 -266.001 402c-43.333 118 -79.666 284.667 -108.999 500c-28.667 -222.667 -62.334 -391.334 -101.001 -506.001c-54 -160.667 -137.333 -294.667 -250 -402l-87 183c94 102.667 170.333 238.667 229 408
c74 213.333 111 458 111 734h192c4 -290 49 -544.333 135 -763c64 -162 141 -285.667 231 -371z" />
    <glyph glyph-name="uni06F9" unicode="&#x669;" horiz-adv-x="1033" 
d="M899 75l-114 -168c-128 140 -197.667 358.333 -209 655c-52 -9.33301 -100 -14 -144 -14c-199.333 0 -299 85 -299 255c0 100.667 30.667 198 92 292c69.333 105.333 152 158 248 158c166 0 249 -163 249 -489c0 -323.333 59 -553 177 -689zM564 741l-0.000976562 80
c0 172 -43.333 258 -130 258c-46 0 -85.667 -30.333 -119 -91c-28.667 -52.667 -43 -104 -43 -154c0 -75.333 49.667 -113 149 -113c40.667 0 88.334 6.66699 143.001 20z" />
    <glyph glyph-name="uni06F9" unicode="&#x6f9;" horiz-adv-x="1033" 
d="M899 75l-114 -168c-128 140 -197.667 358.333 -209 655c-52 -9.33301 -100 -14 -144 -14c-199.333 0 -299 85 -299 255c0 100.667 30.667 198 92 292c69.333 105.333 152 158 248 158c166 0 249 -163 249 -489c0 -323.333 59 -553 177 -689zM564 741l-0.000976562 80
c0 172 -43.333 258 -130 258c-46 0 -85.667 -30.333 -119 -91c-28.667 -52.667 -43 -104 -43 -154c0 -75.333 49.667 -113 149 -113c40.667 0 88.334 6.66699 143.001 20z" />
    <glyph glyph-name="afii57381" unicode="&#x66a;" horiz-adv-x="956" 
d="M269 1011h-179v182h179v-182zM762 1236l-488 -1396h-86l482 1396h92zM865 -132h-182v183h182v-183z" />
    <glyph glyph-name="uni066B" unicode="&#x66b;" horiz-adv-x="538" 
d="M492 635l-426 -790h-121l421 790h126z" />
    <glyph glyph-name="uni066C" unicode="&#x66c;" horiz-adv-x="349" 
d="M301 1358c-76.667 -14 -115 -75 -115 -183h109v-184h-191v104c0 186.667 65.667 285.667 197 297v-34z" />
    <glyph glyph-name="uni0670" unicode="&#x670;" horiz-adv-x="500" 
d="M209 1157h-105v299h105v-299z" />
    <glyph glyph-name="uni06F4" unicode="&#x6f4;" horiz-adv-x="1033" 
d="M462 804c-8 10 -15.334 22.0059 -22.001 36.0059c-5.33301 12 -10.333 27.167 -15 45.5s-7 40.166 -7 65.499c0 29.333 4.33301 60.166 13 92.499s24.5 62 47.5 89s54.833 49.167 95.5 66.5s92.667 26 156 26c40 0 80.5 -4.83301 121.5 -14.5s82.5 -23.834 124.5 -42.501
l-69 -102c-33.333 11.333 -66.333 20.166 -99 26.499s-62 9.5 -88 9.5c-21.333 0 -41.333 -3 -60 -9s-34.667 -14.833 -48 -26.5s-23.833 -25.834 -31.5 -42.501s-11.5 -35.667 -11.5 -57c0 -48 9.66699 -85.833 29 -113.5s43.833 -48.5 73.5 -62.5
s62.334 -22.833 98.001 -26.5s69.834 -5.5 102.501 -5.5c15.333 0 31 0.166992 47 0.5s32 0.5 48 0.5l-7 -154c-100 -4 -187.667 -6 -263 -6c-37.333 0 -72.166 1 -104.499 3s-60.833 4.83301 -85.5 8.5s-45.167 8.16699 -61.5 13.5s-26.833 11.333 -31.5 18
c36 -94 63.167 -203.167 81.5 -327.5s26.833 -257.166 25.5 -398.499h-172c0 389.333 -96.667 769.666 -290 1141l125 160c9.33301 -11.333 22.666 -35.5 39.999 -72.5s42.666 -85.833 75.999 -146.5l39 -70c12 -20.667 24.167 -39.167 36.5 -55.5s25.333 -30.333 39 -42
s29.5 -20.834 47.5 -27.501z" />
    <glyph glyph-name="uni06F5" unicode="&#x6f5;" horiz-adv-x="1033" 
d="M402 1197c44 -35.333 88.9961 -74.333 134.996 -117s90.833 -88.167 134.5 -136.5s84.834 -98.5 123.501 -150.5s72.5 -104.833 101.5 -158.5s52 -107.5 69 -161.5s25.5 -107 25.5 -159c0 -76.667 -7.83301 -140.834 -23.5 -192.501s-36 -93.334 -61 -125.001
s-53 -54.167 -84 -67.5s-62.167 -20 -93.5 -20c-22 0 -43.833 3 -65.5 9s-41.5 14 -59.5 24s-33.667 21.667 -47 35s-23 27.666 -29 42.999c-5.33301 -16.667 -14.666 -32.167 -27.999 -46.5s-29.333 -26.666 -48 -36.999s-39.667 -18.5 -63 -24.5s-47.666 -9 -72.999 -9
c-33.333 0 -66.166 5.5 -98.499 16.5s-61.333 29.667 -87 56s-46.5 61 -62.5 104s-24 96.5 -24 160.5c0 50.667 4.83301 102.334 14.5 155.001s26.667 108.334 51 167.001s57.333 121.667 99 189s94.5 141 158.5 221l-89 77zM466.996 887
c-51.333 -64 -94.665 -122.001 -129.998 -174.001s-64 -101.333 -86 -148s-37.833 -92.334 -47.5 -137.001s-14.5 -91 -14.5 -139c0 -34 5.83301 -63.833 17.5 -89.5s26.667 -46.334 45 -62.001s38.666 -26.167 60.999 -31.5s44.166 -4.5 65.499 2.5
s40.666 20.5 57.999 40.5s30 47 38 81h87c10 -30.667 23.833 -55.667 41.5 -75s36.667 -33 57 -41s41 -10.5 62 -7.5s40.167 11.5 57.5 25.5s31.333 33.333 42 58s16 54.667 16 90c0 38.667 -9.66699 83.334 -29 134.001s-45.666 103.334 -78.999 158.001
s-72.5 109.334 -117.5 164.001s-93.167 105 -144.5 151z" />
    <glyph glyph-name="uni06F6" unicode="&#x6f6;" horiz-adv-x="1033" 
d="M971 754c-196.667 -101.333 -360.332 -229.331 -490.999 -383.998c-104.667 -124 -200 -282 -286 -474l-121 128c98 199.333 229.333 392.666 394 579.999c-37.333 -6 -72 -9 -104 -9c-74 0 -133.333 16.667 -178 50c-49.333 37.333 -74 91.333 -74 162
c0 91.333 58 187 174 287c104.667 90 204 135 298 135c56 0 106.333 -19 151 -57l-49 -106c-40 16.667 -77.333 25 -112 25c-66 0 -135.333 -33 -208 -99c-64 -58 -96 -102 -96 -132c0 -44.667 15 -74.334 45 -89.001c19.333 -9.33301 54.666 -14 105.999 -14
c107.333 0 273 46.333 497 139z" />
    <glyph glyph-name="afii61664" unicode="&#x200c;" horiz-adv-x="45" 
d="M45 0h-45v1628h45v-1628z" />
    <glyph glyph-name="afii301" unicode="&#x200d;" horiz-adv-x="45" 
d="M160 1496l-30 -30l-85 85v-1551h-45v1550l-84 -84l-30 30l107 107l-107 107l30 30l107 -107l107 107l30 -30l-107 -107z" />
    <glyph glyph-name="afii299" unicode="&#x200e;" horiz-adv-x="45" 
d="M303 1604l-137 -138l-31 31l86 86h-176v-1583h-45v1628h217l-82 82l31 31z" />
    <glyph glyph-name="afii300" unicode="&#x200f;" horiz-adv-x="45" 
d="M45 0h-45v1583h-176l86 -86l-31 -31l-137 138l137 137l31 -31l-82 -82h217v-1628z" />
    <glyph glyph-name="uni2010" unicode="&#x2010;" horiz-adv-x="654" 
d="M684 1h-711v177h711v-177z" />
    <glyph glyph-name="bullet" unicode="&#x2022;" horiz-adv-x="576" 
d="M517 428c0 -64.667 -22 -119 -66 -163s-98.333 -66 -163 -66s-119 22 -163 66s-66 98.333 -66 163c0 65.333 21.833 120 65.5 164s98.167 66 163.5 66c66 0 120.667 -21.833 164 -65.5s65 -98.5 65 -164.5z" />
    <glyph glyph-name="ellipsis" unicode="&#x2026;" horiz-adv-x="1426" 
d="M336 1h-179v177h179v-177zM876 1h-179v177h179v-177zM1426 1h-179v177h179v-177z" />
    <glyph glyph-name="Euro" unicode="&#x20ac;" 
d="M992 1141l0.00195312 -180.998c-51.333 59.333 -101 101.833 -149 127.5s-101 38.5 -159 38.5c-88.667 0 -161.667 -28.333 -219 -85s-95 -138 -113 -244h490l-46 -105h-458c-0.666992 -13.333 -1.16699 -26.5 -1.5 -39.5s-0.5 -29.5 -0.5 -49.5
c0 -18 0.166992 -33.5 0.5 -46.5s0.833008 -26.167 1.5 -39.5h379l-47 -105h-318c18 -106 55.667 -187.667 113 -245s130.333 -86 219 -86c58 0 111 12.833 159 38.5s97.667 68.167 149 127.5v-179c-50.667 -40.667 -102.167 -71.334 -154.5 -92.001
s-105.833 -31 -160.5 -31c-134 0 -244.833 41.167 -332.5 123.5s-142.834 196.833 -165.501 343.5h-179l47 105h118c0 12.667 -0.166992 25.667 -0.5 39s-0.5 29 -0.5 47c0 20 0.166992 36.667 0.5 50s0.5 26.333 0.5 39h-165l47 105h132
c22.667 145.333 78 259.166 166 341.499s198.667 123.5 332 123.5c56 0 110.167 -10 162.5 -30s103.166 -50.333 152.499 -91z" />
    <glyph glyph-name="minus" unicode="&#x2212;" horiz-adv-x="1135" 
d="M911 301h-287h-99h-301v104h301h99h287v-104z" />
    <glyph glyph-name="uni25CC" unicode="&#x25cc;" horiz-adv-x="920" 
d="M829 529c-14 0 -25.833 4.83301 -35.5 14.5s-14.5 21.5 -14.5 35.5s4.83301 25.833 14.5 35.5s21.5 14.5 35.5 14.5s25.833 -4.83301 35.5 -14.5s14.5 -21.5 14.5 -35.5s-4.83301 -25.833 -14.5 -35.5s-21.5 -14.5 -35.5 -14.5zM613 745
c-14 0 -25.833 4.83301 -35.5 14.5s-14.5 21.5 -14.5 35.5s4.83301 25.833 14.5 35.5s21.5 14.5 35.5 14.5s25.833 -4.83301 35.5 -14.5s14.5 -21.5 14.5 -35.5s-4.83301 -25.833 -14.5 -35.5s-21.5 -14.5 -35.5 -14.5zM860 376c-14 0 -25.833 4.83301 -35.5 14.5
s-14.5 21.5 -14.5 35.5s4.83301 25.833 14.5 35.5s21.5 14.5 35.5 14.5s25.833 -4.83301 35.5 -14.5s14.5 -21.5 14.5 -35.5s-4.83301 -25.833 -14.5 -35.5s-21.5 -14.5 -35.5 -14.5zM743 659c-14 0 -25.833 4.83301 -35.5 14.5s-14.5 21.5 -14.5 35.5
s4.83301 25.833 14.5 35.5s21.5 14.5 35.5 14.5s25.833 -4.83301 35.5 -14.5s14.5 -21.5 14.5 -35.5s-4.83301 -25.833 -14.5 -35.5s-21.5 -14.5 -35.5 -14.5zM563 56c0 14 4.83301 25.833 14.5 35.5s21.5 14.5 35.5 14.5s25.833 -4.83301 35.5 -14.5s14.5 -21.5 14.5 -35.5
s-4.83301 -25.833 -14.5 -35.5s-21.5 -14.5 -35.5 -14.5s-25.833 4.83301 -35.5 14.5s-14.5 21.5 -14.5 35.5zM779 273c0 14 4.83301 25.833 14.5 35.5s21.5 14.5 35.5 14.5s25.833 -4.83301 35.5 -14.5s14.5 -21.5 14.5 -35.5s-4.83301 -25.833 -14.5 -35.5
s-21.5 -14.5 -35.5 -14.5s-25.833 4.83301 -35.5 14.5s-14.5 21.5 -14.5 35.5zM410 26c0 14 4.83301 25.833 14.5 35.5s21.5 14.5 35.5 14.5s25.833 -4.83301 35.5 -14.5s14.5 -21.5 14.5 -35.5s-4.83301 -25.833 -14.5 -35.5s-21.5 -14.5 -35.5 -14.5
s-25.833 4.83301 -35.5 14.5s-14.5 21.5 -14.5 35.5zM693 143c0 14 4.83301 25.833 14.5 35.5s21.5 14.5 35.5 14.5s25.833 -4.83301 35.5 -14.5s14.5 -21.5 14.5 -35.5s-4.83301 -25.833 -14.5 -35.5s-21.5 -14.5 -35.5 -14.5s-25.833 4.83301 -35.5 14.5
s-14.5 21.5 -14.5 35.5zM90 323c14 0 25.833 -4.83301 35.5 -14.5s14.5 -21.5 14.5 -35.5s-4.83301 -25.833 -14.5 -35.5s-21.5 -14.5 -35.5 -14.5s-25.833 4.83301 -35.5 14.5s-14.5 21.5 -14.5 35.5s4.83301 25.833 14.5 35.5s21.5 14.5 35.5 14.5zM307 106
c14 0 25.833 -4.83301 35.5 -14.5s14.5 -21.5 14.5 -35.5s-4.83301 -25.833 -14.5 -35.5s-21.5 -14.5 -35.5 -14.5s-25.833 4.83301 -35.5 14.5s-14.5 21.5 -14.5 35.5s4.83301 25.833 14.5 35.5s21.5 14.5 35.5 14.5zM60 476c14 0 25.833 -4.83301 35.5 -14.5
s14.5 -21.5 14.5 -35.5s-4.83301 -25.833 -14.5 -35.5s-21.5 -14.5 -35.5 -14.5s-25.833 4.83301 -35.5 14.5s-14.5 21.5 -14.5 35.5s4.83301 25.833 14.5 35.5s21.5 14.5 35.5 14.5zM177 193c14 0 25.833 -4.83301 35.5 -14.5s14.5 -21.5 14.5 -35.5
s-4.83301 -25.833 -14.5 -35.5s-21.5 -14.5 -35.5 -14.5s-25.833 4.83301 -35.5 14.5s-14.5 21.5 -14.5 35.5s4.83301 25.833 14.5 35.5s21.5 14.5 35.5 14.5zM357 795c0 -14 -4.83301 -25.833 -14.5 -35.5s-21.5 -14.5 -35.5 -14.5s-25.833 4.83301 -35.5 14.5
s-14.5 21.5 -14.5 35.5s4.83301 25.833 14.5 35.5s21.5 14.5 35.5 14.5s25.833 -4.83301 35.5 -14.5s14.5 -21.5 14.5 -35.5zM140 579c0 -14 -4.83301 -25.833 -14.5 -35.5s-21.5 -14.5 -35.5 -14.5s-25.833 4.83301 -35.5 14.5s-14.5 21.5 -14.5 35.5
s4.83301 25.833 14.5 35.5s21.5 14.5 35.5 14.5s25.833 -4.83301 35.5 -14.5s14.5 -21.5 14.5 -35.5zM510 826c0 -14 -4.83301 -25.833 -14.5 -35.5s-21.5 -14.5 -35.5 -14.5s-25.833 4.83301 -35.5 14.5s-14.5 21.5 -14.5 35.5s4.83301 25.833 14.5 35.5
s21.5 14.5 35.5 14.5s25.833 -4.83301 35.5 -14.5s14.5 -21.5 14.5 -35.5zM227 709c0 -14 -4.83301 -25.833 -14.5 -35.5s-21.5 -14.5 -35.5 -14.5s-25.833 4.83301 -35.5 14.5s-14.5 21.5 -14.5 35.5s4.83301 25.833 14.5 35.5s21.5 14.5 35.5 14.5
s25.833 -4.83301 35.5 -14.5s14.5 -21.5 14.5 -35.5z" />
    <glyph glyph-name="uniFD3E" unicode="&#xfd3e;" horiz-adv-x="820" 
d="M820 -309l-70.001 -69.002c-155.333 159.333 -260 329.666 -314 510.999c-6.66699 7.33301 -12.167 17.166 -16.5 29.499s-12.166 21.5 -23.499 27.5l-51 14.5c-16 4.33301 -31.667 10.166 -47 17.499l-3 19c27.333 20.667 47.333 40.167 60 58.5s22 37.833 28 58.5
c-21.333 -4 -42.166 -13.5 -62.499 -28.5s-39.166 -34.167 -56.499 -57.5l-18 2c-7.33301 14 -13.833 29.333 -19.5 46s-9.83398 33.667 -12.501 51c-4.66699 8 -10.834 13.833 -18.501 17.5l-22 10.5c-7 3.33301 -13 7.66602 -18 12.999s-7.5 13.666 -7.5 24.999
c0 9.33301 2.5 16.5 7.5 21.5s11 9.5 18 13.5l21.5 12.5c7.33301 4.33301 13.666 10.5 18.999 18.5c2 16 6 32.667 12 50s12.667 32.666 20 45.999l18 3c20 -26.667 40.333 -47.167 61 -61.5s40 -22.5 58 -24.5c-5.33301 20 -15 39.833 -29 59.5s-33.667 38.834 -59 57.501
l3 18c15.333 7.33301 31.5 14 48.5 20s33.5 10 49.5 12c6 3.33301 11 7.66602 15 12.999s7.5 10.833 10.5 16.5s5.66699 11 8 16s4.5 8.5 6.5 10.5c54 182.667 158.667 353.667 314 513l70 -69c-16 -16 -32.833 -36 -50.5 -60s-35.334 -50.5 -53.001 -79.5
s-35 -59.5 -52 -91.5s-32.667 -64.167 -47 -96.5s-26.833 -63.833 -37.5 -94.5s-19 -58.667 -25 -84c15.333 -3.33301 28.333 -7.16602 39 -11.499s21.334 -9.16602 32.001 -14.499l3 -18c-26.667 -20 -47.167 -40 -61.5 -60s-22.833 -39 -25.5 -57
c18.667 2.66699 38.334 11.167 59.001 25.5s40.667 34.5 60 60.5l18 -3c4.66699 -5.33301 8.83398 -12.666 12.501 -21.999s6.83398 -19 9.50098 -29s4.83398 -19.167 6.50098 -27.5l3.5 -17.5c6.66699 -8 13.834 -14.333 21.501 -19l21.5 -13
c6.66699 -4 12.167 -8.5 16.5 -13.5s6.5 -11.833 6.5 -20.5c0 -11.333 -3.33301 -19.666 -10 -24.999s-14.334 -10.5 -23.001 -15.5s-16.834 -11.5 -24.501 -19.5s-12.834 -20 -15.501 -36c-3.33301 -11.333 -7 -22.333 -11 -33s-8.66699 -22 -14 -34l-18 -2
c-22 22.667 -41.5 41.834 -58.5 57.501s-37.167 25.167 -60.5 28.5c2.66699 -18 11.167 -37.167 25.5 -57.5s34.833 -40.166 61.5 -59.499l-3 -19c-12 -5.33301 -23.833 -10.166 -35.5 -14.499s-25.167 -8.16602 -40.5 -11.499c10 -44.667 23.667 -90.167 41 -136.5
s37.833 -91.5 61.5 -135.5s49.667 -86 78 -126s58.166 -75.667 89.499 -107zM523.999 343.998c-7.33301 -4 -13.6689 -9.50098 -19.002 -16.501s-9.66602 -13.833 -12.999 -20.5l-8.5 -17.5c-2.33301 -5 -4.5 -7.83301 -6.5 -8.5c-2 -1.33301 -4.33301 -2 -7 -2h-8
c-7.33301 0 -12.333 0.666992 -15 2c-2 0.666992 -4.16699 3.5 -6.5 8.5s-5.33301 10.833 -9 17.5s-8 13.5 -13 20.5s-11.167 12.5 -18.5 16.5c-4.66699 -21.333 -14 -40 -28 -56s-31 -34 -51 -54c12 -4.66699 24.667 -9 38 -13s27.333 -7.66699 42 -11
c14 -7.33301 23.833 -14.833 29.5 -22.5s9.66699 -14.5 12 -20.5s4.5 -11 6.5 -15s6.33301 -6 13 -6c6 0 10.667 2.5 14 7.5s6.66602 10.833 9.99902 17.5s7.5 13.5 12.5 20.5s12.167 12.833 21.5 17.5c15.333 2.66699 30.333 6.33398 45 11.001s27.667 9.66699 39 15
c-21.333 17.333 -39.166 35.333 -53.499 54s-23.166 37 -26.499 55zM367.996 374.997c-4 8 -9.49902 14.498 -16.499 19.498s-14 9.33301 -21 13s-13 6.5 -18 8.5s-7.5 4 -7.5 6c-1.33301 5.33301 -2 9.66602 -2 12.999c0 4.66699 0.666992 10.334 2 17.001
c0.666992 2 3.5 4.16699 8.5 6.5s10.833 5.33301 17.5 9s13.5 7.83398 20.5 12.501s12.5 10.667 16.5 18c-18.667 3.33301 -37.834 12.5 -57.501 27.5s-37.167 32.167 -52.5 51.5c-11.333 -24 -19.666 -50.667 -24.999 -80c-6.66699 -12 -13.834 -20.667 -21.501 -26
s-14.667 -9.5 -21 -12.5s-11.666 -5.83301 -15.999 -8.5s-6.5 -7 -6.5 -13c0 -5.33301 2.5 -9.5 7.5 -12.5l17.5 -10c6.66699 -3.66699 13.667 -8.33398 21 -14.001s13.666 -13.5 18.999 -23.5c3.33301 -15.333 7 -29.666 11 -42.999s8.66699 -25.666 14 -36.999
c17.333 21.333 35.5 38.833 54.5 52.5s37.5 22.167 55.5 25.5zM399.997 529.995c8 4 14.4961 9.49805 19.4961 16.498s9.33301 13.833 13 20.5s6.5 12.5 8.5 17.5s4 7.83301 6 8.5c2 0 4.33301 0.166992 7 0.5s5.66699 0.5 9 0.5c2.66699 0 5.33398 -0.166992 8.00098 -0.5
s5 -0.5 7 -0.5c2 -0.666992 4.16699 -3.5 6.5 -8.5l8.5 -17.5c3.33301 -6.66699 7.5 -13.5 12.5 -20.5s11.167 -12.5 18.5 -16.5c3.33301 18 12.5 36.667 27.5 56s32.167 37.333 51.5 54c-12 4.66699 -25 8.83398 -39 12.501l-41 10.5c-11.333 6 -19.833 12.833 -25.5 20.5
s-10.167 14.834 -13.5 21.501s-6.33301 12.167 -9 16.5s-7 6.5 -13 6.5c-4.66699 0 -8.66699 -2.33301 -12 -7s-6.83301 -10.5 -10.5 -17.5s-8.16699 -14.167 -13.5 -21.5s-12.666 -13.333 -21.999 -18c-15.333 -2 -30.166 -5.33301 -44.499 -10
s-27.166 -9.66699 -38.499 -15c21.333 -18 39 -36.167 53 -54.5s22.667 -36.5 26 -54.5zM556.993 497.993c4 -7.33301 9.50195 -13.5 16.502 -18.5s13.833 -9.33301 20.5 -13s12.5 -6.5 17.5 -8.5s7.83301 -4 8.5 -6c1.33301 -6.66699 2 -12 2 -16c0 -6 -1 -11 -3 -15
c0 -2 -2.5 -4.16699 -7.5 -6.5l-17.5 -8.5c-6.66699 -3.33301 -13.5 -7.5 -20.5 -12.5s-12.5 -11.167 -16.5 -18.5c21.333 -5.33301 40 -14.666 56 -27.999s34 -30 54 -50c4.66699 11.333 9.16699 24 13.5 38s7.83301 27.667 10.5 41c5.33301 10 11.666 17.5 18.999 22.5
s14.5 9.33301 21.5 13s12.833 7.16699 17.5 10.5s7 8.33301 7 15c0 5.33301 -2.33301 9.66602 -7 12.999s-10.5 6.66602 -17.5 9.99902s-14.167 7.5 -21.5 12.5s-13.333 12.167 -18 21.5c-4 16.667 -7.83301 31.667 -11.5 45s-8.16699 26 -13.5 38
c-18.667 -21.333 -36.834 -38.666 -54.501 -51.999s-36.167 -22.333 -55.5 -27zM461.995 356.993c22.667 0 41.834 7.83301 57.501 23.5s23.5 34.5 23.5 56.5s-7.83301 40.833 -23.5 56.5s-34.834 23.5 -57.501 23.5c-22 0 -40.833 -7.83301 -56.5 -23.5
s-23.5 -34.5 -23.5 -56.5s7.83301 -40.833 23.5 -56.5s34.5 -23.5 56.5 -23.5z" />
    <glyph glyph-name="uniFD3F" unicode="&#xfd3f;" horiz-adv-x="820" 
d="M148 1183l70.0029 69c155.333 -159.333 260 -329.666 314 -510.999c6.66699 -7.33301 12.167 -17.166 16.5 -29.499s12.166 -21.5 23.499 -27.5l51 -14.5c16 -4.33301 31.667 -10.166 47 -17.499l3 -19c-27.333 -20.667 -47.333 -40.167 -60 -58.5s-22 -37.833 -28 -58.5
c21.333 4 42.166 13.5 62.499 28.5s39.166 34.167 56.499 57.5l18 -2c7.33301 -14 13.833 -29.333 19.5 -46s9.83398 -33.667 12.501 -51c4.66699 -8 10.834 -13.833 18.501 -17.5l22 -10.5c7 -3.33301 13 -7.66602 18 -12.999s7.5 -13.666 7.5 -24.999
c0 -9.33301 -2.5 -16.5 -7.5 -21.5s-11 -9.5 -18 -13.5l-21.5 -12.5c-7.33301 -4.33301 -13.666 -10.5 -18.999 -18.5c-2 -16 -6 -32.667 -12 -50s-12.667 -32.666 -20 -45.999l-18 -3c-20 26.667 -40.333 47.167 -61 61.5s-40 22.5 -58 24.5
c5.33301 -20 15 -39.833 29 -59.5s33.667 -38.834 59 -57.501l-3 -18c-15.333 -7.33301 -31.5 -14 -48.5 -20s-33.5 -10 -49.5 -12c-6 -3.33301 -11 -7.66602 -15 -12.999s-7.5 -10.833 -10.5 -16.5s-5.66699 -11 -8 -16s-4.5 -8.5 -6.5 -10.5
c-54 -182.667 -158.667 -353.667 -314 -513l-70 69c16 16 32.833 36 50.5 60s35.334 50.5 53.001 79.5s35 59.5 52 91.5s32.667 64.167 47 96.5s26.833 63.833 37.5 94.5s19 58.667 25 84c-15.333 3.33301 -28.333 7.16602 -39 11.499s-21.334 9.16602 -32.001 14.499l-3 18
c26.667 20 47.167 40 61.5 60s22.833 39 25.5 57c-18.667 -2.66699 -38.334 -11.167 -59.001 -25.5s-40.667 -34.5 -60 -60.5l-18 3c-4.66699 5.33301 -8.83398 12.666 -12.501 21.999s-6.83398 19 -9.50098 29s-4.83398 19.167 -6.50098 27.5l-3.5 17.5
c-6.66699 8 -13.834 14.333 -21.501 19l-21.5 13c-6.66699 4 -12.167 8.5 -16.5 13.5s-6.5 11.833 -6.5 20.5c0 10.667 3.33301 18.834 10 24.501s14.167 11 22.5 16s16.5 11.5 24.5 19.5s13.333 20 16 36c3.33301 11.333 7 22.333 11 33s8.66699 22 14 34l18 2
c22 -22.667 41.5 -41.834 58.5 -57.501s37.167 -25.167 60.5 -28.5c-2.66699 18 -11.167 37.167 -25.5 57.5s-34.833 40.166 -61.5 59.499l3 19c12 5.33301 23.833 10.166 35.5 14.499s25.167 8.16602 40.5 11.499c-10 44.667 -23.833 90.167 -41.5 136.5
s-38.167 91.5 -61.5 135.5s-49.166 86 -77.499 126s-58.166 75.667 -89.499 107zM444.003 530c7.33301 4 13.668 9.50098 19.001 16.501s9.66602 13.833 12.999 20.5l8.5 17.5c2.33301 5 4.5 7.83301 6.5 8.5c2 1.33301 4.33301 2 7 2h8c7.33301 0 12.333 -0.666992 15 -2
c2 -0.666992 4.16699 -3.5 6.5 -8.5s5.33301 -10.833 9 -17.5s8 -13.5 13 -20.5s11.167 -12.5 18.5 -16.5c4.66699 21.333 14 40 28 56s31 34 51 54c-12 4.66699 -24.667 9 -38 13s-27.333 7.66699 -42 11c-14 7.33301 -23.833 14.833 -29.5 22.5s-9.66699 14.5 -12 20.5
s-4.5 11 -6.5 15s-6.33301 6 -13 6c-6 0 -10.667 -2.5 -14 -7.5s-6.66602 -10.833 -9.99902 -17.5s-7.66602 -13.5 -12.999 -20.5s-12.333 -12.833 -21 -17.5c-15.333 -2.66699 -30.333 -6.33398 -45 -11.001s-27.667 -9.66699 -39 -15
c21.333 -17.333 39.166 -35.333 53.499 -54s23.166 -37 26.499 -55zM600.005 499.001c4 -8 9.50195 -14.498 16.502 -19.498s14 -9.33301 21 -13s13 -6.5 18 -8.5s7.5 -4 7.5 -6c1.33301 -5.33301 2 -9.66602 2 -12.999c0 -4.66699 -0.666992 -10.334 -2 -17.001
c-0.666992 -2 -3.5 -4.16699 -8.5 -6.5s-10.833 -5.33301 -17.5 -9s-13.5 -7.83398 -20.5 -12.501s-12.5 -10.667 -16.5 -18c18.667 -3.33301 37.834 -12.5 57.501 -27.5s37.167 -32.167 52.5 -51.5c11.333 24 19.666 50.667 24.999 80c6.66699 12 13.834 20.667 21.501 26
s14.667 9.5 21 12.5s11.666 5.83301 15.999 8.5s6.5 7 6.5 13c0 5.33301 -2.5 9.5 -7.5 12.5l-17.5 10c-6.66699 3.66699 -13.834 8.33398 -21.501 14.001s-13.834 13.5 -18.501 23.5c-3.33301 15.333 -7 29.666 -11 42.999s-8.66699 25.666 -14 36.999
c-17.333 -21.333 -35.5 -38.833 -54.5 -52.5s-37.5 -22.167 -55.5 -25.5zM568.007 344.003c-8 -4 -14.4961 -9.49805 -19.4961 -16.498s-9.33301 -13.833 -13 -20.5s-6.5 -12.5 -8.5 -17.5s-4 -7.83301 -6 -8.5c-2 0 -4.33301 -0.166992 -7 -0.5s-5.66699 -0.5 -9 -0.5
c-2.66699 0 -5.33398 0.166992 -8.00098 0.5s-5 0.5 -7 0.5c-2 0.666992 -4.16699 3.5 -6.5 8.5l-8.5 17.5c-3.33301 6.66699 -7.5 13.5 -12.5 20.5s-11.167 12.5 -18.5 16.5c-3.33301 -18 -12.5 -36.667 -27.5 -56s-32.167 -37.333 -51.5 -54
c12 -4.66699 25 -8.83398 39 -12.501l41 -10.5c11.333 -6 19.833 -12.833 25.5 -20.5s10.167 -14.834 13.5 -21.501s6.33301 -12.167 9 -16.5s7 -6.5 13 -6.5c4.66699 0 8.66699 2.33301 12 7s6.83301 10.5 10.5 17.5s8.16699 14 13.5 21s12.666 13.167 21.999 18.5
c15.333 2 30.166 5.33301 44.499 10s27.166 9.66699 38.499 15c-21.333 18 -39 36.167 -53 54.5s-22.667 36.5 -26 54.5zM411.011 376.005c-4 7.33301 -9.50195 13.499 -16.502 18.499s-13.833 9.33301 -20.5 13s-12.5 6.5 -17.5 8.5s-7.83301 4 -8.5 6
c-1.33301 6.66699 -2 12 -2 16c0 6 1 11 3 15c0 2 2.5 4.16699 7.5 6.5l17.5 8.5c6.66699 3.33301 13.5 7.5 20.5 12.5s12.5 11.167 16.5 18.5c-21.333 5.33301 -40 14.666 -56 27.999s-34 30 -54 50c-4.66699 -11.333 -9.16699 -24 -13.5 -38s-7.83301 -27.667 -10.5 -41
c-5.33301 -10 -11.666 -17.5 -18.999 -22.5s-14.5 -9.33301 -21.5 -13s-12.833 -7.16699 -17.5 -10.5s-7 -8.33301 -7 -15c0 -5.33301 2.33301 -9.66602 7 -12.999s10.5 -6.66602 17.5 -9.99902s14 -7.66602 21 -12.999s13.167 -12.333 18.5 -21
c4 -16.667 7.83301 -31.667 11.5 -45s8.16699 -26 13.5 -38c18.667 21.333 36.834 38.666 54.501 51.999s36.167 22.333 55.5 27zM506.009 517.004c-22.667 0 -41.834 -7.83301 -57.501 -23.5s-23.5 -34.5 -23.5 -56.5s7.83301 -40.833 23.5 -56.5
s34.834 -23.5 57.501 -23.5c22 0 40.833 7.83301 56.5 23.5s23.5 34.5 23.5 56.5s-7.83301 40.833 -23.5 56.5s-34.5 23.5 -56.5 23.5z" />
    <glyph glyph-name="NULL" horiz-adv-x="0" 
 />
    <glyph glyph-name="nonmarkingreturn" horiz-adv-x="470" 
 />
    </font>
</defs>
</svg>
